{
  "accessors": [
    {
      "bufferView": 2,
      "componentType": 5126,
      "count": 36931,
      "max": [
        0.04992615804076195,
        0.0821574330329895,
        0.07486013323068619
      ],
      "min": [
        -0.0790013000369072,
        -0.0637153834104538,
        -0.05340585857629776
      ],
      "type": "VEC3"
    },
    {
      "bufferView": 2,
      "byteOffset": 443172,
      "componentType": 5126,
      "count": 36931,
      "max": [
        0.999987006187439,
        0.9999459385871887,
        0.9998403191566467
      ],
      "min": [
        -0.9999876618385315,
        -0.998065173625946,
        -0.999971330165863
      ],
      "type": "VEC3"
    },
    {
      "bufferView": 1,
      "componentType": 5126,
      "count": 36931,
      "max": [
        0.9995107054710388,
        0.9995236396789551
      ],
      "min": [
        0.0004756203852593899,
        0.0007353425025939941
      ],
      "type": "VEC2"
    },
    {
      "bufferView": 0,
      "componentType": 5125,
      "count": 111177,
      "type": "SCALAR"
    }
  ],
  "asset": {
    "extras": {
      "author": "daninakamura (https://sketchfab.com/daninakamura)",
      "license": "CC-BY-4.0 (http://creativecommons.org/licenses/by/4.0/)",
      "source": "https://sketchfab.com/3d-models/fotogrametria-objeto-winnie-the-poo-bcfa5912e290488abc0cfe49554b1399",
      "title": "FOTOGRAMETRÍA Objeto Winnie The Poo"
    },
    "generator": "Sketchfab-15.29.0",
    "version": "2.0"
  },
  "bufferViews": [
    {
      "buffer": 0,
      "byteLength": 444708,
      "name": "floatBufferViews",
      "target": 34963
    },
    {
      "buffer": 0,
      "byteLength": 295448,
      "byteOffset": 444708,
      "byteStride": 8,
      "name": "floatBufferViews",
      "target": 34962
    },
    {
      "buffer": 0,
      "byteLength": 886344,
      "byteOffset": 740156,
      "byteStride": 12,
      "name": "floatBufferViews",
      "target": 34962
    }
  ],
  "buffers": [
    {
      "byteLength": 1626500,
      "uri": "scene.bin"
    }
  ],
  "extensionsUsed": [
    "KHR_materials_unlit"
  ],
  "images": [
    {
      "uri": "textures/Material0_baseColor.jpeg"
    }
  ],
  "materials": [
    {
      "doubleSided": true,
      "extensions": {
        "KHR_materials_unlit": {}
      },
      "name": "Material0",
      "pbrMetallicRoughness": {
        "baseColorTexture": {
          "index": 0
        },
        "metallicFactor": 0.0
      }
    }
  ],
  "meshes": [
    {
      "name": "Stereo textured mesh_Material0_0",
      "primitives": [
        {
          "attributes": {
            "NORMAL": 1,
            "POSITION": 0,
            "TEXCOORD_0": 2
          },
          "indices": 3,
          "material": 0,
          "mode": 4
        }
      ]
    }
  ],
  "nodes": [
    {
      "children": [
        1
      ],
      "matrix": [
        1.0,
        2.2204460492503123e-16,
        2.8327693431939995e-16,
        0.0,
        2.220446049250313e-16,
        -1.0,
        -4.440892098500626e-16,
        0.0,
        2.832769343193999e-16,
        4.440892098500626e-16,
        -1.0,
        0.0,
        0.0,
        0.0,
        0.0,
        1.0
      ],
      "name": "Sketchfab_model"
    },
    {
      "children": [
        2
      ],
      "matrix": [
        1.0,
        0.0,
        0.0,
        0.0,
        0.0,
        -1.0,
        0.0,
        0.0,
        0.0,
        0.0,
        -1.0,
        0.0,
        0.0,
        0.0,
        0.0,
        1.0
      ],
      "name": "sketchfabTemp.obj.fbx"
    },
    {
      "children": [
        3
      ],
      "name": "RootNode"
    },
    {
      "children": [
        4
      ],
      "name": "Stereo textured mesh"
    },
    {
      "mesh": 0,
      "name": "Stereo textured mesh_Material0_0"
    }
  ],
  "samplers": [
    {
      "magFilter": 9729,
      "minFilter": 9987,
      "wrapS": 10497,
      "wrapT": 10497
    }
  ],
  "scene": 0,
  "scenes": [
    {
      "name": "Sketchfab_Scene",
      "nodes": [
        0
      ]
    }
  ],
  "textures": [
    {
      "sampler": 0,
      "source": 0
    }
  ]
}
