{
  "accessors": [
    {
      "bufferView": 2,
      "componentType": 5126,
      "count": 193,
      "max": [
        0.1697523593902588,
        1.398030400276184,
        1.3980302810668945
      ],
      "min": [
        -3.5762786865234375e-07,
        -1.398030400276184,
        -1.3980305194854736
      ],
      "type": "VEC3"
    },
    {
      "bufferView": 2,
      "byteOffset": 2316,
      "componentType": 5126,
      "count": 193,
      "max": [
        1.0,
        0.17899060249328613,
        0.17899063229560852
      ],
      "min": [
        0.9838508367538452,
        -0.17899060249328613,
        -0.17899060249328613
      ],
      "type": "VEC3"
    },
    {
      "bufferView": 3,
      "componentType": 5126,
      "count": 193,
      "max": [
        0.17815613746643066,
        0.9951848387718201,
        -0.0964491069316864,
        1.0
      ],
      "min": [
        -0.17815615236759186,
        0.979263961315155,
        -0.09801778942346573,
        1.0
      ],
      "type": "VEC4"
    },
    {
      "bufferView": 1,
      "componentType": 5126,
      "count": 193,
      "max": [
        0.9930703639984131,
        0.993062436580658
      ],
      "min": [
        0.004963493440300226,
        0.0049555241130292416
      ],
      "type": "VEC2"
    },
    {
      "bufferView": 1,
      "byteOffset": 1544,
      "componentType": 5126,
      "count": 193,
      "max": [
        0.9930703639984131,
        0.993062436580658
      ],
      "min": [
        0.004963493440300226,
        0.0049555241130292416
      ],
      "type": "VEC2"
    },
    {
      "bufferView": 1,
      "byteOffset": 3088,
      "componentType": 5126,
      "count": 193,
      "max": [
        0.9930703639984131,
        0.993062436580658
      ],
      "min": [
        0.004963493440300226,
        0.0049555241130292416
      ],
      "type": "VEC2"
    },
    {
      "bufferView": 1,
      "byteOffset": 4632,
      "componentType": 5126,
      "count": 193,
      "max": [
        0.9930703639984131,
        0.993062436580658
      ],
      "min": [
        0.004963493440300226,
        0.0049555241130292416
      ],
      "type": "VEC2"
    },
    {
      "bufferView": 1,
      "byteOffset": 6176,
      "componentType": 5126,
      "count": 193,
      "max": [
        0.9930703639984131,
        0.993062436580658
      ],
      "min": [
        0.004963493440300226,
        0.0049555241130292416
      ],
      "type": "VEC2"
    },
    {
      "bufferView": 1,
      "byteOffset": 7720,
      "componentType": 5126,
      "count": 193,
      "max": [
        0.9930703639984131,
        0.993062436580658
      ],
      "min": [
        0.004963493440300226,
        0.0049555241130292416
      ],
      "type": "VEC2"
    },
    {
      "bufferView": 1,
      "byteOffset": 9264,
      "componentType": 5126,
      "count": 193,
      "max": [
        0.9930703639984131,
        0.993062436580658
      ],
      "min": [
        0.004963493440300226,
        0.0049555241130292416
      ],
      "type": "VEC2"
    },
    {
      "bufferView": 1,
      "byteOffset": 10808,
      "componentType": 5126,
      "count": 193,
      "max": [
        0.9930703639984131,
        0.993062436580658
      ],
      "min": [
        0.004963493440300226,
        0.0049555241130292416
      ],
      "type": "VEC2"
    },
    {
      "bufferView": 1,
      "byteOffset": 12352,
      "componentType": 5126,
      "count": 193,
      "max": [
        0.9930703639984131,
        0.993062436580658
      ],
      "min": [
        0.004963493440300226,
        0.0049555241130292416
      ],
      "type": "VEC2"
    },
    {
      "bufferView": 1,
      "byteOffset": 13896,
      "componentType": 5126,
      "count": 193,
      "max": [
        0.9930703639984131,
        0.993062436580658
      ],
      "min": [
        0.004963493440300226,
        0.0049555241130292416
      ],
      "type": "VEC2"
    },
    {
      "bufferView": 0,
      "componentType": 5125,
      "count": 1056,
      "type": "SCALAR"
    },
    {
      "bufferView": 2,
      "byteOffset": 4632,
      "componentType": 5126,
      "count": 2703,
      "max": [
        2.0807056427001953,
        1.824397325515747,
        4.932953834533691
      ],
      "min": [
        -1.576669454574585,
        -1.8262033462524414,
        -2.384185791015625e-07
      ],
      "type": "VEC3"
    },
    {
      "bufferView": 2,
      "byteOffset": 37068,
      "componentType": 5126,
      "count": 2703,
      "max": [
        1.0,
        1.0,
        1.0
      ],
      "min": [
        -1.0,
        -1.0,
        -1.0
      ],
      "type": "VEC3"
    },
    {
      "bufferView": 3,
      "byteOffset": 3088,
      "componentType": 5126,
      "count": 2703,
      "max": [
        1.0,
        1.0,
        1.0,
        1.0
      ],
      "min": [
        -1.0,
        -1.0,
        -1.0,
        -1.0
      ],
      "type": "VEC4"
    },
    {
      "bufferView": 1,
      "byteOffset": 15440,
      "componentType": 5126,
      "count": 2703,
      "max": [
        0.9943104982376099,
        0.9928842186927795
      ],
      "min": [
        0.005653544329106808,
        0.0055974330753088
      ],
      "type": "VEC2"
    },
    {
      "bufferView": 1,
      "byteOffset": 37064,
      "componentType": 5126,
      "count": 2703,
      "max": [
        0.9943104982376099,
        0.9928842186927795
      ],
      "min": [
        0.005653544329106808,
        0.0055974330753088
      ],
      "type": "VEC2"
    },
    {
      "bufferView": 1,
      "byteOffset": 58688,
      "componentType": 5126,
      "count": 2703,
      "max": [
        0.9943104982376099,
        0.9928842186927795
      ],
      "min": [
        0.005653544329106808,
        0.0055974330753088
      ],
      "type": "VEC2"
    },
    {
      "bufferView": 1,
      "byteOffset": 80312,
      "componentType": 5126,
      "count": 2703,
      "max": [
        0.9943104982376099,
        0.9928842186927795
      ],
      "min": [
        0.005653544329106808,
        0.0055974330753088
      ],
      "type": "VEC2"
    },
    {
      "bufferView": 1,
      "byteOffset": 101936,
      "componentType": 5126,
      "count": 2703,
      "max": [
        0.9943104982376099,
        0.9928842186927795
      ],
      "min": [
        0.005653544329106808,
        0.0055974330753088
      ],
      "type": "VEC2"
    },
    {
      "bufferView": 1,
      "byteOffset": 123560,
      "componentType": 5126,
      "count": 2703,
      "max": [
        0.9943104982376099,
        0.9928842186927795
      ],
      "min": [
        0.005653544329106808,
        0.0055974330753088
      ],
      "type": "VEC2"
    },
    {
      "bufferView": 1,
      "byteOffset": 145184,
      "componentType": 5126,
      "count": 2703,
      "max": [
        0.9943104982376099,
        0.9928842186927795
      ],
      "min": [
        0.005653544329106808,
        0.0055974330753088
      ],
      "type": "VEC2"
    },
    {
      "bufferView": 1,
      "byteOffset": 166808,
      "componentType": 5126,
      "count": 2703,
      "max": [
        0.9943104982376099,
        0.9928842186927795
      ],
      "min": [
        0.005653544329106808,
        0.0055974330753088
      ],
      "type": "VEC2"
    },
    {
      "bufferView": 1,
      "byteOffset": 188432,
      "componentType": 5126,
      "count": 2703,
      "max": [
        0.9943104982376099,
        0.9928842186927795
      ],
      "min": [
        0.005653544329106808,
        0.0055974330753088
      ],
      "type": "VEC2"
    },
    {
      "bufferView": 1,
      "byteOffset": 210056,
      "componentType": 5126,
      "count": 2703,
      "max": [
        0.9943104982376099,
        0.9928842186927795
      ],
      "min": [
        0.005653544329106808,
        0.0055974330753088
      ],
      "type": "VEC2"
    },
    {
      "bufferView": 0,
      "byteOffset": 4224,
      "componentType": 5125,
      "count": 8520,
      "type": "SCALAR"
    }
  ],
  "asset": {
    "extras": {
      "author": "Minh Nguyen (https://sketchfab.com/Minh_Nguyen_2004)",
      "license": "CC-BY-NC-4.0 (http://creativecommons.org/licenses/by-nc/4.0/)",
      "source": "https://sketchfab.com/3d-models/old-washing-machine-4k-textures-76784c9a30134ddc8c7605aba8e72a77",
      "title": "Old Washing Machine (4K Textures)"
    },
    "generator": "Sketchfab-16.14.0",
    "version": "2.0"
  },
  "bufferViews": [
    {
      "buffer": 0,
      "byteLength": 38304,
      "name": "floatBufferViews",
      "target": 34963
    },
    {
      "buffer": 0,
      "byteLength": 231680,
      "byteOffset": 38304,
      "byteStride": 8,
      "name": "floatBufferViews",
      "target": 34962
    },
    {
      "buffer": 0,
      "byteLength": 69504,
      "byteOffset": 269984,
      "byteStride": 12,
      "name": "floatBufferViews",
      "target": 34962
    },
    {
      "buffer": 0,
      "byteLength": 46336,
      "byteOffset": 339488,
      "byteStride": 16,
      "name": "floatBufferViews",
      "target": 34962
    }
  ],
  "buffers": [
    {
      "byteLength": 385824,
      "uri": "scene.bin"
    }
  ],
  "images": [
    {
      "uri": "textures/Material.003_baseColor.png"
    },
    {
      "uri": "textures/Material.003_metallicRoughness.png"
    },
    {
      "uri": "textures/Material.003_normal.jpeg"
    },
    {
      "uri": "textures/Material_baseColor.jpeg"
    },
    {
      "uri": "textures/Material_metallicRoughness.png"
    },
    {
      "uri": "textures/Material_normal.jpeg"
    }
  ],
  "materials": [
    {
      "alphaMode": "BLEND",
      "doubleSided": true,
      "name": "Material.003",
      "normalTexture": {
        "index": 2
      },
      "pbrMetallicRoughness": {
        "baseColorTexture": {
          "index": 0
        },
        "metallicRoughnessTexture": {
          "index": 1
        }
      }
    },
    {
      "doubleSided": true,
      "name": "Material",
      "normalTexture": {
        "index": 5
      },
      "pbrMetallicRoughness": {
        "baseColorTexture": {
          "index": 3
        },
        "metallicRoughnessTexture": {
          "index": 4
        }
      }
    }
  ],
  "meshes": [
    {
      "name": "washing machine glass_Material.003_0",
      "primitives": [
        {
          "attributes": {
            "NORMAL": 1,
            "POSITION": 0,
            "TANGENT": 2,
            "TEXCOORD_0": 3,
            "TEXCOORD_1": 4,
            "TEXCOORD_2": 5,
            "TEXCOORD_3": 6,
            "TEXCOORD_4": 7,
            "TEXCOORD_5": 8,
            "TEXCOORD_6": 9,
            "TEXCOORD_7": 10,
            "TEXCOORD_8": 11,
            "TEXCOORD_9": 12
          },
          "indices": 13,
          "material": 0,
          "mode": 4
        }
      ]
    },
    {
      "name": "washing machine main_Material_0",
      "primitives": [
        {
          "attributes": {
            "NORMAL": 15,
            "POSITION": 14,
            "TANGENT": 16,
            "TEXCOORD_0": 17,
            "TEXCOORD_1": 18,
            "TEXCOORD_2": 19,
            "TEXCOORD_3": 20,
            "TEXCOORD_4": 21,
            "TEXCOORD_5": 22,
            "TEXCOORD_6": 23,
            "TEXCOORD_7": 24,
            "TEXCOORD_8": 25,
            "TEXCOORD_9": 26
          },
          "indices": 27,
          "material": 1,
          "mode": 4
        }
      ]
    }
  ],
  "nodes": [
    {
      "children": [
        1
      ],
      "matrix": [
        1.0,
        0.0,
        0.0,
        0.0,
        0.0,
        2.220446049250313e-16,
        -1.0,
        0.0,
        0.0,
        1.0,
        2.220446049250313e-16,
        0.0,
        0.0,
        0.0,
        0.0,
        1.0
      ],
      "name": "Sketchfab_model"
    },
    {
      "children": [
        2
      ],
      "matrix": [
        0.009999999776482582,
        0.0,
        0.0,
        0.0,
        0.0,
        0.0,
        0.009999999776482582,
        0.0,
        0.0,
        -0.009999999776482582,
        0.0,
        0.0,
        0.0,
        0.0,
        0.0,
        1.0
      ],
      "name": "b590b701cab241f79ae5bae689117647.fbx"
    },
    {
      "children": [
        3,
        5
      ],
      "name": "RootNode"
    },
    {
      "children": [
        4
      ],
      "matrix": [
        100.0,
        0.0,
        0.0,
        0.0,
        0.0,
        -1.331580541386046e-05,
        -99.99999999999912,
        0.0,
        0.0,
        99.99999999999912,
        -1.331580541386046e-05,
        0.0,
        407.41387939453125,
        205.72152709960938,
        -9.313225746154785e-07,
        1.0
      ],
      "name": "washing machine glass"
    },
    {
      "mesh": 0,
      "name": "washing machine glass_Material.003_0"
    },
    {
      "children": [
        6
      ],
      "matrix": [
        100.0,
        0.0,
        0.0,
        0.0,
        0.0,
        -1.331580541386046e-05,
        -99.99999999999912,
        0.0,
        0.0,
        99.99999999999912,
        -1.331580541386046e-05,
        0.0,
        229.1248779296875,
        0.0,
        2.384185791015625e-05,
        1.0
      ],
      "name": "washing machine main"
    },
    {
      "mesh": 1,
      "name": "washing machine main_Material_0"
    }
  ],
  "samplers": [
    {
      "magFilter": 9729,
      "minFilter": 9987,
      "wrapS": 10497,
      "wrapT": 10497
    }
  ],
  "scene": 0,
  "scenes": [
    {
      "name": "Sketchfab_Scene",
      "nodes": [
        0
      ]
    }
  ],
  "textures": [
    {
      "sampler": 0,
      "source": 0
    },
    {
      "sampler": 0,
      "source": 1
    },
    {
      "sampler": 0,
      "source": 2
    },
    {
      "sampler": 0,
      "source": 3
    },
    {
      "sampler": 0,
      "source": 4
    },
    {
      "sampler": 0,
      "source": 5
    }
  ]
}
