{
  "accessors": [
    {
      "bufferView": 2,
      "componentType": 5126,
      "count": 830,
      "max": [
        0.5292627215385437,
        0.8466061353683472,
        0.5292625427246094
      ],
      "min": [
        -0.5292624235153198,
        -2.5526998797431588e-05,
        -0.5292624831199646
      ],
      "type": "VEC3"
    },
    {
      "bufferView": 2,
      "byteOffset": 9960,
      "componentType": 5126,
      "count": 830,
      "max": [
        1.0,
        1.0,
        1.0
      ],
      "min": [
        -1.0,
        -1.0,
        -1.0
      ],
      "type": "VEC3"
    },
    {
      "bufferView": 1,
      "componentType": 5126,
      "count": 830,
      "max": [
        0.9855089783668518,
        0.5207740068435669
      ],
      "min": [
        0.4934599995613098,
        0.006610989570617676
      ],
      "type": "VEC2"
    },
    {
      "bufferView": 0,
      "componentType": 5125,
      "count": 2586,
      "type": "SCALAR"
    },
    {
      "bufferView": 2,
      "byteOffset": 19920,
      "componentType": 5126,
      "count": 731,
      "max": [
        0.5292627215385437,
        0.8073474168777466,
        0.5292625427246094
      ],
      "min": [
        -0.5292624235153198,
        -2.5526998797431588e-05,
        -0.5292624831199646
      ],
      "type": "VEC3"
    },
    {
      "bufferView": 2,
      "byteOffset": 28692,
      "componentType": 5126,
      "count": 731,
      "max": [
        1.0,
        1.0,
        1.0
      ],
      "min": [
        -1.0,
        -1.0,
        -1.0
      ],
      "type": "VEC3"
    },
    {
      "bufferView": 1,
      "byteOffset": 6640,
      "componentType": 5126,
      "count": 731,
      "max": [
        0.9855089783668518,
        0.48079800605773926
      ],
      "min": [
        0.5163639783859253,
        0.016008973121643066
      ],
      "type": "VEC2"
    },
    {
      "bufferView": 0,
      "byteOffset": 10344,
      "componentType": 5125,
      "count": 2298,
      "type": "SCALAR"
    },
    {
      "bufferView": 2,
      "byteOffset": 37464,
      "componentType": 5126,
      "count": 357,
      "max": [
        0.5918771624565125,
        0.8395029306411743,
        0.5921362042427063
      ],
      "min": [
        -0.589203953742981,
        0.19793711602687836,
        -0.5906120538711548
      ],
      "type": "VEC3"
    },
    {
      "bufferView": 2,
      "byteOffset": 41748,
      "componentType": 5126,
      "count": 357,
      "max": [
        0.9993913173675537,
        0.9467191100120544,
        0.9994407296180725
      ],
      "min": [
        -0.9938825964927673,
        -0.17450179159641266,
        -0.9965832233428955
      ],
      "type": "VEC3"
    },
    {
      "bufferView": 1,
      "byteOffset": 12488,
      "componentType": 5126,
      "count": 357,
      "max": [
        0.9091219902038574,
        0.9476370215415955
      ],
      "min": [
        0.470196008682251,
        0.049018025398254395
      ],
      "type": "VEC2"
    },
    {
      "bufferView": 0,
      "byteOffset": 19536,
      "componentType": 5125,
      "count": 1737,
      "type": "SCALAR"
    },
    {
      "bufferView": 2,
      "byteOffset": 46032,
      "componentType": 5126,
      "count": 830,
      "max": [
        0.5292626619338989,
        1.40672767162323,
        0.5292628407478333
      ],
      "min": [
        -0.5292624831199646,
        -2.5641300453571603e-05,
        -0.5292621850967407
      ],
      "type": "VEC3"
    },
    {
      "bufferView": 2,
      "byteOffset": 55992,
      "componentType": 5126,
      "count": 830,
      "max": [
        1.0,
        1.0,
        1.0
      ],
      "min": [
        -1.0,
        -1.0,
        -1.0
      ],
      "type": "VEC3"
    },
    {
      "bufferView": 1,
      "byteOffset": 15344,
      "componentType": 5126,
      "count": 830,
      "max": [
        0.9855089783668518,
        0.5207740068435669
      ],
      "min": [
        0.4934599995613098,
        0.006610989570617676
      ],
      "type": "VEC2"
    },
    {
      "bufferView": 0,
      "byteOffset": 26484,
      "componentType": 5125,
      "count": 2586,
      "type": "SCALAR"
    },
    {
      "bufferView": 2,
      "byteOffset": 65952,
      "componentType": 5126,
      "count": 814,
      "max": [
        0.5207105278968811,
        0.8381140232086182,
        0.5207104086875916
      ],
      "min": [
        -0.5207102298736572,
        -0.0015984856290742755,
        -0.5207103490829468
      ],
      "type": "VEC3"
    },
    {
      "bufferView": 2,
      "byteOffset": 75720,
      "componentType": 5126,
      "count": 814,
      "max": [
        1.0,
        0.9903631806373596,
        1.0
      ],
      "min": [
        -1.0,
        -1.0,
        -1.0
      ],
      "type": "VEC3"
    },
    {
      "bufferView": 1,
      "byteOffset": 21984,
      "componentType": 5126,
      "count": 814,
      "max": [
        0.48410698771476746,
        0.4882799983024597
      ],
      "min": [
        0.005960999988019466,
        0.022759974002838135
      ],
      "type": "VEC2"
    },
    {
      "bufferView": 0,
      "byteOffset": 36828,
      "componentType": 5125,
      "count": 2532,
      "type": "SCALAR"
    },
    {
      "bufferView": 2,
      "byteOffset": 85488,
      "componentType": 5126,
      "count": 718,
      "max": [
        0.5207105278968811,
        0.7971999049186707,
        0.5207104086875916
      ],
      "min": [
        -0.5207102298736572,
        -0.0015984856290742755,
        -0.5207103490829468
      ],
      "type": "VEC3"
    },
    {
      "bufferView": 2,
      "byteOffset": 94104,
      "componentType": 5126,
      "count": 718,
      "max": [
        0.9992052316665649,
        0.9903631806373596,
        0.9991510510444641
      ],
      "min": [
        -0.9992052316665649,
        -1.0,
        -0.9991510510444641
      ],
      "type": "VEC3"
    },
    {
      "bufferView": 1,
      "byteOffset": 28496,
      "componentType": 5126,
      "count": 718,
      "max": [
        0.48410698771476746,
        0.4837719798088074
      ],
      "min": [
        0.007980000227689743,
        0.022759974002838135
      ],
      "type": "VEC2"
    },
    {
      "bufferView": 0,
      "byteOffset": 46956,
      "componentType": 5125,
      "count": 2058,
      "type": "SCALAR"
    },
    {
      "bufferView": 2,
      "byteOffset": 102720,
      "componentType": 5126,
      "count": 357,
      "max": [
        0.5918773412704468,
        0.8279657959938049,
        0.5921360850334167
      ],
      "min": [
        -0.5892037749290466,
        0.20033229887485504,
        -0.59061199426651
      ],
      "type": "VEC3"
    },
    {
      "bufferView": 2,
      "byteOffset": 107004,
      "componentType": 5126,
      "count": 357,
      "max": [
        0.9993810653686523,
        0.9467191100120544,
        0.9995123147964478
      ],
      "min": [
        -0.9940775632858276,
        -0.18100011348724365,
        -0.9963461756706238
      ],
      "type": "VEC3"
    },
    {
      "bufferView": 1,
      "byteOffset": 34240,
      "componentType": 5126,
      "count": 357,
      "max": [
        0.9091219902038574,
        0.9476370215415955
      ],
      "min": [
        0.470196008682251,
        0.049018025398254395
      ],
      "type": "VEC2"
    },
    {
      "bufferView": 0,
      "byteOffset": 55188,
      "componentType": 5125,
      "count": 1737,
      "type": "SCALAR"
    },
    {
      "bufferView": 2,
      "byteOffset": 111288,
      "componentType": 5126,
      "count": 205,
      "max": [
        0.4505539834499359,
        0.8397467732429504,
        0.4505539834499359
      ],
      "min": [
        -0.4505539834499359,
        0.0031096076127141714,
        -0.4505539834499359
      ],
      "type": "VEC3"
    },
    {
      "bufferView": 2,
      "byteOffset": 113748,
      "componentType": 5126,
      "count": 205,
      "max": [
        1.0,
        1.0,
        1.0
      ],
      "min": [
        -1.0,
        -1.0,
        -1.0
      ],
      "type": "VEC3"
    },
    {
      "bufferView": 1,
      "byteOffset": 37096,
      "componentType": 5126,
      "count": 205,
      "max": [
        0.9584559798240662,
        0.9930980205535889
      ],
      "min": [
        0.5348929762840271,
        0.5297049880027771
      ],
      "type": "VEC2"
    },
    {
      "bufferView": 0,
      "byteOffset": 62136,
      "componentType": 5125,
      "count": 528,
      "type": "SCALAR"
    },
    {
      "bufferView": 2,
      "byteOffset": 116208,
      "componentType": 5126,
      "count": 149,
      "max": [
        0.4505539834499359,
        0.8022722601890564,
        0.4505539834499359
      ],
      "min": [
        -0.4505539834499359,
        0.0031096076127141714,
        -0.4505539834499359
      ],
      "type": "VEC3"
    },
    {
      "bufferView": 2,
      "byteOffset": 117996,
      "componentType": 5126,
      "count": 149,
      "max": [
        1.0,
        1.0,
        1.0
      ],
      "min": [
        -1.0,
        -1.0,
        -1.0
      ],
      "type": "VEC3"
    },
    {
      "bufferView": 1,
      "byteOffset": 38736,
      "componentType": 5126,
      "count": 149,
      "max": [
        0.9584559798240662,
        0.9930980205535889
      ],
      "min": [
        0.5411239862442017,
        0.5364289879798889
      ],
      "type": "VEC2"
    },
    {
      "bufferView": 0,
      "byteOffset": 64248,
      "componentType": 5125,
      "count": 390,
      "type": "SCALAR"
    },
    {
      "bufferView": 2,
      "byteOffset": 119784,
      "componentType": 5126,
      "count": 192,
      "max": [
        0.5294719934463501,
        0.8312703371047974,
        0.5891864895820618
      ],
      "min": [
        -0.5901976227760315,
        0.3702499270439148,
        -0.5724566578865051
      ],
      "type": "VEC3"
    },
    {
      "bufferView": 2,
      "byteOffset": 122088,
      "componentType": 5126,
      "count": 192,
      "max": [
        0.9999114871025085,
        0.9669249653816223,
        0.9998995065689087
      ],
      "min": [
        -0.9997897744178772,
        -0.2203071266412735,
        -0.999660313129425
      ],
      "type": "VEC3"
    },
    {
      "bufferView": 1,
      "byteOffset": 39928,
      "componentType": 5126,
      "count": 192,
      "max": [
        0.45331400632858276,
        0.9475569725036621
      ],
      "min": [
        0.024380000308156013,
        0.040068984031677246
      ],
      "type": "VEC2"
    },
    {
      "bufferView": 0,
      "byteOffset": 65808,
      "componentType": 5125,
      "count": 1002,
      "type": "SCALAR"
    },
    {
      "bufferView": 2,
      "byteOffset": 124392,
      "componentType": 5126,
      "count": 164,
      "max": [
        0.4584340751171112,
        0.7787553071975708,
        0.4584340751171112
      ],
      "min": [
        -0.4584340751171112,
        -0.004687767010182142,
        -0.4584340751171112
      ],
      "type": "VEC3"
    },
    {
      "bufferView": 2,
      "byteOffset": 126360,
      "componentType": 5126,
      "count": 164,
      "max": [
        0.9999783039093018,
        1.0,
        0.9999783039093018
      ],
      "min": [
        -0.9999783039093018,
        -1.0,
        -0.9999783039093018
      ],
      "type": "VEC3"
    },
    {
      "bufferView": 1,
      "byteOffset": 41464,
      "componentType": 5126,
      "count": 164,
      "max": [
        0.47080400586128235,
        0.974711000919342
      ],
      "min": [
        0.011272000148892403,
        0.5267759561538696
      ],
      "type": "VEC2"
    },
    {
      "bufferView": 0,
      "byteOffset": 69816,
      "componentType": 5125,
      "count": 324,
      "type": "SCALAR"
    },
    {
      "bufferView": 2,
      "byteOffset": 128328,
      "componentType": 5126,
      "count": 96,
      "max": [
        0.4534604847431183,
        0.7038569450378418,
        0.4534604847431183
      ],
      "min": [
        -0.4534604847431183,
        -0.004687767010182142,
        -0.4534604847431183
      ],
      "type": "VEC3"
    },
    {
      "bufferView": 2,
      "byteOffset": 129480,
      "componentType": 5126,
      "count": 96,
      "max": [
        0.9999783039093018,
        -0.006599856540560722,
        0.9999783039093018
      ],
      "min": [
        -0.9999783039093018,
        -1.0,
        -0.9999783039093018
      ],
      "type": "VEC3"
    },
    {
      "bufferView": 1,
      "byteOffset": 42776,
      "componentType": 5126,
      "count": 96,
      "max": [
        0.47080400586128235,
        0.974711000919342
      ],
      "min": [
        0.03992899879813194,
        0.5272690057754517
      ],
      "type": "VEC2"
    },
    {
      "bufferView": 0,
      "byteOffset": 71112,
      "componentType": 5125,
      "count": 198,
      "type": "SCALAR"
    },
    {
      "bufferView": 2,
      "byteOffset": 130632,
      "componentType": 5126,
      "count": 192,
      "max": [
        0.5739035606384277,
        0.751703679561615,
        0.6114000678062439
      ],
      "min": [
        -0.6124507188796997,
        0.27412497997283936,
        -0.5931087732315063
      ],
      "type": "VEC3"
    },
    {
      "bufferView": 2,
      "byteOffset": 132936,
      "componentType": 5126,
      "count": 192,
      "max": [
        0.9982384443283081,
        0.963771402835846,
        0.9998448491096497
      ],
      "min": [
        -0.999761164188385,
        -0.14779242873191833,
        -0.9999032616615295
      ],
      "type": "VEC3"
    },
    {
      "bufferView": 1,
      "byteOffset": 43544,
      "componentType": 5126,
      "count": 192,
      "max": [
        0.45331400632858276,
        0.9475569725036621
      ],
      "min": [
        0.024380000308156013,
        0.040068984031677246
      ],
      "type": "VEC2"
    },
    {
      "bufferView": 0,
      "byteOffset": 71904,
      "componentType": 5125,
      "count": 1002,
      "type": "SCALAR"
    },
    {
      "bufferView": 2,
      "byteOffset": 135240,
      "componentType": 5126,
      "count": 481,
      "max": [
        0.19032971560955048,
        0.9956512451171875,
        0.19734042882919312
      ],
      "min": [
        -0.1962481141090393,
        -0.006517748348414898,
        -0.1973404437303543
      ],
      "type": "VEC3"
    },
    {
      "bufferView": 2,
      "byteOffset": 141012,
      "componentType": 5126,
      "count": 481,
      "max": [
        1.0,
        1.0,
        1.0
      ],
      "min": [
        -1.0,
        -1.0,
        -1.0
      ],
      "type": "VEC3"
    },
    {
      "bufferView": 1,
      "byteOffset": 45080,
      "componentType": 5126,
      "count": 481,
      "max": [
        0.5385079979896545,
        0.9919990301132202
      ],
      "min": [
        0.010761000216007233,
        0.3565080165863037
      ],
      "type": "VEC2"
    },
    {
      "bufferView": 0,
      "byteOffset": 75912,
      "componentType": 5125,
      "count": 1200,
      "type": "SCALAR"
    },
    {
      "bufferView": 2,
      "byteOffset": 146784,
      "componentType": 5126,
      "count": 892,
      "max": [
        0.22156240046024323,
        0.9145708084106445,
        0.25244399905204773
      ],
      "min": [
        -0.30951476097106934,
        -0.008771705441176891,
        -0.2526465654373169
      ],
      "type": "VEC3"
    },
    {
      "bufferView": 2,
      "byteOffset": 157488,
      "componentType": 5126,
      "count": 892,
      "max": [
        1.0,
        0.9991772174835205,
        0.9998292922973633
      ],
      "min": [
        -1.0,
        -0.9999762773513794,
        -0.99994957447052
      ],
      "type": "VEC3"
    },
    {
      "bufferView": 1,
      "byteOffset": 48928,
      "componentType": 5126,
      "count": 892,
      "max": [
        0.983663022518158,
        0.9876469969749451
      ],
      "min": [
        0.6838650107383728,
        0.021394014358520508
      ],
      "type": "VEC2"
    },
    {
      "bufferView": 0,
      "byteOffset": 80712,
      "componentType": 5125,
      "count": 3324,
      "type": "SCALAR"
    },
    {
      "bufferView": 2,
      "byteOffset": 168192,
      "componentType": 5126,
      "count": 1004,
      "max": [
        0.2002575397491455,
        0.8502071499824524,
        0.2002575397491455
      ],
      "min": [
        -0.2002575397491455,
        -0.0032724281772971153,
        -0.20025750994682312
      ],
      "type": "VEC3"
    },
    {
      "bufferView": 2,
      "byteOffset": 180240,
      "componentType": 5126,
      "count": 1004,
      "max": [
        1.0,
        1.0,
        1.0
      ],
      "min": [
        -1.0,
        -1.0,
        -1.0
      ],
      "type": "VEC3"
    },
    {
      "bufferView": 1,
      "byteOffset": 56064,
      "componentType": 5126,
      "count": 1004,
      "max": [
        0.7924439907073975,
        0.6318410038948059
      ],
      "min": [
        0.01779700070619583,
        0.013203978538513184
      ],
      "type": "VEC2"
    },
    {
      "bufferView": 0,
      "byteOffset": 94008,
      "componentType": 5125,
      "count": 4434,
      "type": "SCALAR"
    },
    {
      "bufferView": 2,
      "byteOffset": 192288,
      "componentType": 5126,
      "count": 968,
      "max": [
        0.2002575397491455,
        0.5134167671203613,
        0.2002575397491455
      ],
      "min": [
        -0.2002575397491455,
        -0.0032724281772971153,
        -0.20025750994682312
      ],
      "type": "VEC3"
    },
    {
      "bufferView": 2,
      "byteOffset": 203904,
      "componentType": 5126,
      "count": 968,
      "max": [
        1.0,
        1.0,
        1.0
      ],
      "min": [
        -1.0,
        -1.0,
        -1.0
      ],
      "type": "VEC3"
    },
    {
      "bufferView": 1,
      "byteOffset": 64096,
      "componentType": 5126,
      "count": 968,
      "max": [
        0.7924439907073975,
        0.6318410038948059
      ],
      "min": [
        0.01779700070619583,
        0.013203978538513184
      ],
      "type": "VEC2"
    },
    {
      "bufferView": 0,
      "byteOffset": 111744,
      "componentType": 5125,
      "count": 4242,
      "type": "SCALAR"
    }
  ],
  "asset": {
    "extras": {
      "author": "photon (that one larry) (https://sketchfab.com/Professor_E12)",
      "license": "CC-BY-4.0 (http://creativecommons.org/licenses/by/4.0/)",
      "source": "https://sketchfab.com/3d-models/furniture-pack-d1176d52f1a64bafb64c798645441207",
      "title": "Furniture pack"
    },
    "generator": "Sketchfab-17.15.0",
    "version": "2.0"
  },
  "bufferViews": [
    {
      "buffer": 0,
      "byteLength": 128712,
      "name": "floatBufferViews",
      "target": 34963
    },
    {
      "buffer": 0,
      "byteLength": 71840,
      "byteOffset": 128712,
      "byteStride": 8,
      "name": "floatBufferViews",
      "target": 34962
    },
    {
      "buffer": 0,
      "byteLength": 215520,
      "byteOffset": 200552,
      "byteStride": 12,
      "name": "floatBufferViews",
      "target": 34962
    }
  ],
  "buffers": [
    {
      "byteLength": 416072,
      "uri": "scene.bin"
    }
  ],
  "extensionsUsed": [
    "KHR_materials_specular"
  ],
  "images": [
    {
      "uri": "textures/restaurant_tables_baseColor.png"
    },
    {
      "uri": "textures/restaurant_tables_specularf0.png"
    },
    {
      "uri": "textures/restaurant_tablecloths_baseColor.png"
    },
    {
      "uri": "textures/restaurant_chairs_wood_baseColor.png"
    }
  ],
  "materials": [
    {
      "doubleSided": true,
      "extensions": {
        "KHR_materials_specular": {
          "specularColorFactor": [
            1.0,
            1.0,
            1.0
          ],
          "specularFactor": 1.0,
          "specularTexture": {
            "index": 1
          }
        }
      },
      "name": "restaurant_tables",
      "pbrMetallicRoughness": {
        "baseColorTexture": {
          "index": 0
        },
        "metallicFactor": 0.0,
        "roughnessFactor": 0.195312
      }
    },
    {
      "doubleSided": true,
      "extensions": {
        "KHR_materials_specular": {
          "specularColorFactor": [
            1.0,
            1.0,
            1.0
          ],
          "specularFactor": 1.0
        }
      },
      "name": "restaurant_tablecloths",
      "pbrMetallicRoughness": {
        "baseColorTexture": {
          "index": 2
        },
        "metallicFactor": 0.0,
        "roughnessFactor": 0.195312
      }
    },
    {
      "doubleSided": true,
      "extensions": {
        "KHR_materials_specular": {
          "specularColorFactor": [
            1.0,
            1.0,
            1.0
          ],
          "specularFactor": 1.0
        }
      },
      "name": "restaurant_chairs_wood",
      "pbrMetallicRoughness": {
        "baseColorTexture": {
          "index": 3
        },
        "metallicFactor": 0.0,
        "roughnessFactor": 0.195312
      }
    }
  ],
  "meshes": [
    {
      "name": "Object_0",
      "primitives": [
        {
          "attributes": {
            "NORMAL": 1,
            "POSITION": 0,
            "TEXCOORD_0": 2
          },
          "indices": 3,
          "material": 0,
          "mode": 4
        }
      ]
    },
    {
      "name": "Object_1",
      "primitives": [
        {
          "attributes": {
            "NORMAL": 5,
            "POSITION": 4,
            "TEXCOORD_0": 6
          },
          "indices": 7,
          "material": 0,
          "mode": 4
        }
      ]
    },
    {
      "name": "Object_2",
      "primitives": [
        {
          "attributes": {
            "NORMAL": 9,
            "POSITION": 8,
            "TEXCOORD_0": 10
          },
          "indices": 11,
          "material": 1,
          "mode": 4
        }
      ]
    },
    {
      "name": "Object_3",
      "primitives": [
        {
          "attributes": {
            "NORMAL": 13,
            "POSITION": 12,
            "TEXCOORD_0": 14
          },
          "indices": 15,
          "material": 0,
          "mode": 4
        }
      ]
    },
    {
      "name": "Object_4",
      "primitives": [
        {
          "attributes": {
            "NORMAL": 17,
            "POSITION": 16,
            "TEXCOORD_0": 18
          },
          "indices": 19,
          "material": 0,
          "mode": 4
        }
      ]
    },
    {
      "name": "Object_5",
      "primitives": [
        {
          "attributes": {
            "NORMAL": 21,
            "POSITION": 20,
            "TEXCOORD_0": 22
          },
          "indices": 23,
          "material": 0,
          "mode": 4
        }
      ]
    },
    {
      "name": "Object_6",
      "primitives": [
        {
          "attributes": {
            "NORMAL": 25,
            "POSITION": 24,
            "TEXCOORD_0": 26
          },
          "indices": 27,
          "material": 1,
          "mode": 4
        }
      ]
    },
    {
      "name": "Object_7",
      "primitives": [
        {
          "attributes": {
            "NORMAL": 29,
            "POSITION": 28,
            "TEXCOORD_0": 30
          },
          "indices": 31,
          "material": 0,
          "mode": 4
        }
      ]
    },
    {
      "name": "Object_8",
      "primitives": [
        {
          "attributes": {
            "NORMAL": 33,
            "POSITION": 32,
            "TEXCOORD_0": 34
          },
          "indices": 35,
          "material": 0,
          "mode": 4
        }
      ]
    },
    {
      "name": "Object_9",
      "primitives": [
        {
          "attributes": {
            "NORMAL": 37,
            "POSITION": 36,
            "TEXCOORD_0": 38
          },
          "indices": 39,
          "material": 1,
          "mode": 4
        }
      ]
    },
    {
      "name": "Object_10",
      "primitives": [
        {
          "attributes": {
            "NORMAL": 41,
            "POSITION": 40,
            "TEXCOORD_0": 42
          },
          "indices": 43,
          "material": 0,
          "mode": 4
        }
      ]
    },
    {
      "name": "Object_11",
      "primitives": [
        {
          "attributes": {
            "NORMAL": 45,
            "POSITION": 44,
            "TEXCOORD_0": 46
          },
          "indices": 47,
          "material": 0,
          "mode": 4
        }
      ]
    },
    {
      "name": "Object_12",
      "primitives": [
        {
          "attributes": {
            "NORMAL": 49,
            "POSITION": 48,
            "TEXCOORD_0": 50
          },
          "indices": 51,
          "material": 1,
          "mode": 4
        }
      ]
    },
    {
      "name": "Object_13",
      "primitives": [
        {
          "attributes": {
            "NORMAL": 53,
            "POSITION": 52,
            "TEXCOORD_0": 54
          },
          "indices": 55,
          "material": 2,
          "mode": 4
        }
      ]
    },
    {
      "name": "Object_14",
      "primitives": [
        {
          "attributes": {
            "NORMAL": 57,
            "POSITION": 56,
            "TEXCOORD_0": 58
          },
          "indices": 59,
          "material": 2,
          "mode": 4
        }
      ]
    },
    {
      "name": "Object_15",
      "primitives": [
        {
          "attributes": {
            "NORMAL": 61,
            "POSITION": 60,
            "TEXCOORD_0": 62
          },
          "indices": 63,
          "material": 2,
          "mode": 4
        }
      ]
    },
    {
      "name": "Object_16",
      "primitives": [
        {
          "attributes": {
            "NORMAL": 65,
            "POSITION": 64,
            "TEXCOORD_0": 66
          },
          "indices": 67,
          "material": 2,
          "mode": 4
        }
      ]
    }
  ],
  "nodes": [
    {
      "children": [
        1
      ],
      "matrix": [
        1.0,
        0.0,
        0.0,
        0.0,
        0.0,
        2.220446049250313e-16,
        -1.0,
        0.0,
        0.0,
        1.0,
        2.220446049250313e-16,
        0.0,
        0.0,
        0.0,
        0.0,
        1.0
      ],
      "name": "Sketchfab_model"
    },
    {
      "children": [
        2
      ],
      "name": "root"
    },
    {
      "children": [
        3,
        5,
        8,
        10,
        12,
        15,
        17,
        20,
        22,
        25,
        27,
        29,
        31
      ],
      "matrix": [
        1.0,
        0.0,
        0.0,
        0.0,
        0.0,
        2.220446049250313e-16,
        1.0,
        0.0,
        0.0,
        -1.0,
        2.220446049250313e-16,
        0.0,
        0.0,
        0.0,
        0.0,
        1.0
      ],
      "name": "GLTF_SceneRootNode"
    },
    {
      "children": [
        4
      ],
      "name": "round_metal_table.smd_0"
    },
    {
      "mesh": 0,
      "name": "Object_4"
    },
    {
      "children": [
        6,
        7
      ],
      "matrix": [
        1.0,
        0.0,
        0.0,
        0.0,
        0.0,
        1.0,
        0.0,
        0.0,
        0.0,
        0.0,
        1.0,
        0.0,
        -1.2893664836883545,
        0.0,
        0.0,
        1.0
      ],
      "name": "round_metal_table_cloth.smd_1"
    },
    {
      "mesh": 1,
      "name": "Object_6"
    },
    {
      "mesh": 2,
      "name": "Object_7"
    },
    {
      "children": [
        9
      ],
      "matrix": [
        1.0,
        0.0,
        0.0,
        0.0,
        0.0,
        1.0,
        0.0,
        0.0,
        0.0,
        0.0,
        1.0,
        0.0,
        1.1318144798278809,
        0.0,
        0.0,
        1.0
      ],
      "name": "round_metal_table_high.smd_2"
    },
    {
      "mesh": 3,
      "name": "Object_9"
    },
    {
      "children": [
        11
      ],
      "matrix": [
        1.0,
        0.0,
        0.0,
        0.0,
        0.0,
        1.0,
        0.0,
        0.0,
        0.0,
        0.0,
        1.0,
        0.0,
        0.0,
        0.0,
        -1.6683921813964844,
        1.0
      ],
      "name": "round_wooden_table.smd_3"
    },
    {
      "mesh": 4,
      "name": "Object_11"
    },
    {
      "children": [
        13,
        14
      ],
      "matrix": [
        1.0,
        0.0,
        0.0,
        0.0,
        0.0,
        1.0,
        0.0,
        0.0,
        0.0,
        0.0,
        1.0,
        0.0,
        -1.2863445281982422,
        0.0,
        1.6323059797286987,
        1.0
      ],
      "name": "round_wooden_table_cloth.smd_4"
    },
    {
      "mesh": 5,
      "name": "Object_13"
    },
    {
      "mesh": 6,
      "name": "Object_14"
    },
    {
      "children": [
        16
      ],
      "matrix": [
        1.0,
        0.0,
        0.0,
        0.0,
        0.0,
        1.0,
        0.0,
        0.0,
        0.0,
        0.0,
        1.0,
        0.0,
        1.2535295486450195,
        0.0,
        1.6210565567016602,
        1.0
      ],
      "name": "square_steel_table.smd_5"
    },
    {
      "mesh": 7,
      "name": "Object_16"
    },
    {
      "children": [
        18,
        19
      ],
      "matrix": [
        1.0,
        0.0,
        0.0,
        0.0,
        0.0,
        1.0,
        0.0,
        0.0,
        0.0,
        0.0,
        1.0,
        0.0,
        1.2207146883010864,
        0.0,
        -1.5751157999038696,
        1.0
      ],
      "name": "square_steel_table_cloth.smd_6"
    },
    {
      "mesh": 8,
      "name": "Object_18"
    },
    {
      "mesh": 9,
      "name": "Object_19"
    },
    {
      "children": [
        21
      ],
      "matrix": [
        1.0,
        0.0,
        0.0,
        0.0,
        0.0,
        1.0,
        0.0,
        0.0,
        0.0,
        0.0,
        1.0,
        0.0,
        -1.4044781923294067,
        0.0,
        -1.6538716554641724,
        1.0
      ],
      "name": "square_wooden_table.smd_7"
    },
    {
      "mesh": 10,
      "name": "Object_21"
    },
    {
      "children": [
        23,
        24
      ],
      "matrix": [
        1.0,
        0.0,
        0.0,
        0.0,
        0.0,
        1.0,
        0.0,
        0.0,
        0.0,
        0.0,
        1.0,
        0.0,
        0.0,
        0.0,
        1.568552851676941,
        1.0
      ],
      "name": "square_wooden_table_cloth.smd_8"
    },
    {
      "mesh": 11,
      "name": "Object_23"
    },
    {
      "mesh": 12,
      "name": "Object_24"
    },
    {
      "children": [
        26
      ],
      "matrix": [
        1.0,
        0.0,
        0.0,
        0.0,
        0.0,
        1.0,
        0.0,
        0.0,
        0.0,
        0.0,
        1.0,
        0.0,
        -3.1470818519592285,
        0.0,
        -1.8334347009658813,
        1.0
      ],
      "name": "restaurant_chair.smd_9"
    },
    {
      "mesh": 13,
      "name": "Object_26"
    },
    {
      "children": [
        28
      ],
      "matrix": [
        1.0,
        0.0,
        0.0,
        0.0,
        0.0,
        1.0,
        0.0,
        0.0,
        0.0,
        0.0,
        1.0,
        0.0,
        -3.109278917312622,
        0.0,
        -0.9167174100875854,
        1.0
      ],
      "name": "restaurant_chair01.smd_10"
    },
    {
      "mesh": 14,
      "name": "Object_28"
    },
    {
      "children": [
        30
      ],
      "matrix": [
        1.0,
        0.0,
        0.0,
        0.0,
        0.0,
        1.0,
        0.0,
        0.0,
        0.0,
        0.0,
        1.0,
        0.0,
        -3.1470816135406494,
        0.0,
        0.04725347459316254,
        1.0
      ],
      "name": "restaurant_stool.smd_11"
    },
    {
      "mesh": 15,
      "name": "Object_30"
    },
    {
      "children": [
        32
      ],
      "matrix": [
        1.0,
        0.0,
        0.0,
        0.0,
        0.0,
        1.0,
        0.0,
        0.0,
        0.0,
        0.0,
        1.0,
        0.0,
        -3.1565322875976563,
        0.0,
        0.9545202255249023,
        1.0
      ],
      "name": "restaurant_stool_short.smd_12"
    },
    {
      "mesh": 16,
      "name": "Object_32"
    }
  ],
  "samplers": [
    {
      "magFilter": 9729,
      "minFilter": 9987,
      "wrapS": 10497,
      "wrapT": 10497
    }
  ],
  "scene": 0,
  "scenes": [
    {
      "name": "Sketchfab_Scene",
      "nodes": [
        0
      ]
    }
  ],
  "textures": [
    {
      "sampler": 0,
      "source": 0
    },
    {
      "sampler": 0,
      "source": 1
    },
    {
      "sampler": 0,
      "source": 2
    },
    {
      "sampler": 0,
      "source": 3
    }
  ]
}
