{
  "accessors": [
    {
      "bufferView": 2,
      "componentType": 5126,
      "count": 65532,
      "max": [
        0.1773529052734375,
        0.239501953125,
        0.483612060546875
      ],
      "min": [
        -0.1743316650390625,
        0.028493881225585938,
        -0.0856475830078125
      ],
      "type": "VEC3"
    },
    {
      "bufferView": 2,
      "byteOffset": 786384,
      "componentType": 5126,
      "count": 65532,
      "max": [
        0.9998757243156433,
        0.9998457431793213,
        1.0
      ],
      "min": [
        -0.9999382495880127,
        -0.9997518658638,
        -1.0
      ],
      "type": "VEC3"
    },
    {
      "bufferView": 3,
      "componentType": 5126,
      "count": 65532,
      "max": [
        1.0,
        0.9999757409095764,
        0.9999111890792847,
        1.0
      ],
      "min": [
        -0.9999932646751404,
        -0.9999865293502808,
        -0.9999368190765381,
        -1.0
      ],
      "type": "VEC4"
    },
    {
      "bufferView": 1,
      "componentType": 5126,
      "count": 65532,
      "max": [
        0.9951171875,
        0.982421875
      ],
      "min": [
        0.00146484375,
        0.00537109375
      ],
      "type": "VEC2"
    },
    {
      "bufferView": 1,
      "byteOffset": 524256,
      "componentType": 5126,
      "count": 65532,
      "max": [
        0.9951171875,
        0.982421875
      ],
      "min": [
        0.00146484375,
        0.00537109375
      ],
      "type": "VEC2"
    },
    {
      "bufferView": 1,
      "byteOffset": 1048512,
      "componentType": 5126,
      "count": 65532,
      "max": [
        0.9951171875,
        0.982421875
      ],
      "min": [
        0.00146484375,
        0.00537109375
      ],
      "type": "VEC2"
    },
    {
      "bufferView": 0,
      "componentType": 5125,
      "count": 315414,
      "type": "SCALAR"
    },
    {
      "bufferView": 2,
      "byteOffset": 1572768,
      "componentType": 5126,
      "count": 65532,
      "max": [
        0.2142181396484375,
        0.225311279296875,
        0.485137939453125
      ],
      "min": [
        -0.1826934814453125,
        0.011275291442871094,
        -0.1274261474609375
      ],
      "type": "VEC3"
    },
    {
      "bufferView": 2,
      "byteOffset": 2359152,
      "componentType": 5126,
      "count": 65532,
      "max": [
        1.0,
        0.9998458027839661,
        1.0
      ],
      "min": [
        -0.9998452663421631,
        -0.9411247372627258,
        -1.0
      ],
      "type": "VEC3"
    },
    {
      "bufferView": 3,
      "byteOffset": 1048512,
      "componentType": 5126,
      "count": 65532,
      "max": [
        1.0,
        0.9999425411224365,
        0.9999695420265198,
        1.0
      ],
      "min": [
        -0.9999433159828186,
        -0.9999625086784363,
        -0.9994028210639954,
        -1.0
      ],
      "type": "VEC4"
    },
    {
      "bufferView": 1,
      "byteOffset": 1572768,
      "componentType": 5126,
      "count": 65532,
      "max": [
        0.99853515625,
        0.982421875
      ],
      "min": [
        0.008056640625,
        0.003173828125
      ],
      "type": "VEC2"
    },
    {
      "bufferView": 1,
      "byteOffset": 2097024,
      "componentType": 5126,
      "count": 65532,
      "max": [
        0.99853515625,
        0.982421875
      ],
      "min": [
        0.008056640625,
        0.003173828125
      ],
      "type": "VEC2"
    },
    {
      "bufferView": 1,
      "byteOffset": 2621280,
      "componentType": 5126,
      "count": 65532,
      "max": [
        0.99853515625,
        0.982421875
      ],
      "min": [
        0.008056640625,
        0.003173828125
      ],
      "type": "VEC2"
    },
    {
      "bufferView": 0,
      "byteOffset": 1261656,
      "componentType": 5125,
      "count": 278826,
      "type": "SCALAR"
    },
    {
      "bufferView": 2,
      "byteOffset": 3145536,
      "componentType": 5126,
      "count": 65532,
      "max": [
        0.2394561767578125,
        0.18798828125,
        0.485137939453125
      ],
      "min": [
        -0.182159423828125,
        0.006530284881591797,
        -0.491668701171875
      ],
      "type": "VEC3"
    },
    {
      "bufferView": 2,
      "byteOffset": 3931920,
      "componentType": 5126,
      "count": 65532,
      "max": [
        0.9998452067375183,
        1.0,
        1.0
      ],
      "min": [
        -0.9998453259468079,
        -0.9984553456306458,
        -1.0
      ],
      "type": "VEC3"
    },
    {
      "bufferView": 3,
      "byteOffset": 2097024,
      "componentType": 5126,
      "count": 65532,
      "max": [
        1.0,
        0.9999936819076538,
        1.0,
        1.0
      ],
      "min": [
        -0.9998152852058411,
        -0.9999998807907104,
        -0.9991647005081177,
        -1.0
      ],
      "type": "VEC4"
    },
    {
      "bufferView": 1,
      "byteOffset": 3145536,
      "componentType": 5126,
      "count": 65532,
      "max": [
        0.9990234375,
        0.972900390625
      ],
      "min": [
        0.00732421875,
        0.00537109375
      ],
      "type": "VEC2"
    },
    {
      "bufferView": 1,
      "byteOffset": 3669792,
      "componentType": 5126,
      "count": 65532,
      "max": [
        0.9990234375,
        0.972900390625
      ],
      "min": [
        0.00732421875,
        0.00537109375
      ],
      "type": "VEC2"
    },
    {
      "bufferView": 1,
      "byteOffset": 4194048,
      "componentType": 5126,
      "count": 65532,
      "max": [
        0.9990234375,
        0.972900390625
      ],
      "min": [
        0.00732421875,
        0.00537109375
      ],
      "type": "VEC2"
    },
    {
      "bufferView": 0,
      "byteOffset": 2376960,
      "componentType": 5125,
      "count": 252339,
      "type": "SCALAR"
    },
    {
      "bufferView": 2,
      "byteOffset": 4718304,
      "componentType": 5126,
      "count": 65534,
      "max": [
        0.23004150390625,
        0.2302703857421875,
        0.478240966796875
      ],
      "min": [
        -0.168182373046875,
        0.012201309204101563,
        -0.48455810546875
      ],
      "type": "VEC3"
    },
    {
      "bufferView": 2,
      "byteOffset": 5504712,
      "componentType": 5126,
      "count": 65534,
      "max": [
        0.9998761415481567,
        0.9997525215148926,
        1.0
      ],
      "min": [
        -0.9998453259468079,
        -0.9999691247940063,
        -0.9999385476112366
      ],
      "type": "VEC3"
    },
    {
      "bufferView": 3,
      "byteOffset": 3145536,
      "componentType": 5126,
      "count": 65534,
      "max": [
        0.9999986290931702,
        0.9999235272407532,
        1.0,
        1.0
      ],
      "min": [
        -0.9999644756317139,
        -0.9999547600746155,
        -0.9999703764915466,
        -1.0
      ],
      "type": "VEC4"
    },
    {
      "bufferView": 1,
      "byteOffset": 4718304,
      "componentType": 5126,
      "count": 65534,
      "max": [
        0.995361328125,
        0.978515625
      ],
      "min": [
        0.00732421875,
        0.003173828125
      ],
      "type": "VEC2"
    },
    {
      "bufferView": 1,
      "byteOffset": 5242576,
      "componentType": 5126,
      "count": 65534,
      "max": [
        0.995361328125,
        0.978515625
      ],
      "min": [
        0.00732421875,
        0.003173828125
      ],
      "type": "VEC2"
    },
    {
      "bufferView": 1,
      "byteOffset": 5766848,
      "componentType": 5126,
      "count": 65534,
      "max": [
        0.995361328125,
        0.978515625
      ],
      "min": [
        0.00732421875,
        0.003173828125
      ],
      "type": "VEC2"
    },
    {
      "bufferView": 0,
      "byteOffset": 3386316,
      "componentType": 5125,
      "count": 231831,
      "type": "SCALAR"
    },
    {
      "bufferView": 2,
      "byteOffset": 6291120,
      "componentType": 5126,
      "count": 65532,
      "max": [
        0.23907470703125,
        0.1567840576171875,
        0.470916748046875
      ],
      "min": [
        -0.172271728515625,
        -0.052906036376953125,
        -0.49139404296875
      ],
      "type": "VEC3"
    },
    {
      "bufferView": 2,
      "byteOffset": 7077504,
      "componentType": 5126,
      "count": 65532,
      "max": [
        0.9997521638870239,
        1.0,
        1.0
      ],
      "min": [
        -0.9998764991760254,
        -0.9997218251228333,
        -1.0
      ],
      "type": "VEC3"
    },
    {
      "bufferView": 3,
      "byteOffset": 4194080,
      "componentType": 5126,
      "count": 65532,
      "max": [
        0.9999416470527649,
        1.0,
        1.0,
        1.0
      ],
      "min": [
        -0.999991238117218,
        -0.9999690055847168,
        -0.9993447065353394,
        -1.0
      ],
      "type": "VEC4"
    },
    {
      "bufferView": 1,
      "byteOffset": 6291120,
      "componentType": 5126,
      "count": 65532,
      "max": [
        0.981689453125,
        0.974853515625
      ],
      "min": [
        0.01220703125,
        0.00244140625
      ],
      "type": "VEC2"
    },
    {
      "bufferView": 1,
      "byteOffset": 6815376,
      "componentType": 5126,
      "count": 65532,
      "max": [
        0.981689453125,
        0.974853515625
      ],
      "min": [
        0.01220703125,
        0.00244140625
      ],
      "type": "VEC2"
    },
    {
      "bufferView": 1,
      "byteOffset": 7339632,
      "componentType": 5126,
      "count": 65532,
      "max": [
        0.981689453125,
        0.974853515625
      ],
      "min": [
        0.01220703125,
        0.00244140625
      ],
      "type": "VEC2"
    },
    {
      "bufferView": 0,
      "byteOffset": 4313640,
      "componentType": 5125,
      "count": 243504,
      "type": "SCALAR"
    },
    {
      "bufferView": 2,
      "byteOffset": 7863888,
      "componentType": 5126,
      "count": 65534,
      "max": [
        0.228179931640625,
        0.17559814453125,
        0.444427490234375
      ],
      "min": [
        -0.180816650390625,
        -0.10797119140625,
        -0.491485595703125
      ],
      "type": "VEC3"
    },
    {
      "bufferView": 2,
      "byteOffset": 8650296,
      "componentType": 5126,
      "count": 65534,
      "max": [
        0.9986082315444946,
        0.9995978474617004,
        1.0
      ],
      "min": [
        -0.9996903538703918,
        -0.9923742413520813,
        -1.0
      ],
      "type": "VEC3"
    },
    {
      "bufferView": 3,
      "byteOffset": 5242592,
      "componentType": 5126,
      "count": 65534,
      "max": [
        0.9999933242797852,
        1.0,
        0.9999695420265198,
        1.0
      ],
      "min": [
        -0.9999692440032959,
        -0.9999985694885254,
        -0.9998772144317627,
        -1.0
      ],
      "type": "VEC4"
    },
    {
      "bufferView": 1,
      "byteOffset": 7863888,
      "componentType": 5126,
      "count": 65534,
      "max": [
        0.974365234375,
        0.97607421875
      ],
      "min": [
        0.012451171875,
        0.00048828125
      ],
      "type": "VEC2"
    },
    {
      "bufferView": 1,
      "byteOffset": 8388160,
      "componentType": 5126,
      "count": 65534,
      "max": [
        0.974365234375,
        0.97607421875
      ],
      "min": [
        0.012451171875,
        0.00048828125
      ],
      "type": "VEC2"
    },
    {
      "bufferView": 1,
      "byteOffset": 8912432,
      "componentType": 5126,
      "count": 65534,
      "max": [
        0.974365234375,
        0.97607421875
      ],
      "min": [
        0.012451171875,
        0.00048828125
      ],
      "type": "VEC2"
    },
    {
      "bufferView": 0,
      "byteOffset": 5287656,
      "componentType": 5125,
      "count": 248493,
      "type": "SCALAR"
    },
    {
      "bufferView": 2,
      "byteOffset": 9436704,
      "componentType": 5126,
      "count": 65532,
      "max": [
        0.235137939453125,
        0.1500701904296875,
        0.464447021484375
      ],
      "min": [
        -0.218353271484375,
        -0.090545654296875,
        -0.49151611328125
      ],
      "type": "VEC3"
    },
    {
      "bufferView": 2,
      "byteOffset": 10223088,
      "componentType": 5126,
      "count": 65532,
      "max": [
        0.9998761415481567,
        0.9999692440032959,
        1.0
      ],
      "min": [
        -0.9987323880195618,
        -0.9992266297340393,
        -0.9999692440032959
      ],
      "type": "VEC3"
    },
    {
      "bufferView": 3,
      "byteOffset": 6291136,
      "componentType": 5126,
      "count": 65532,
      "max": [
        0.9999580979347229,
        1.0,
        0.9999993443489075,
        1.0
      ],
      "min": [
        -0.9999533891677856,
        -0.999997079372406,
        -0.9999682307243347,
        -1.0
      ],
      "type": "VEC4"
    },
    {
      "bufferView": 1,
      "byteOffset": 9436704,
      "componentType": 5126,
      "count": 65532,
      "max": [
        0.992919921875,
        0.99951171875
      ],
      "min": [
        0.00732421875,
        0.000244140625
      ],
      "type": "VEC2"
    },
    {
      "bufferView": 1,
      "byteOffset": 9960960,
      "componentType": 5126,
      "count": 65532,
      "max": [
        0.992919921875,
        0.99951171875
      ],
      "min": [
        0.00732421875,
        0.000244140625
      ],
      "type": "VEC2"
    },
    {
      "bufferView": 1,
      "byteOffset": 10485216,
      "componentType": 5126,
      "count": 65532,
      "max": [
        0.992919921875,
        0.99951171875
      ],
      "min": [
        0.00732421875,
        0.000244140625
      ],
      "type": "VEC2"
    },
    {
      "bufferView": 0,
      "byteOffset": 6281628,
      "componentType": 5125,
      "count": 236379,
      "type": "SCALAR"
    },
    {
      "bufferView": 2,
      "byteOffset": 11009472,
      "componentType": 5126,
      "count": 65532,
      "max": [
        0.223236083984375,
        0.1651153564453125,
        0.387359619140625
      ],
      "min": [
        -0.1793060302734375,
        -0.044498443603515625,
        -0.491119384765625
      ],
      "type": "VEC3"
    },
    {
      "bufferView": 2,
      "byteOffset": 11795856,
      "componentType": 5126,
      "count": 65532,
      "max": [
        0.9998765587806702,
        0.9999692440032959,
        1.0
      ],
      "min": [
        -0.9996896982192993,
        -0.9998453259468079,
        -0.9999386072158813
      ],
      "type": "VEC3"
    },
    {
      "bufferView": 3,
      "byteOffset": 7339648,
      "componentType": 5126,
      "count": 65532,
      "max": [
        1.0,
        1.0,
        1.0,
        1.0
      ],
      "min": [
        -0.9999664425849915,
        -0.9998714923858643,
        -0.9999837875366211,
        -1.0
      ],
      "type": "VEC4"
    },
    {
      "bufferView": 1,
      "byteOffset": 11009472,
      "componentType": 5126,
      "count": 65532,
      "max": [
        0.9912109375,
        0.97802734375
      ],
      "min": [
        0.0029296875,
        0.0009765625
      ],
      "type": "VEC2"
    },
    {
      "bufferView": 1,
      "byteOffset": 11533728,
      "componentType": 5126,
      "count": 65532,
      "max": [
        0.9912109375,
        0.97802734375
      ],
      "min": [
        0.0029296875,
        0.0009765625
      ],
      "type": "VEC2"
    },
    {
      "bufferView": 1,
      "byteOffset": 12057984,
      "componentType": 5126,
      "count": 65532,
      "max": [
        0.9912109375,
        0.97802734375
      ],
      "min": [
        0.0029296875,
        0.0009765625
      ],
      "type": "VEC2"
    },
    {
      "bufferView": 0,
      "byteOffset": 7227144,
      "componentType": 5125,
      "count": 231786,
      "type": "SCALAR"
    },
    {
      "bufferView": 2,
      "byteOffset": 12582240,
      "componentType": 5126,
      "count": 65532,
      "max": [
        0.2215728759765625,
        0.1714630126953125,
        0.420684814453125
      ],
      "min": [
        -0.21905517578125,
        -0.09991455078125,
        -0.491607666015625
      ],
      "type": "VEC3"
    },
    {
      "bufferView": 2,
      "byteOffset": 13368624,
      "componentType": 5126,
      "count": 65532,
      "max": [
        1.0,
        0.9991950988769531,
        1.0
      ],
      "min": [
        -0.9999691843986511,
        -0.9996905326843262,
        -1.0
      ],
      "type": "VEC3"
    },
    {
      "bufferView": 3,
      "byteOffset": 8388160,
      "componentType": 5126,
      "count": 65532,
      "max": [
        0.9999690055847168,
        0.9999999403953552,
        1.0,
        1.0
      ],
      "min": [
        -0.9999800324440002,
        -0.9999905228614807,
        -0.9999955892562866,
        -1.0
      ],
      "type": "VEC4"
    },
    {
      "bufferView": 1,
      "byteOffset": 12582240,
      "componentType": 5126,
      "count": 65532,
      "max": [
        0.999755859375,
        0.96142578125
      ],
      "min": [
        0.0,
        0.0
      ],
      "type": "VEC2"
    },
    {
      "bufferView": 1,
      "byteOffset": 13106496,
      "componentType": 5126,
      "count": 65532,
      "max": [
        0.999755859375,
        0.96142578125
      ],
      "min": [
        0.0,
        0.0
      ],
      "type": "VEC2"
    },
    {
      "bufferView": 1,
      "byteOffset": 13630752,
      "componentType": 5126,
      "count": 65532,
      "max": [
        0.999755859375,
        0.96142578125
      ],
      "min": [
        0.0,
        0.0
      ],
      "type": "VEC2"
    },
    {
      "bufferView": 0,
      "byteOffset": 8154288,
      "componentType": 5125,
      "count": 247983,
      "type": "SCALAR"
    },
    {
      "bufferView": 2,
      "byteOffset": 14155008,
      "componentType": 5126,
      "count": 65532,
      "max": [
        0.22528076171875,
        0.12133026123046875,
        0.43682861328125
      ],
      "min": [
        -0.2379150390625,
        -0.059970855712890625,
        -0.489959716796875
      ],
      "type": "VEC3"
    },
    {
      "bufferView": 2,
      "byteOffset": 14941392,
      "componentType": 5126,
      "count": 65532,
      "max": [
        0.9999693632125854,
        1.0,
        0.9999692440032959
      ],
      "min": [
        -0.9999383091926575,
        -0.9999693632125854,
        -1.0
      ],
      "type": "VEC3"
    },
    {
      "bufferView": 3,
      "byteOffset": 9436672,
      "componentType": 5126,
      "count": 65532,
      "max": [
        0.9999693632125854,
        1.0,
        1.0,
        1.0
      ],
      "min": [
        -1.0,
        -0.9999913573265076,
        -0.9999672174453735,
        -1.0
      ],
      "type": "VEC4"
    },
    {
      "bufferView": 1,
      "byteOffset": 14155008,
      "componentType": 5126,
      "count": 65532,
      "max": [
        0.998779296875,
        0.999755859375
      ],
      "min": [
        0.0029296875,
        0.00048828125
      ],
      "type": "VEC2"
    },
    {
      "bufferView": 1,
      "byteOffset": 14679264,
      "componentType": 5126,
      "count": 65532,
      "max": [
        0.998779296875,
        0.999755859375
      ],
      "min": [
        0.0029296875,
        0.00048828125
      ],
      "type": "VEC2"
    },
    {
      "bufferView": 1,
      "byteOffset": 15203520,
      "componentType": 5126,
      "count": 65532,
      "max": [
        0.998779296875,
        0.999755859375
      ],
      "min": [
        0.0029296875,
        0.00048828125
      ],
      "type": "VEC2"
    },
    {
      "bufferView": 0,
      "byteOffset": 9146220,
      "componentType": 5125,
      "count": 280890,
      "type": "SCALAR"
    },
    {
      "bufferView": 2,
      "byteOffset": 15727776,
      "componentType": 5126,
      "count": 65532,
      "max": [
        0.23956298828125,
        0.10863494873046875,
        0.45489501953125
      ],
      "min": [
        -0.23944091796875,
        -0.094696044921875,
        -0.4915771484375
      ],
      "type": "VEC3"
    },
    {
      "bufferView": 2,
      "byteOffset": 16514160,
      "componentType": 5126,
      "count": 65532,
      "max": [
        0.9999691247940063,
        1.0,
        1.0
      ],
      "min": [
        -0.9999692440032959,
        -1.0,
        -1.0
      ],
      "type": "VEC3"
    },
    {
      "bufferView": 3,
      "byteOffset": 10485184,
      "componentType": 5126,
      "count": 65532,
      "max": [
        0.9999673962593079,
        1.0,
        1.0,
        1.0
      ],
      "min": [
        -1.0,
        -0.9999869465827942,
        -1.0,
        -1.0
      ],
      "type": "VEC4"
    },
    {
      "bufferView": 1,
      "byteOffset": 15727776,
      "componentType": 5126,
      "count": 65532,
      "max": [
        1.0,
        0.998046875
      ],
      "min": [
        0.0009765625,
        0.00244140625
      ],
      "type": "VEC2"
    },
    {
      "bufferView": 1,
      "byteOffset": 16252032,
      "componentType": 5126,
      "count": 65532,
      "max": [
        1.0,
        0.998046875
      ],
      "min": [
        0.0009765625,
        0.00244140625
      ],
      "type": "VEC2"
    },
    {
      "bufferView": 1,
      "byteOffset": 16776288,
      "componentType": 5126,
      "count": 65532,
      "max": [
        1.0,
        0.998046875
      ],
      "min": [
        0.0009765625,
        0.00244140625
      ],
      "type": "VEC2"
    },
    {
      "bufferView": 0,
      "byteOffset": 10269780,
      "componentType": 5125,
      "count": 255339,
      "type": "SCALAR"
    },
    {
      "bufferView": 2,
      "byteOffset": 17300544,
      "componentType": 5126,
      "count": 65533,
      "max": [
        0.219573974609375,
        0.07132720947265625,
        0.488861083984375
      ],
      "min": [
        -0.2334136962890625,
        -0.11363983154296875,
        -0.4908447265625
      ],
      "type": "VEC3"
    },
    {
      "bufferView": 2,
      "byteOffset": 18086940,
      "componentType": 5126,
      "count": 65533,
      "max": [
        1.0,
        1.0,
        1.0
      ],
      "min": [
        -0.9999692440032959,
        -1.0,
        -1.0
      ],
      "type": "VEC3"
    },
    {
      "bufferView": 3,
      "byteOffset": 11533696,
      "componentType": 5126,
      "count": 65533,
      "max": [
        0.9999958872795105,
        1.0,
        1.0,
        1.0
      ],
      "min": [
        -0.999965488910675,
        -0.9999975562095642,
        -1.0,
        -1.0
      ],
      "type": "VEC4"
    },
    {
      "bufferView": 1,
      "byteOffset": 17300544,
      "componentType": 5126,
      "count": 65533,
      "max": [
        0.998046875,
        1.0
      ],
      "min": [
        0.0,
        0.0029296875
      ],
      "type": "VEC2"
    },
    {
      "bufferView": 1,
      "byteOffset": 17824808,
      "componentType": 5126,
      "count": 65533,
      "max": [
        0.998046875,
        1.0
      ],
      "min": [
        0.0,
        0.0029296875
      ],
      "type": "VEC2"
    },
    {
      "bufferView": 1,
      "byteOffset": 18349072,
      "componentType": 5126,
      "count": 65533,
      "max": [
        0.998046875,
        1.0
      ],
      "min": [
        0.0,
        0.0029296875
      ],
      "type": "VEC2"
    },
    {
      "bufferView": 0,
      "byteOffset": 11291136,
      "componentType": 5125,
      "count": 257187,
      "type": "SCALAR"
    },
    {
      "bufferView": 2,
      "byteOffset": 18873336,
      "componentType": 5126,
      "count": 65532,
      "max": [
        0.234466552734375,
        0.08335113525390625,
        0.436370849609375
      ],
      "min": [
        -0.18255615234375,
        -0.229034423828125,
        -0.491607666015625
      ],
      "type": "VEC3"
    },
    {
      "bufferView": 2,
      "byteOffset": 19659720,
      "componentType": 5126,
      "count": 65532,
      "max": [
        0.9999382495880127,
        0.9999382495880127,
        1.0
      ],
      "min": [
        -0.9999691843986511,
        -0.9999375939369202,
        -1.0
      ],
      "type": "VEC3"
    },
    {
      "bufferView": 3,
      "byteOffset": 12582224,
      "componentType": 5126,
      "count": 65532,
      "max": [
        1.0,
        1.0,
        1.0,
        1.0
      ],
      "min": [
        -1.0,
        -0.9999457597732544,
        -0.9999588131904602,
        -1.0
      ],
      "type": "VEC4"
    },
    {
      "bufferView": 1,
      "byteOffset": 18873336,
      "componentType": 5126,
      "count": 65532,
      "max": [
        0.941162109375,
        0.982666015625
      ],
      "min": [
        0.0009765625,
        0.011962890625
      ],
      "type": "VEC2"
    },
    {
      "bufferView": 1,
      "byteOffset": 19397592,
      "componentType": 5126,
      "count": 65532,
      "max": [
        0.941162109375,
        0.982666015625
      ],
      "min": [
        0.0009765625,
        0.011962890625
      ],
      "type": "VEC2"
    },
    {
      "bufferView": 1,
      "byteOffset": 19921848,
      "componentType": 5126,
      "count": 65532,
      "max": [
        0.941162109375,
        0.982666015625
      ],
      "min": [
        0.0009765625,
        0.011962890625
      ],
      "type": "VEC2"
    },
    {
      "bufferView": 0,
      "byteOffset": 12319884,
      "componentType": 5125,
      "count": 280413,
      "type": "SCALAR"
    },
    {
      "bufferView": 2,
      "byteOffset": 20446104,
      "componentType": 5126,
      "count": 65532,
      "max": [
        0.2368011474609375,
        -0.004000186920166016,
        0.37420654296875
      ],
      "min": [
        -0.202972412109375,
        -0.14776611328125,
        -0.49151611328125
      ],
      "type": "VEC3"
    },
    {
      "bufferView": 2,
      "byteOffset": 21232488,
      "componentType": 5126,
      "count": 65532,
      "max": [
        0.9998453259468079,
        0.999598503112793,
        1.0
      ],
      "min": [
        -0.9999381899833679,
        -0.9998765587806702,
        -1.0
      ],
      "type": "VEC3"
    },
    {
      "bufferView": 3,
      "byteOffset": 13630736,
      "componentType": 5126,
      "count": 65532,
      "max": [
        0.999968409538269,
        1.0,
        1.0,
        1.0
      ],
      "min": [
        -1.0,
        -0.9999871850013733,
        -0.9999933242797852,
        -1.0
      ],
      "type": "VEC4"
    },
    {
      "bufferView": 1,
      "byteOffset": 20446104,
      "componentType": 5126,
      "count": 65532,
      "max": [
        1.0,
        0.99853515625
      ],
      "min": [
        0.075927734375,
        0.0
      ],
      "type": "VEC2"
    },
    {
      "bufferView": 1,
      "byteOffset": 20970360,
      "componentType": 5126,
      "count": 65532,
      "max": [
        1.0,
        0.99853515625
      ],
      "min": [
        0.075927734375,
        0.0
      ],
      "type": "VEC2"
    },
    {
      "bufferView": 1,
      "byteOffset": 21494616,
      "componentType": 5126,
      "count": 65532,
      "max": [
        1.0,
        0.99853515625
      ],
      "min": [
        0.075927734375,
        0.0
      ],
      "type": "VEC2"
    },
    {
      "bufferView": 0,
      "byteOffset": 13441536,
      "componentType": 5125,
      "count": 285306,
      "type": "SCALAR"
    },
    {
      "bufferView": 2,
      "byteOffset": 22018872,
      "componentType": 5126,
      "count": 65532,
      "max": [
        0.147064208984375,
        0.08055877685546875,
        0.38287353515625
      ],
      "min": [
        -0.1418914794921875,
        -0.1994781494140625,
        -0.491607666015625
      ],
      "type": "VEC3"
    },
    {
      "bufferView": 2,
      "byteOffset": 22805256,
      "componentType": 5126,
      "count": 65532,
      "max": [
        0.9998763799667358,
        0.9647735357284546,
        1.0
      ],
      "min": [
        -0.9998449683189392,
        -0.9988862872123718,
        -1.0
      ],
      "type": "VEC3"
    },
    {
      "bufferView": 3,
      "byteOffset": 14679248,
      "componentType": 5126,
      "count": 65532,
      "max": [
        1.0,
        1.0,
        1.0,
        1.0
      ],
      "min": [
        -1.0,
        -0.9999871850013733,
        -0.9999991059303284,
        -1.0
      ],
      "type": "VEC4"
    },
    {
      "bufferView": 1,
      "byteOffset": 22018872,
      "componentType": 5126,
      "count": 65532,
      "max": [
        0.992431640625,
        0.99951171875
      ],
      "min": [
        0.002197265625,
        0.004150390625
      ],
      "type": "VEC2"
    },
    {
      "bufferView": 1,
      "byteOffset": 22543128,
      "componentType": 5126,
      "count": 65532,
      "max": [
        0.992431640625,
        0.99951171875
      ],
      "min": [
        0.002197265625,
        0.004150390625
      ],
      "type": "VEC2"
    },
    {
      "bufferView": 1,
      "byteOffset": 23067384,
      "componentType": 5126,
      "count": 65532,
      "max": [
        0.992431640625,
        0.99951171875
      ],
      "min": [
        0.002197265625,
        0.004150390625
      ],
      "type": "VEC2"
    },
    {
      "bufferView": 0,
      "byteOffset": 14582760,
      "componentType": 5125,
      "count": 262788,
      "type": "SCALAR"
    },
    {
      "bufferView": 2,
      "byteOffset": 23591640,
      "componentType": 5126,
      "count": 65532,
      "max": [
        0.1386260986328125,
        0.01027679443359375,
        0.393096923828125
      ],
      "min": [
        -0.1421661376953125,
        -0.2396240234375,
        -0.491607666015625
      ],
      "type": "VEC3"
    },
    {
      "bufferView": 2,
      "byteOffset": 24378024,
      "componentType": 5126,
      "count": 65532,
      "max": [
        0.9998458027839661,
        0.9998762011528015,
        1.0
      ],
      "min": [
        -0.9999383091926575,
        -0.9999380111694336,
        -1.0
      ],
      "type": "VEC3"
    },
    {
      "bufferView": 3,
      "byteOffset": 15727760,
      "componentType": 5126,
      "count": 65532,
      "max": [
        0.9999691843986511,
        0.9999923706054688,
        1.0,
        1.0
      ],
      "min": [
        -0.9999951124191284,
        -1.0,
        -1.0,
        -1.0
      ],
      "type": "VEC4"
    },
    {
      "bufferView": 1,
      "byteOffset": 23591640,
      "componentType": 5126,
      "count": 65532,
      "max": [
        0.981689453125,
        0.998779296875
      ],
      "min": [
        0.03369140625,
        0.00341796875
      ],
      "type": "VEC2"
    },
    {
      "bufferView": 1,
      "byteOffset": 24115896,
      "componentType": 5126,
      "count": 65532,
      "max": [
        0.981689453125,
        0.998779296875
      ],
      "min": [
        0.03369140625,
        0.00341796875
      ],
      "type": "VEC2"
    },
    {
      "bufferView": 1,
      "byteOffset": 24640152,
      "componentType": 5126,
      "count": 65532,
      "max": [
        0.981689453125,
        0.998779296875
      ],
      "min": [
        0.03369140625,
        0.00341796875
      ],
      "type": "VEC2"
    },
    {
      "bufferView": 0,
      "byteOffset": 15633912,
      "componentType": 5125,
      "count": 240273,
      "type": "SCALAR"
    },
    {
      "bufferView": 2,
      "byteOffset": 25164408,
      "componentType": 5126,
      "count": 65532,
      "max": [
        0.147003173828125,
        -0.016809463500976563,
        0.397247314453125
      ],
      "min": [
        -0.145782470703125,
        -0.2271881103515625,
        -0.4913330078125
      ],
      "type": "VEC3"
    },
    {
      "bufferView": 2,
      "byteOffset": 25950792,
      "componentType": 5126,
      "count": 65532,
      "max": [
        0.9999692440032959,
        1.0,
        1.0
      ],
      "min": [
        -0.999474048614502,
        -1.0,
        -0.9999691247940063
      ],
      "type": "VEC3"
    },
    {
      "bufferView": 3,
      "byteOffset": 16776272,
      "componentType": 5126,
      "count": 65532,
      "max": [
        1.0,
        0.99992835521698,
        1.0,
        1.0
      ],
      "min": [
        -0.9999786615371704,
        -0.9999526143074036,
        -1.0,
        -1.0
      ],
      "type": "VEC4"
    },
    {
      "bufferView": 1,
      "byteOffset": 25164408,
      "componentType": 5126,
      "count": 65532,
      "max": [
        0.99658203125,
        0.98388671875
      ],
      "min": [
        0.022216796875,
        0.0
      ],
      "type": "VEC2"
    },
    {
      "bufferView": 1,
      "byteOffset": 25688664,
      "componentType": 5126,
      "count": 65532,
      "max": [
        0.99658203125,
        0.98388671875
      ],
      "min": [
        0.022216796875,
        0.0
      ],
      "type": "VEC2"
    },
    {
      "bufferView": 1,
      "byteOffset": 26212920,
      "componentType": 5126,
      "count": 65532,
      "max": [
        0.99658203125,
        0.98388671875
      ],
      "min": [
        0.022216796875,
        0.0
      ],
      "type": "VEC2"
    },
    {
      "bufferView": 0,
      "byteOffset": 16595004,
      "componentType": 5125,
      "count": 192669,
      "type": "SCALAR"
    },
    {
      "bufferView": 2,
      "byteOffset": 26737176,
      "componentType": 5126,
      "count": 65532,
      "max": [
        0.1483001708984375,
        -0.016757965087890625,
        0.3974609375
      ],
      "min": [
        -0.1625823974609375,
        -0.224761962890625,
        -0.433563232421875
      ],
      "type": "VEC3"
    },
    {
      "bufferView": 2,
      "byteOffset": 27523560,
      "componentType": 5126,
      "count": 65532,
      "max": [
        0.9998763799667358,
        0.9673112630844116,
        1.0
      ],
      "min": [
        -0.9995967745780945,
        -1.0,
        -1.0
      ],
      "type": "VEC3"
    },
    {
      "bufferView": 3,
      "byteOffset": 17824784,
      "componentType": 5126,
      "count": 65532,
      "max": [
        0.9999675154685974,
        1.0,
        0.9979616403579712,
        1.0
      ],
      "min": [
        -0.9999918341636658,
        -0.9999993443489075,
        -1.0,
        -1.0
      ],
      "type": "VEC4"
    },
    {
      "bufferView": 1,
      "byteOffset": 26737176,
      "componentType": 5126,
      "count": 65532,
      "max": [
        0.995849609375,
        0.982666015625
      ],
      "min": [
        0.003173828125,
        0.00341796875
      ],
      "type": "VEC2"
    },
    {
      "bufferView": 1,
      "byteOffset": 27261432,
      "componentType": 5126,
      "count": 65532,
      "max": [
        0.995849609375,
        0.982666015625
      ],
      "min": [
        0.003173828125,
        0.00341796875
      ],
      "type": "VEC2"
    },
    {
      "bufferView": 1,
      "byteOffset": 27785688,
      "componentType": 5126,
      "count": 65532,
      "max": [
        0.995849609375,
        0.982666015625
      ],
      "min": [
        0.003173828125,
        0.00341796875
      ],
      "type": "VEC2"
    },
    {
      "bufferView": 0,
      "byteOffset": 17365680,
      "componentType": 5125,
      "count": 272331,
      "type": "SCALAR"
    },
    {
      "bufferView": 2,
      "byteOffset": 28309944,
      "componentType": 5126,
      "count": 65534,
      "max": [
        0.14715576171875,
        -0.03467559814453125,
        0.3974609375
      ],
      "min": [
        -0.1551361083984375,
        -0.2396240234375,
        -0.1962890625
      ],
      "type": "VEC3"
    },
    {
      "bufferView": 2,
      "byteOffset": 29096352,
      "componentType": 5126,
      "count": 65534,
      "max": [
        0.9998763799667358,
        0.9984559416770935,
        0.9999691247940063
      ],
      "min": [
        -1.0,
        -0.9995055794715881,
        -0.9999691843986511
      ],
      "type": "VEC3"
    },
    {
      "bufferView": 3,
      "byteOffset": 18873296,
      "componentType": 5126,
      "count": 65534,
      "max": [
        1.0,
        0.9999979734420776,
        0.9995583295822144,
        1.0
      ],
      "min": [
        -0.9999694228172302,
        -0.9999133348464966,
        -0.9999953508377075,
        -1.0
      ],
      "type": "VEC4"
    },
    {
      "bufferView": 1,
      "byteOffset": 28309944,
      "componentType": 5126,
      "count": 65534,
      "max": [
        0.998779296875,
        0.998779296875
      ],
      "min": [
        0.0009765625,
        0.000244140625
      ],
      "type": "VEC2"
    },
    {
      "bufferView": 1,
      "byteOffset": 28834216,
      "componentType": 5126,
      "count": 65534,
      "max": [
        0.998779296875,
        0.998779296875
      ],
      "min": [
        0.0009765625,
        0.000244140625
      ],
      "type": "VEC2"
    },
    {
      "bufferView": 1,
      "byteOffset": 29358488,
      "componentType": 5126,
      "count": 65534,
      "max": [
        0.998779296875,
        0.998779296875
      ],
      "min": [
        0.0009765625,
        0.000244140625
      ],
      "type": "VEC2"
    },
    {
      "bufferView": 0,
      "byteOffset": 18455004,
      "componentType": 5125,
      "count": 187995,
      "type": "SCALAR"
    },
    {
      "bufferView": 2,
      "byteOffset": 29882760,
      "componentType": 5126,
      "count": 65532,
      "max": [
        0.2389373779296875,
        0.097686767578125,
        0.34771728515625
      ],
      "min": [
        -0.2029571533203125,
        -0.1287689208984375,
        -0.49151611328125
      ],
      "type": "VEC3"
    },
    {
      "bufferView": 2,
      "byteOffset": 30669144,
      "componentType": 5126,
      "count": 65532,
      "max": [
        1.0,
        0.9984540939331055,
        1.0
      ],
      "min": [
        -0.9998458027839661,
        -0.9999688863754272,
        -1.0
      ],
      "type": "VEC3"
    },
    {
      "bufferView": 3,
      "byteOffset": 19921840,
      "componentType": 5126,
      "count": 65532,
      "max": [
        0.9999688267707825,
        1.0,
        0.9999865293502808,
        1.0
      ],
      "min": [
        -1.0,
        -0.9999953508377075,
        -0.999944806098938,
        -1.0
      ],
      "type": "VEC4"
    },
    {
      "bufferView": 1,
      "byteOffset": 29882760,
      "componentType": 5126,
      "count": 65532,
      "max": [
        0.99267578125,
        0.99853515625
      ],
      "min": [
        0.00146484375,
        0.0048828125
      ],
      "type": "VEC2"
    },
    {
      "bufferView": 1,
      "byteOffset": 30407016,
      "componentType": 5126,
      "count": 65532,
      "max": [
        0.99267578125,
        0.99853515625
      ],
      "min": [
        0.00146484375,
        0.0048828125
      ],
      "type": "VEC2"
    },
    {
      "bufferView": 1,
      "byteOffset": 30931272,
      "componentType": 5126,
      "count": 65532,
      "max": [
        0.99267578125,
        0.99853515625
      ],
      "min": [
        0.00146484375,
        0.0048828125
      ],
      "type": "VEC2"
    },
    {
      "bufferView": 0,
      "byteOffset": 19206984,
      "componentType": 5125,
      "count": 238440,
      "type": "SCALAR"
    },
    {
      "bufferView": 2,
      "byteOffset": 31455528,
      "componentType": 5126,
      "count": 65532,
      "max": [
        0.23419189453125,
        0.044475555419921875,
        0.4888916015625
      ],
      "min": [
        -0.1875457763671875,
        -0.07337188720703125,
        -0.491302490234375
      ],
      "type": "VEC3"
    },
    {
      "bufferView": 2,
      "byteOffset": 32241912,
      "componentType": 5126,
      "count": 65532,
      "max": [
        0.9999691843986511,
        0.9999691247940063,
        1.0
      ],
      "min": [
        -0.9999692440032959,
        -0.9997525811195374,
        -1.0
      ],
      "type": "VEC3"
    },
    {
      "bufferView": 3,
      "byteOffset": 20970352,
      "componentType": 5126,
      "count": 65532,
      "max": [
        0.9999691843986511,
        0.9999992847442627,
        0.9999523758888245,
        1.0
      ],
      "min": [
        -0.9999281764030457,
        -1.0,
        -0.9999991059303284,
        -1.0
      ],
      "type": "VEC4"
    },
    {
      "bufferView": 1,
      "byteOffset": 31455528,
      "componentType": 5126,
      "count": 65532,
      "max": [
        0.998779296875,
        0.999755859375
      ],
      "min": [
        0.007080078125,
        0.009765625
      ],
      "type": "VEC2"
    },
    {
      "bufferView": 1,
      "byteOffset": 31979784,
      "componentType": 5126,
      "count": 65532,
      "max": [
        0.998779296875,
        0.999755859375
      ],
      "min": [
        0.007080078125,
        0.009765625
      ],
      "type": "VEC2"
    },
    {
      "bufferView": 1,
      "byteOffset": 32504040,
      "componentType": 5126,
      "count": 65532,
      "max": [
        0.998779296875,
        0.999755859375
      ],
      "min": [
        0.007080078125,
        0.009765625
      ],
      "type": "VEC2"
    },
    {
      "bufferView": 0,
      "byteOffset": 20160744,
      "componentType": 5125,
      "count": 240876,
      "type": "SCALAR"
    },
    {
      "bufferView": 2,
      "byteOffset": 33028296,
      "componentType": 5126,
      "count": 65532,
      "max": [
        0.2191162109375,
        0.04522705078125,
        0.4873046875
      ],
      "min": [
        -0.1688995361328125,
        -0.052417755126953125,
        -0.490142822265625
      ],
      "type": "VEC3"
    },
    {
      "bufferView": 2,
      "byteOffset": 33814680,
      "componentType": 5126,
      "count": 65532,
      "max": [
        1.0,
        0.9995067119598389,
        0.9999694228172302
      ],
      "min": [
        -1.0,
        -1.0,
        -1.0
      ],
      "type": "VEC3"
    },
    {
      "bufferView": 3,
      "byteOffset": 22018864,
      "componentType": 5126,
      "count": 65532,
      "max": [
        0.9999690651893616,
        1.0,
        0.9999967813491821,
        1.0
      ],
      "min": [
        -0.9998475313186646,
        -0.9998757839202881,
        -0.9999690651893616,
        -1.0
      ],
      "type": "VEC4"
    },
    {
      "bufferView": 1,
      "byteOffset": 33028296,
      "componentType": 5126,
      "count": 65532,
      "max": [
        0.99951171875,
        0.9990234375
      ],
      "min": [
        0.00341796875,
        0.001220703125
      ],
      "type": "VEC2"
    },
    {
      "bufferView": 1,
      "byteOffset": 33552552,
      "componentType": 5126,
      "count": 65532,
      "max": [
        0.99951171875,
        0.9990234375
      ],
      "min": [
        0.00341796875,
        0.001220703125
      ],
      "type": "VEC2"
    },
    {
      "bufferView": 1,
      "byteOffset": 34076808,
      "componentType": 5126,
      "count": 65532,
      "max": [
        0.99951171875,
        0.9990234375
      ],
      "min": [
        0.00341796875,
        0.001220703125
      ],
      "type": "VEC2"
    },
    {
      "bufferView": 0,
      "byteOffset": 21124248,
      "componentType": 5125,
      "count": 248946,
      "type": "SCALAR"
    },
    {
      "bufferView": 2,
      "byteOffset": 34601064,
      "componentType": 5126,
      "count": 65532,
      "max": [
        0.2170562744140625,
        0.072662353515625,
        0.476226806640625
      ],
      "min": [
        -0.2361907958984375,
        -0.0365447998046875,
        -0.49163818359375
      ],
      "type": "VEC3"
    },
    {
      "bufferView": 2,
      "byteOffset": 35387448,
      "componentType": 5126,
      "count": 65532,
      "max": [
        1.0,
        1.0,
        0.999968945980072
      ],
      "min": [
        -1.0,
        -1.0,
        -1.0
      ],
      "type": "VEC3"
    },
    {
      "bufferView": 3,
      "byteOffset": 23067376,
      "componentType": 5126,
      "count": 65532,
      "max": [
        0.9999806880950928,
        1.0,
        1.0,
        1.0
      ],
      "min": [
        -0.9999907612800598,
        -0.999958872795105,
        -0.9999987483024597,
        -1.0
      ],
      "type": "VEC4"
    },
    {
      "bufferView": 1,
      "byteOffset": 34601064,
      "componentType": 5126,
      "count": 65532,
      "max": [
        1.0,
        0.99951171875
      ],
      "min": [
        0.001220703125,
        0.010498046875
      ],
      "type": "VEC2"
    },
    {
      "bufferView": 1,
      "byteOffset": 35125320,
      "componentType": 5126,
      "count": 65532,
      "max": [
        1.0,
        0.99951171875
      ],
      "min": [
        0.001220703125,
        0.010498046875
      ],
      "type": "VEC2"
    },
    {
      "bufferView": 1,
      "byteOffset": 35649576,
      "componentType": 5126,
      "count": 65532,
      "max": [
        1.0,
        0.99951171875
      ],
      "min": [
        0.001220703125,
        0.010498046875
      ],
      "type": "VEC2"
    },
    {
      "bufferView": 0,
      "byteOffset": 22120032,
      "componentType": 5125,
      "count": 210618,
      "type": "SCALAR"
    },
    {
      "bufferView": 2,
      "byteOffset": 36173832,
      "componentType": 5126,
      "count": 35167,
      "max": [
        0.2172393798828125,
        0.088592529296875,
        0.465087890625
      ],
      "min": [
        -0.20721435546875,
        -0.017957687377929688,
        -0.4915771484375
      ],
      "type": "VEC3"
    },
    {
      "bufferView": 2,
      "byteOffset": 36595836,
      "componentType": 5126,
      "count": 35167,
      "max": [
        1.0,
        1.0,
        1.0
      ],
      "min": [
        -0.9999693036079407,
        -1.0,
        -0.9999690055847168
      ],
      "type": "VEC3"
    },
    {
      "bufferView": 3,
      "byteOffset": 24115888,
      "componentType": 5126,
      "count": 35167,
      "max": [
        0.9994991421699524,
        1.0,
        1.0,
        1.0
      ],
      "min": [
        -0.9999907612800598,
        -0.9999955892562866,
        -0.9999622702598572,
        -1.0
      ],
      "type": "VEC4"
    },
    {
      "bufferView": 1,
      "byteOffset": 36173832,
      "componentType": 5126,
      "count": 35167,
      "max": [
        0.9990234375,
        0.999755859375
      ],
      "min": [
        0.001953125,
        0.00341796875
      ],
      "type": "VEC2"
    },
    {
      "bufferView": 1,
      "byteOffset": 36455168,
      "componentType": 5126,
      "count": 35167,
      "max": [
        0.9990234375,
        0.999755859375
      ],
      "min": [
        0.001953125,
        0.00341796875
      ],
      "type": "VEC2"
    },
    {
      "bufferView": 1,
      "byteOffset": 36736504,
      "componentType": 5126,
      "count": 35167,
      "max": [
        0.9990234375,
        0.999755859375
      ],
      "min": [
        0.001953125,
        0.00341796875
      ],
      "type": "VEC2"
    },
    {
      "bufferView": 0,
      "byteOffset": 22962504,
      "componentType": 5125,
      "count": 89280,
      "type": "SCALAR"
    }
  ],
  "asset": {
    "extras": {
      "author": "Jerovdl (https://sketchfab.com/Jerovdl)",
      "license": "CC-BY-4.0 (http://creativecommons.org/licenses/by/4.0/)",
      "source": "https://sketchfab.com/3d-models/indoor-plant-decor-4903b31afd184a0eb83e2b6fe057eeb5",
      "title": "Indoor Plant Decor"
    },
    "generator": "Sketchfab-17.17.0",
    "version": "2.0"
  },
  "bufferViews": [
    {
      "buffer": 0,
      "byteLength": 23319624,
      "name": "floatBufferViews",
      "target": 34963
    },
    {
      "buffer": 0,
      "byteLength": 37017840,
      "byteOffset": 23319624,
      "byteStride": 8,
      "name": "floatBufferViews",
      "target": 34962
    },
    {
      "buffer": 0,
      "byteLength": 37017840,
      "byteOffset": 60337464,
      "byteStride": 12,
      "name": "floatBufferViews",
      "target": 34962
    },
    {
      "buffer": 0,
      "byteLength": 24678560,
      "byteOffset": 97355304,
      "byteStride": 16,
      "name": "floatBufferViews",
      "target": 34962
    }
  ],
  "buffers": [
    {
      "byteLength": 122033864,
      "uri": "scene.bin"
    }
  ],
  "images": [
    {
      "uri": "textures/tripo_mat_9b20fffe_baseColor.jpeg"
    },
    {
      "uri": "textures/tripo_mat_9b20fffe_metallicRoughness.png"
    },
    {
      "uri": "textures/tripo_mat_9b20fffe_normal.png"
    }
  ],
  "materials": [
    {
      "doubleSided": true,
      "name": "tripo_mat_9b20fffe",
      "normalTexture": {
        "index": 2,
        "texCoord": 1
      },
      "pbrMetallicRoughness": {
        "baseColorTexture": {
          "index": 0
        },
        "metallicRoughnessTexture": {
          "index": 1
        }
      }
    }
  ],
  "meshes": [
    {
      "name": "tripo_node_9b20fffe_tripo_mat_9b20fffe_0",
      "primitives": [
        {
          "attributes": {
            "NORMAL": 1,
            "POSITION": 0,
            "TANGENT": 2,
            "TEXCOORD_0": 3,
            "TEXCOORD_1": 4,
            "TEXCOORD_2": 5
          },
          "indices": 6,
          "material": 0,
          "mode": 4
        }
      ]
    },
    {
      "name": "tripo_node_9b20fffe_tripo_mat_9b20fffe_0",
      "primitives": [
        {
          "attributes": {
            "NORMAL": 8,
            "POSITION": 7,
            "TANGENT": 9,
            "TEXCOORD_0": 10,
            "TEXCOORD_1": 11,
            "TEXCOORD_2": 12
          },
          "indices": 13,
          "material": 0,
          "mode": 4
        }
      ]
    },
    {
      "name": "tripo_node_9b20fffe_tripo_mat_9b20fffe_0",
      "primitives": [
        {
          "attributes": {
            "NORMAL": 15,
            "POSITION": 14,
            "TANGENT": 16,
            "TEXCOORD_0": 17,
            "TEXCOORD_1": 18,
            "TEXCOORD_2": 19
          },
          "indices": 20,
          "material": 0,
          "mode": 4
        }
      ]
    },
    {
      "name": "tripo_node_9b20fffe_tripo_mat_9b20fffe_0",
      "primitives": [
        {
          "attributes": {
            "NORMAL": 22,
            "POSITION": 21,
            "TANGENT": 23,
            "TEXCOORD_0": 24,
            "TEXCOORD_1": 25,
            "TEXCOORD_2": 26
          },
          "indices": 27,
          "material": 0,
          "mode": 4
        }
      ]
    },
    {
      "name": "tripo_node_9b20fffe_tripo_mat_9b20fffe_0",
      "primitives": [
        {
          "attributes": {
            "NORMAL": 29,
            "POSITION": 28,
            "TANGENT": 30,
            "TEXCOORD_0": 31,
            "TEXCOORD_1": 32,
            "TEXCOORD_2": 33
          },
          "indices": 34,
          "material": 0,
          "mode": 4
        }
      ]
    },
    {
      "name": "tripo_node_9b20fffe_tripo_mat_9b20fffe_0",
      "primitives": [
        {
          "attributes": {
            "NORMAL": 36,
            "POSITION": 35,
            "TANGENT": 37,
            "TEXCOORD_0": 38,
            "TEXCOORD_1": 39,
            "TEXCOORD_2": 40
          },
          "indices": 41,
          "material": 0,
          "mode": 4
        }
      ]
    },
    {
      "name": "tripo_node_9b20fffe_tripo_mat_9b20fffe_0",
      "primitives": [
        {
          "attributes": {
            "NORMAL": 43,
            "POSITION": 42,
            "TANGENT": 44,
            "TEXCOORD_0": 45,
            "TEXCOORD_1": 46,
            "TEXCOORD_2": 47
          },
          "indices": 48,
          "material": 0,
          "mode": 4
        }
      ]
    },
    {
      "name": "tripo_node_9b20fffe_tripo_mat_9b20fffe_0",
      "primitives": [
        {
          "attributes": {
            "NORMAL": 50,
            "POSITION": 49,
            "TANGENT": 51,
            "TEXCOORD_0": 52,
            "TEXCOORD_1": 53,
            "TEXCOORD_2": 54
          },
          "indices": 55,
          "material": 0,
          "mode": 4
        }
      ]
    },
    {
      "name": "tripo_node_9b20fffe_tripo_mat_9b20fffe_0",
      "primitives": [
        {
          "attributes": {
            "NORMAL": 57,
            "POSITION": 56,
            "TANGENT": 58,
            "TEXCOORD_0": 59,
            "TEXCOORD_1": 60,
            "TEXCOORD_2": 61
          },
          "indices": 62,
          "material": 0,
          "mode": 4
        }
      ]
    },
    {
      "name": "tripo_node_9b20fffe_tripo_mat_9b20fffe_0",
      "primitives": [
        {
          "attributes": {
            "NORMAL": 64,
            "POSITION": 63,
            "TANGENT": 65,
            "TEXCOORD_0": 66,
            "TEXCOORD_1": 67,
            "TEXCOORD_2": 68
          },
          "indices": 69,
          "material": 0,
          "mode": 4
        }
      ]
    },
    {
      "name": "tripo_node_9b20fffe_tripo_mat_9b20fffe_0",
      "primitives": [
        {
          "attributes": {
            "NORMAL": 71,
            "POSITION": 70,
            "TANGENT": 72,
            "TEXCOORD_0": 73,
            "TEXCOORD_1": 74,
            "TEXCOORD_2": 75
          },
          "indices": 76,
          "material": 0,
          "mode": 4
        }
      ]
    },
    {
      "name": "tripo_node_9b20fffe_tripo_mat_9b20fffe_0",
      "primitives": [
        {
          "attributes": {
            "NORMAL": 78,
            "POSITION": 77,
            "TANGENT": 79,
            "TEXCOORD_0": 80,
            "TEXCOORD_1": 81,
            "TEXCOORD_2": 82
          },
          "indices": 83,
          "material": 0,
          "mode": 4
        }
      ]
    },
    {
      "name": "tripo_node_9b20fffe_tripo_mat_9b20fffe_0",
      "primitives": [
        {
          "attributes": {
            "NORMAL": 85,
            "POSITION": 84,
            "TANGENT": 86,
            "TEXCOORD_0": 87,
            "TEXCOORD_1": 88,
            "TEXCOORD_2": 89
          },
          "indices": 90,
          "material": 0,
          "mode": 4
        }
      ]
    },
    {
      "name": "tripo_node_9b20fffe_tripo_mat_9b20fffe_0",
      "primitives": [
        {
          "attributes": {
            "NORMAL": 92,
            "POSITION": 91,
            "TANGENT": 93,
            "TEXCOORD_0": 94,
            "TEXCOORD_1": 95,
            "TEXCOORD_2": 96
          },
          "indices": 97,
          "material": 0,
          "mode": 4
        }
      ]
    },
    {
      "name": "tripo_node_9b20fffe_tripo_mat_9b20fffe_0",
      "primitives": [
        {
          "attributes": {
            "NORMAL": 99,
            "POSITION": 98,
            "TANGENT": 100,
            "TEXCOORD_0": 101,
            "TEXCOORD_1": 102,
            "TEXCOORD_2": 103
          },
          "indices": 104,
          "material": 0,
          "mode": 4
        }
      ]
    },
    {
      "name": "tripo_node_9b20fffe_tripo_mat_9b20fffe_0",
      "primitives": [
        {
          "attributes": {
            "NORMAL": 106,
            "POSITION": 105,
            "TANGENT": 107,
            "TEXCOORD_0": 108,
            "TEXCOORD_1": 109,
            "TEXCOORD_2": 110
          },
          "indices": 111,
          "material": 0,
          "mode": 4
        }
      ]
    },
    {
      "name": "tripo_node_9b20fffe_tripo_mat_9b20fffe_0",
      "primitives": [
        {
          "attributes": {
            "NORMAL": 113,
            "POSITION": 112,
            "TANGENT": 114,
            "TEXCOORD_0": 115,
            "TEXCOORD_1": 116,
            "TEXCOORD_2": 117
          },
          "indices": 118,
          "material": 0,
          "mode": 4
        }
      ]
    },
    {
      "name": "tripo_node_9b20fffe_tripo_mat_9b20fffe_0",
      "primitives": [
        {
          "attributes": {
            "NORMAL": 120,
            "POSITION": 119,
            "TANGENT": 121,
            "TEXCOORD_0": 122,
            "TEXCOORD_1": 123,
            "TEXCOORD_2": 124
          },
          "indices": 125,
          "material": 0,
          "mode": 4
        }
      ]
    },
    {
      "name": "tripo_node_9b20fffe_tripo_mat_9b20fffe_0",
      "primitives": [
        {
          "attributes": {
            "NORMAL": 127,
            "POSITION": 126,
            "TANGENT": 128,
            "TEXCOORD_0": 129,
            "TEXCOORD_1": 130,
            "TEXCOORD_2": 131
          },
          "indices": 132,
          "material": 0,
          "mode": 4
        }
      ]
    },
    {
      "name": "tripo_node_9b20fffe_tripo_mat_9b20fffe_0",
      "primitives": [
        {
          "attributes": {
            "NORMAL": 134,
            "POSITION": 133,
            "TANGENT": 135,
            "TEXCOORD_0": 136,
            "TEXCOORD_1": 137,
            "TEXCOORD_2": 138
          },
          "indices": 139,
          "material": 0,
          "mode": 4
        }
      ]
    },
    {
      "name": "tripo_node_9b20fffe_tripo_mat_9b20fffe_0",
      "primitives": [
        {
          "attributes": {
            "NORMAL": 141,
            "POSITION": 140,
            "TANGENT": 142,
            "TEXCOORD_0": 143,
            "TEXCOORD_1": 144,
            "TEXCOORD_2": 145
          },
          "indices": 146,
          "material": 0,
          "mode": 4
        }
      ]
    },
    {
      "name": "tripo_node_9b20fffe_tripo_mat_9b20fffe_0",
      "primitives": [
        {
          "attributes": {
            "NORMAL": 148,
            "POSITION": 147,
            "TANGENT": 149,
            "TEXCOORD_0": 150,
            "TEXCOORD_1": 151,
            "TEXCOORD_2": 152
          },
          "indices": 153,
          "material": 0,
          "mode": 4
        }
      ]
    },
    {
      "name": "tripo_node_9b20fffe_tripo_mat_9b20fffe_0",
      "primitives": [
        {
          "attributes": {
            "NORMAL": 155,
            "POSITION": 154,
            "TANGENT": 156,
            "TEXCOORD_0": 157,
            "TEXCOORD_1": 158,
            "TEXCOORD_2": 159
          },
          "indices": 160,
          "material": 0,
          "mode": 4
        }
      ]
    },
    {
      "name": "tripo_node_9b20fffe_tripo_mat_9b20fffe_0",
      "primitives": [
        {
          "attributes": {
            "NORMAL": 162,
            "POSITION": 161,
            "TANGENT": 163,
            "TEXCOORD_0": 164,
            "TEXCOORD_1": 165,
            "TEXCOORD_2": 166
          },
          "indices": 167,
          "material": 0,
          "mode": 4
        }
      ]
    }
  ],
  "nodes": [
    {
      "children": [
        1
      ],
      "matrix": [
        1.0,
        0.0,
        0.0,
        0.0,
        0.0,
        2.220446049250313e-16,
        -1.0,
        0.0,
        0.0,
        1.0,
        2.220446049250313e-16,
        0.0,
        0.0,
        0.0,
        0.0,
        1.0
      ],
      "name": "Sketchfab_model"
    },
    {
      "children": [
        2
      ],
      "matrix": [
        1.0,
        0.0,
        0.0,
        0.0,
        0.0,
        0.0,
        1.0,
        0.0,
        0.0,
        -1.0,
        0.0,
        0.0,
        0.0,
        0.0,
        0.0,
        1.0
      ],
      "name": "tripo_convert_9b20fffe-a749-4f7f-ace2-228b543418c5.fbx"
    },
    {
      "children": [
        3
      ],
      "name": "RootNode"
    },
    {
      "children": [
        4,
        5,
        6,
        7,
        8,
        9,
        10,
        11,
        12,
        13,
        14,
        15,
        16,
        17,
        18,
        19,
        20,
        21,
        22,
        23,
        24,
        25,
        26,
        27
      ],
      "matrix": [
        1.0,
        0.0,
        0.0,
        0.0,
        0.0,
        -4.371139006309477e-08,
        -0.999999999999999,
        0.0,
        0.0,
        0.999999999999999,
        -4.371139006309477e-08,
        0.0,
        0.0,
        0.0,
        0.0,
        1.0
      ],
      "name": "tripo_node_9b20fffe"
    },
    {
      "mesh": 0,
      "name": "tripo_node_9b20fffe_tripo_mat_9b20fffe_0"
    },
    {
      "mesh": 1,
      "name": "tripo_node_9b20fffe_tripo_mat_9b20fffe_0"
    },
    {
      "mesh": 2,
      "name": "tripo_node_9b20fffe_tripo_mat_9b20fffe_0"
    },
    {
      "mesh": 3,
      "name": "tripo_node_9b20fffe_tripo_mat_9b20fffe_0"
    },
    {
      "mesh": 4,
      "name": "tripo_node_9b20fffe_tripo_mat_9b20fffe_0"
    },
    {
      "mesh": 5,
      "name": "tripo_node_9b20fffe_tripo_mat_9b20fffe_0"
    },
    {
      "mesh": 6,
      "name": "tripo_node_9b20fffe_tripo_mat_9b20fffe_0"
    },
    {
      "mesh": 7,
      "name": "tripo_node_9b20fffe_tripo_mat_9b20fffe_0"
    },
    {
      "mesh": 8,
      "name": "tripo_node_9b20fffe_tripo_mat_9b20fffe_0"
    },
    {
      "mesh": 9,
      "name": "tripo_node_9b20fffe_tripo_mat_9b20fffe_0"
    },
    {
      "mesh": 10,
      "name": "tripo_node_9b20fffe_tripo_mat_9b20fffe_0"
    },
    {
      "mesh": 11,
      "name": "tripo_node_9b20fffe_tripo_mat_9b20fffe_0"
    },
    {
      "mesh": 12,
      "name": "tripo_node_9b20fffe_tripo_mat_9b20fffe_0"
    },
    {
      "mesh": 13,
      "name": "tripo_node_9b20fffe_tripo_mat_9b20fffe_0"
    },
    {
      "mesh": 14,
      "name": "tripo_node_9b20fffe_tripo_mat_9b20fffe_0"
    },
    {
      "mesh": 15,
      "name": "tripo_node_9b20fffe_tripo_mat_9b20fffe_0"
    },
    {
      "mesh": 16,
      "name": "tripo_node_9b20fffe_tripo_mat_9b20fffe_0"
    },
    {
      "mesh": 17,
      "name": "tripo_node_9b20fffe_tripo_mat_9b20fffe_0"
    },
    {
      "mesh": 18,
      "name": "tripo_node_9b20fffe_tripo_mat_9b20fffe_0"
    },
    {
      "mesh": 19,
      "name": "tripo_node_9b20fffe_tripo_mat_9b20fffe_0"
    },
    {
      "mesh": 20,
      "name": "tripo_node_9b20fffe_tripo_mat_9b20fffe_0"
    },
    {
      "mesh": 21,
      "name": "tripo_node_9b20fffe_tripo_mat_9b20fffe_0"
    },
    {
      "mesh": 22,
      "name": "tripo_node_9b20fffe_tripo_mat_9b20fffe_0"
    },
    {
      "mesh": 23,
      "name": "tripo_node_9b20fffe_tripo_mat_9b20fffe_0"
    }
  ],
  "samplers": [
    {
      "magFilter": 9729,
      "minFilter": 9987,
      "wrapS": 10497,
      "wrapT": 10497
    }
  ],
  "scene": 0,
  "scenes": [
    {
      "name": "Sketchfab_Scene",
      "nodes": [
        0
      ]
    }
  ],
  "textures": [
    {
      "sampler": 0,
      "source": 0
    },
    {
      "sampler": 0,
      "source": 1
    },
    {
      "sampler": 0,
      "source": 2
    }
  ]
}
