{
  "accessors": [
    {
      "bufferView": 2,
      "componentType": 5126,
      "count": 1569,
      "max": [
        -0.3985080122947693,
        0.0887020006775856,
        0.6813349723815918
      ],
      "min": [
        -1.0191459655761719,
        -0.08914899826049805,
        0.06069700047373772
      ],
      "type": "VEC3"
    },
    {
      "bufferView": 2,
      "byteOffset": 18828,
      "componentType": 5126,
      "count": 1569,
      "max": [
        0.997008204460144,
        0.9969115257263184,
        0.9973670244216919
      ],
      "min": [
        -0.9972637891769409,
        -0.9969133138656616,
        -0.9968631863594055
      ],
      "type": "VEC3"
    },
    {
      "bufferView": 3,
      "componentType": 5126,
      "count": 1569,
      "max": [
        0.9990726113319397,
        0.9977113008499146,
        0.9961055517196655,
        -1.0
      ],
      "min": [
        -0.9961357712745667,
        -0.26320138573646545,
        -0.999092698097229,
        -1.0
      ],
      "type": "VEC4"
    },
    {
      "bufferView": 1,
      "componentType": 5126,
      "count": 1569,
      "max": [
        0.9923409819602966,
        0.9923310279846191
      ],
      "min": [
        0.007660000119358301,
        0.007666999939829111
      ],
      "type": "VEC2"
    },
    {
      "bufferView": 0,
      "componentType": 5125,
      "count": 7296,
      "type": "SCALAR"
    },
    {
      "bufferView": 2,
      "byteOffset": 37656,
      "componentType": 5126,
      "count": 426,
      "max": [
        -0.10158299654722214,
        0.1203719973564148,
        0.47844699025154114
      ],
      "min": [
        -0.8136360049247742,
        0.10425300151109695,
        0.2659960091114044
      ],
      "type": "VEC3"
    },
    {
      "bufferView": 2,
      "byteOffset": 42768,
      "componentType": 5126,
      "count": 426,
      "max": [
        0.999203085899353,
        0.999990701675415,
        0.9997261166572571
      ],
      "min": [
        -0.9987518787384033,
        -0.9999908208847046,
        -0.9998743534088135
      ],
      "type": "VEC3"
    },
    {
      "bufferView": 3,
      "byteOffset": 25104,
      "componentType": 5126,
      "count": 426,
      "max": [
        0.9997572898864746,
        0.031675614416599274,
        1.0,
        -1.0
      ],
      "min": [
        -0.999876856803894,
        -0.00440896674990654,
        -0.9998888969421387,
        -1.0
      ],
      "type": "VEC4"
    },
    {
      "bufferView": 1,
      "byteOffset": 12552,
      "componentType": 5126,
      "count": 426,
      "max": [
        62.98299026489258,
        0.9592130184173584
      ],
      "min": [
        -14.013799667358398,
        -0.038724999874830246
      ],
      "type": "VEC2"
    },
    {
      "bufferView": 0,
      "byteOffset": 29184,
      "componentType": 5125,
      "count": 1248,
      "type": "SCALAR"
    },
    {
      "bufferView": 2,
      "byteOffset": 47880,
      "componentType": 5126,
      "count": 30251,
      "max": [
        0.7953590154647827,
        0.3703399896621704,
        1.0371949672698975
      ],
      "min": [
        0.22308200597763062,
        -0.3650459945201874,
        0.6506569981575012
      ],
      "type": "VEC3"
    },
    {
      "bufferView": 2,
      "byteOffset": 410892,
      "componentType": 5126,
      "count": 30251,
      "max": [
        0.9997555613517761,
        0.999990701675415,
        0.9999639987945557
      ],
      "min": [
        -0.9999973773956299,
        -0.9999908208847046,
        -0.9999639987945557
      ],
      "type": "VEC3"
    },
    {
      "bufferView": 3,
      "byteOffset": 31920,
      "componentType": 5126,
      "count": 30251,
      "max": [
        0.9998604655265808,
        0.9999977946281433,
        0.9999896287918091,
        1.0
      ],
      "min": [
        -0.9999955892562866,
        -0.9999976754188538,
        -0.9999820590019226,
        -1.0
      ],
      "type": "VEC4"
    },
    {
      "bufferView": 1,
      "byteOffset": 15960,
      "componentType": 5126,
      "count": 30251,
      "max": [
        0.998432993888855,
        0.9977309703826904
      ],
      "min": [
        0.0005729999975301325,
        0.0006900000153109431
      ],
      "type": "VEC2"
    },
    {
      "bufferView": 0,
      "byteOffset": 34176,
      "componentType": 5125,
      "count": 102828,
      "type": "SCALAR"
    },
    {
      "bufferView": 2,
      "byteOffset": 773904,
      "componentType": 5126,
      "count": 9375,
      "max": [
        0.30048099160194397,
        0.12665000557899475,
        0.8650559782981873
      ],
      "min": [
        -0.5789579749107361,
        -0.17403000593185425,
        0.16693200170993805
      ],
      "type": "VEC3"
    },
    {
      "bufferView": 2,
      "byteOffset": 886404,
      "componentType": 5126,
      "count": 9375,
      "max": [
        0.999333381652832,
        0.999990701675415,
        0.9999639987945557
      ],
      "min": [
        -0.9997732043266296,
        -0.9999903440475464,
        -0.9999737739562988
      ],
      "type": "VEC3"
    },
    {
      "bufferView": 3,
      "byteOffset": 515936,
      "componentType": 5126,
      "count": 9375,
      "max": [
        0.9999490976333618,
        0.9999975562095642,
        0.9999700784683228,
        1.0
      ],
      "min": [
        -0.9996215105056763,
        -0.9999958276748657,
        -0.9999960660934448,
        -1.0
      ],
      "type": "VEC4"
    },
    {
      "bufferView": 1,
      "byteOffset": 257968,
      "componentType": 5126,
      "count": 9375,
      "max": [
        0.9965819716453552,
        0.9985330104827881
      ],
      "min": [
        0.0014979999978095293,
        4.999999873689376e-05
      ],
      "type": "VEC2"
    },
    {
      "bufferView": 0,
      "byteOffset": 445488,
      "componentType": 5125,
      "count": 22500,
      "type": "SCALAR"
    },
    {
      "bufferView": 2,
      "byteOffset": 998904,
      "componentType": 5126,
      "count": 1581,
      "max": [
        1.0137150287628174,
        0.06168999895453453,
        0.5887079834938049
      ],
      "min": [
        0.42437300086021423,
        -0.062199000269174576,
        -0.0006339999963529408
      ],
      "type": "VEC3"
    },
    {
      "bufferView": 2,
      "byteOffset": 1017876,
      "componentType": 5126,
      "count": 1581,
      "max": [
        0.9974094033241272,
        0.9972901344299316,
        0.9975733757019043
      ],
      "min": [
        -0.9969759583473206,
        -0.9972872138023376,
        -0.9972357749938965
      ],
      "type": "VEC3"
    },
    {
      "bufferView": 3,
      "byteOffset": 665936,
      "componentType": 5126,
      "count": 1581,
      "max": [
        0.9995943307876587,
        0.33152663707733154,
        0.9967317581176758,
        -1.0
      ],
      "min": [
        -0.9968967437744141,
        -0.9988031387329102,
        -0.9995750188827515,
        -1.0
      ],
      "type": "VEC4"
    },
    {
      "bufferView": 1,
      "byteOffset": 332968,
      "componentType": 5126,
      "count": 1581,
      "max": [
        0.9923409819602966,
        0.9923310279846191
      ],
      "min": [
        0.007660000119358301,
        0.007666999939829111
      ],
      "type": "VEC2"
    },
    {
      "bufferView": 0,
      "byteOffset": 535488,
      "componentType": 5125,
      "count": 7296,
      "type": "SCALAR"
    },
    {
      "bufferView": 2,
      "byteOffset": 1036848,
      "componentType": 5126,
      "count": 108,
      "max": [
        0.6423299908638,
        0.0751039981842041,
        0.9482740163803101
      ],
      "min": [
        0.594648003578186,
        -0.07041600346565247,
        0.8744530081748962
      ],
      "type": "VEC3"
    },
    {
      "bufferView": 2,
      "byteOffset": 1038144,
      "componentType": 5126,
      "count": 108,
      "max": [
        -0.47729218006134033,
        0.4370052218437195,
        0.8782856464385986
      ],
      "min": [
        -0.9873394966125488,
        -0.44482114911079407,
        0.15860635042190552
      ],
      "type": "VEC3"
    },
    {
      "bufferView": 1,
      "byteOffset": 345616,
      "componentType": 5126,
      "count": 108,
      "max": [
        0.9744439721107483,
        0.792165994644165
      ],
      "min": [
        0.02299400046467781,
        0.21088799834251404
      ],
      "type": "VEC2"
    },
    {
      "bufferView": 0,
      "byteOffset": 564672,
      "componentType": 5125,
      "count": 306,
      "type": "SCALAR"
    },
    {
      "bufferView": 2,
      "byteOffset": 1039440,
      "componentType": 5126,
      "count": 95,
      "max": [
        -0.10506899654865265,
        0.11432900279760361,
        0.4736059904098511
      ],
      "min": [
        -0.8113250136375427,
        0.10760899633169174,
        0.26858198642730713
      ],
      "type": "VEC3"
    },
    {
      "bufferView": 2,
      "byteOffset": 1040580,
      "componentType": 5126,
      "count": 95,
      "max": [
        0.004399957600980997,
        0.999990701675415,
        0.0040999604389071465
      ],
      "min": [
        0.0015999844763427973,
        -0.9999908208847046,
        -0.00029999722028151155
      ],
      "type": "VEC3"
    },
    {
      "bufferView": 3,
      "byteOffset": 691232,
      "componentType": 5126,
      "count": 95,
      "max": [
        0.9982563853263855,
        5.407454227679409e-05,
        0.9984428286552429,
        -1.0
      ],
      "min": [
        -0.06621839851140976,
        -0.004410120192915201,
        -0.9984344244003296,
        -1.0
      ],
      "type": "VEC4"
    },
    {
      "bufferView": 1,
      "byteOffset": 346480,
      "componentType": 5126,
      "count": 95,
      "max": [
        0.9859340190887451,
        0.9904839992523193
      ],
      "min": [
        0.01435799989849329,
        0.014910999685525894
      ],
      "type": "VEC2"
    },
    {
      "bufferView": 0,
      "byteOffset": 565896,
      "componentType": 5125,
      "count": 276,
      "type": "SCALAR"
    },
    {
      "bufferView": 2,
      "byteOffset": 1041720,
      "componentType": 5126,
      "count": 240,
      "max": [
        0.5388829708099365,
        0.3804509937763214,
        1.055853009223938
      ],
      "min": [
        0.46417099237442017,
        -0.37999001145362854,
        0.9995949864387512
      ],
      "type": "VEC3"
    },
    {
      "bufferView": 2,
      "byteOffset": 1044600,
      "componentType": 5126,
      "count": 240,
      "max": [
        0.9285745620727539,
        0.8928021192550659,
        -0.10239819437265396
      ],
      "min": [
        -0.23720501363277435,
        -0.8928021192550659,
        -0.9988855719566345
      ],
      "type": "VEC3"
    },
    {
      "bufferView": 1,
      "byteOffset": 347240,
      "componentType": 5126,
      "count": 240,
      "max": [
        2.9348270893096924,
        0.35225099325180054
      ],
      "min": [
        2.539807081222534,
        0.11056199669837952
      ],
      "type": "VEC2"
    },
    {
      "bufferView": 0,
      "byteOffset": 567000,
      "componentType": 5125,
      "count": 708,
      "type": "SCALAR"
    },
    {
      "bufferView": 2,
      "byteOffset": 1047480,
      "componentType": 5126,
      "count": 4376,
      "max": [
        0.8525050282478333,
        0.19531700015068054,
        1.100074052810669
      ],
      "min": [
        -0.9247400164604187,
        -0.19376200437545776,
        0.7211319804191589
      ],
      "type": "VEC3"
    },
    {
      "bufferView": 2,
      "byteOffset": 1099992,
      "componentType": 5126,
      "count": 4376,
      "max": [
        0.9917093515396118,
        0.999390721321106,
        0.9999167919158936
      ],
      "min": [
        -0.9987340569496155,
        -0.9993886947631836,
        -0.9742847084999084
      ],
      "type": "VEC3"
    },
    {
      "bufferView": 0,
      "byteOffset": 569832,
      "componentType": 5125,
      "count": 19143,
      "type": "SCALAR"
    },
    {
      "bufferView": 2,
      "byteOffset": 1152504,
      "componentType": 5126,
      "count": 3414,
      "max": [
        0.8437150120735168,
        0.1942490041255951,
        1.0708240270614624
      ],
      "min": [
        -0.9182940125465393,
        -0.1933320015668869,
        0.7189199924468994
      ],
      "type": "VEC3"
    },
    {
      "bufferView": 2,
      "byteOffset": 1193472,
      "componentType": 5126,
      "count": 3414,
      "max": [
        0.9985136985778809,
        0.999990701675415,
        0.9988866448402405
      ],
      "min": [
        -0.9998927116394043,
        -0.9999905824661255,
        -0.9985656142234802
      ],
      "type": "VEC3"
    },
    {
      "bufferView": 3,
      "byteOffset": 692752,
      "componentType": 5126,
      "count": 3414,
      "max": [
        0.9981127381324768,
        0.9999964237213135,
        0.9996622800827026,
        1.0
      ],
      "min": [
        -0.9994305372238159,
        -0.9999964833259583,
        -0.9995169043540955,
        -1.0
      ],
      "type": "VEC4"
    },
    {
      "bufferView": 1,
      "byteOffset": 349160,
      "componentType": 5126,
      "count": 3414,
      "max": [
        3.9990320205688477,
        0.9961820244789124
      ],
      "min": [
        3.0016300678253174,
        0.0028429999947547913
      ],
      "type": "VEC2"
    },
    {
      "bufferView": 0,
      "byteOffset": 646404,
      "componentType": 5125,
      "count": 11622,
      "type": "SCALAR"
    },
    {
      "bufferView": 2,
      "byteOffset": 1234440,
      "componentType": 5126,
      "count": 40026,
      "max": [
        0.8916839957237244,
        0.24091899394989014,
        1.0806130170822144
      ],
      "min": [
        -0.9254599809646606,
        -0.23949399590492249,
        0.12972499430179596
      ],
      "type": "VEC3"
    },
    {
      "bufferView": 2,
      "byteOffset": 1714752,
      "componentType": 5126,
      "count": 40026,
      "max": [
        0.9999973773956299,
        0.999990701675415,
        0.9999737739562988
      ],
      "min": [
        -0.9999737739562988,
        -0.9999905824661255,
        -0.9998927116394043
      ],
      "type": "VEC3"
    },
    {
      "bufferView": 1,
      "byteOffset": 376472,
      "componentType": 5126,
      "count": 40026,
      "max": [
        0.9995520114898682,
        0.998652994632721
      ],
      "min": [
        0.0012659999774768949,
        0.0010130000300705433
      ],
      "type": "VEC2"
    },
    {
      "bufferView": 0,
      "byteOffset": 692892,
      "componentType": 5125,
      "count": 192234,
      "type": "SCALAR"
    },
    {
      "bufferView": 2,
      "byteOffset": 2195064,
      "componentType": 5126,
      "count": 248,
      "max": [
        -0.993133008480072,
        0.18248499929904938,
        0.8954690098762512
      ],
      "min": [
        -1.0209039449691772,
        -0.1813039928674698,
        0.8457880020141602
      ],
      "type": "VEC3"
    },
    {
      "bufferView": 2,
      "byteOffset": 2198040,
      "componentType": 5126,
      "count": 248,
      "max": [
        -0.16489392518997192,
        0.9630147814750671,
        0.9780848622322083
      ],
      "min": [
        -0.9988855719566345,
        -0.9630147814750671,
        -0.9810364842414856
      ],
      "type": "VEC3"
    },
    {
      "bufferView": 1,
      "byteOffset": 696680,
      "componentType": 5126,
      "count": 248,
      "max": [
        2.9365150928497314,
        0.2887229919433594
      ],
      "min": [
        2.00839900970459,
        0.0037499999161809683
      ],
      "type": "VEC2"
    },
    {
      "bufferView": 0,
      "byteOffset": 1461828,
      "componentType": 5125,
      "count": 918,
      "type": "SCALAR"
    },
    {
      "bufferView": 2,
      "byteOffset": 2201016,
      "componentType": 5126,
      "count": 147,
      "max": [
        -1.0176700353622437,
        0.11291000247001648,
        0.8537399768829346
      ],
      "min": [
        -1.124464988708496,
        -0.11258099973201752,
        0.6505529880523682
      ],
      "type": "VEC3"
    },
    {
      "bufferView": 2,
      "byteOffset": 2202780,
      "componentType": 5126,
      "count": 147,
      "max": [
        0.8896779417991638,
        1.0,
        0.8896779417991638
      ],
      "min": [
        -0.9974976181983948,
        -1.0,
        -0.8896779417991638
      ],
      "type": "VEC3"
    },
    {
      "bufferView": 1,
      "byteOffset": 698664,
      "componentType": 5126,
      "count": 147,
      "max": [
        0.8061140179634094,
        0.4593470096588135
      ],
      "min": [
        0.0008120000129565597,
        0.001344999996945262
      ],
      "type": "VEC2"
    },
    {
      "bufferView": 0,
      "byteOffset": 1465500,
      "componentType": 5125,
      "count": 564,
      "type": "SCALAR"
    },
    {
      "bufferView": 2,
      "byteOffset": 2204544,
      "componentType": 5126,
      "count": 3960,
      "max": [
        -0.804295003414154,
        0.18248499929904938,
        1.010638952255249
      ],
      "min": [
        -1.1197619438171387,
        -0.1813039928674698,
        0.6580410003662109
      ],
      "type": "VEC3"
    },
    {
      "bufferView": 2,
      "byteOffset": 2252064,
      "componentType": 5126,
      "count": 3960,
      "max": [
        0.9988855719566345,
        1.0,
        0.9987308382987976
      ],
      "min": [
        -0.9999696016311646,
        -1.0,
        -0.9998767375946045
      ],
      "type": "VEC3"
    },
    {
      "bufferView": 3,
      "byteOffset": 747376,
      "componentType": 5126,
      "count": 3960,
      "max": [
        0.9988805055618286,
        1.0,
        0.9984503984451294,
        1.0
      ],
      "min": [
        -0.9993230104446411,
        -1.0,
        -0.9997346997261047,
        -1.0
      ],
      "type": "VEC4"
    },
    {
      "bufferView": 1,
      "byteOffset": 699840,
      "componentType": 5126,
      "count": 3960,
      "max": [
        4.997511863708496,
        0.9977430105209351
      ],
      "min": [
        4.001269817352295,
        0.0012700000079348683
      ],
      "type": "VEC2"
    },
    {
      "bufferView": 0,
      "byteOffset": 1467756,
      "componentType": 5125,
      "count": 13062,
      "type": "SCALAR"
    },
    {
      "bufferView": 2,
      "byteOffset": 2299584,
      "componentType": 5126,
      "count": 65532,
      "max": [
        0.8892080187797546,
        0.23642799258232117,
        1.0726499557495117
      ],
      "min": [
        -0.9222670197486877,
        -0.23113299906253815,
        0.13152800500392914
      ],
      "type": "VEC3"
    },
    {
      "bufferView": 2,
      "byteOffset": 3085968,
      "componentType": 5126,
      "count": 65532,
      "max": [
        0.9999973773956299,
        0.9999923706054688,
        0.999997615814209
      ],
      "min": [
        -0.9999973773956299,
        -0.9999926090240479,
        -0.9999973773956299
      ],
      "type": "VEC3"
    },
    {
      "bufferView": 3,
      "byteOffset": 810736,
      "componentType": 5126,
      "count": 65532,
      "max": [
        0.9999999403953552,
        0.999998152256012,
        1.0,
        1.0
      ],
      "min": [
        -0.9999998807907104,
        -0.9999978542327881,
        -0.9999998807907104,
        -1.0
      ],
      "type": "VEC4"
    },
    {
      "bufferView": 1,
      "byteOffset": 731520,
      "componentType": 5126,
      "count": 65532,
      "max": [
        0.9997760057449341,
        0.9987289905548096
      ],
      "min": [
        0.0006619999767281115,
        0.00014800000644754618
      ],
      "type": "VEC2"
    },
    {
      "bufferView": 0,
      "byteOffset": 1520004,
      "componentType": 5125,
      "count": 217161,
      "type": "SCALAR"
    },
    {
      "bufferView": 2,
      "byteOffset": 3872352,
      "componentType": 5126,
      "count": 4398,
      "max": [
        0.7933480143547058,
        0.28621500730514526,
        0.860131025314331
      ],
      "min": [
        -0.7439060211181641,
        -0.28121399879455566,
        0.1923390030860901
      ],
      "type": "VEC3"
    },
    {
      "bufferView": 2,
      "byteOffset": 3925128,
      "componentType": 5126,
      "count": 4398,
      "max": [
        0.9999973773956299,
        0.9999908208847046,
        0.9999639987945557
      ],
      "min": [
        -0.9999737739562988,
        -0.9999908208847046,
        -0.9999973773956299
      ],
      "type": "VEC3"
    },
    {
      "bufferView": 3,
      "byteOffset": 1859248,
      "componentType": 5126,
      "count": 4398,
      "max": [
        0.9999889731407166,
        0.9999980330467224,
        0.9999898076057434,
        1.0
      ],
      "min": [
        -0.999995768070221,
        -0.9999978542327881,
        -0.9999968409538269,
        -1.0
      ],
      "type": "VEC4"
    },
    {
      "bufferView": 1,
      "byteOffset": 1255776,
      "componentType": 5126,
      "count": 4398,
      "max": [
        0.9997760057449341,
        0.9987289905548096
      ],
      "min": [
        0.001028000027872622,
        0.003317000111564994
      ],
      "type": "VEC2"
    },
    {
      "bufferView": 0,
      "byteOffset": 2388648,
      "componentType": 5125,
      "count": 11574,
      "type": "SCALAR"
    },
    {
      "bufferView": 2,
      "byteOffset": 3977904,
      "componentType": 5126,
      "count": 3512,
      "max": [
        0.5475299954414368,
        0.39010098576545715,
        1.084736943244934
      ],
      "min": [
        0.44429901242256165,
        -0.38939398527145386,
        0.9775300025939941
      ],
      "type": "VEC3"
    },
    {
      "bufferView": 2,
      "byteOffset": 4020048,
      "componentType": 5126,
      "count": 3512,
      "max": [
        0.9978963136672974,
        0.9993804693222046,
        0.9936069846153259
      ],
      "min": [
        -0.9995966553688049,
        -0.9993804693222046,
        -0.9992282390594482
      ],
      "type": "VEC3"
    },
    {
      "bufferView": 3,
      "byteOffset": 1929616,
      "componentType": 5126,
      "count": 3512,
      "max": [
        0.9969473481178284,
        0.9990968108177185,
        0.9991284608840942,
        1.0
      ],
      "min": [
        -0.9999023675918579,
        -0.9980109930038452,
        -0.9735991954803467,
        -1.0
      ],
      "type": "VEC4"
    },
    {
      "bufferView": 1,
      "byteOffset": 1290960,
      "componentType": 5126,
      "count": 3512,
      "max": [
        4.998773097991943,
        0.9981610178947449
      ],
      "min": [
        4.765035152435303,
        0.8404009938240051
      ],
      "type": "VEC2"
    },
    {
      "bufferView": 0,
      "byteOffset": 2434944,
      "componentType": 5125,
      "count": 12900,
      "type": "SCALAR"
    },
    {
      "bufferView": 2,
      "byteOffset": 4062192,
      "componentType": 5126,
      "count": 44,
      "max": [
        0.47200798988342285,
        0.38902100920677185,
        1.081449031829834
      ],
      "min": [
        0.44768598675727844,
        -0.3878610134124756,
        0.9999139904975891
      ],
      "type": "VEC3"
    },
    {
      "bufferView": 2,
      "byteOffset": 4062720,
      "componentType": 5126,
      "count": 44,
      "max": [
        -0.9602765440940857,
        0.0787980780005455,
        0.267693430185318
      ],
      "min": [
        -0.9603098630905151,
        -0.0787980780005455,
        0.26760274171829224
      ],
      "type": "VEC3"
    },
    {
      "bufferView": 1,
      "byteOffset": 1319056,
      "componentType": 5126,
      "count": 44,
      "max": [
        0.9959139823913574,
        0.7989550232887268
      ],
      "min": [
        0.003237999975681305,
        0.21386300027370453
      ],
      "type": "VEC2"
    },
    {
      "bufferView": 0,
      "byteOffset": 2486544,
      "componentType": 5125,
      "count": 120,
      "type": "SCALAR"
    },
    {
      "bufferView": 2,
      "byteOffset": 4063248,
      "componentType": 5126,
      "count": 10536,
      "max": [
        -0.5604140162467957,
        0.15891499817371368,
        1.002432942390442
      ],
      "min": [
        -0.9664170145988464,
        -0.15330800414085388,
        0.7993720173835754
      ],
      "type": "VEC3"
    },
    {
      "bufferView": 2,
      "byteOffset": 4189680,
      "componentType": 5126,
      "count": 10536,
      "max": [
        0.9995594620704651,
        0.999990701675415,
        0.9997555613517761
      ],
      "min": [
        -0.9998369812965393,
        -0.9999908208847046,
        -0.9998743534088135
      ],
      "type": "VEC3"
    },
    {
      "bufferView": 3,
      "byteOffset": 1985808,
      "componentType": 5126,
      "count": 10536,
      "max": [
        0.9998985528945923,
        1.0,
        0.9981843829154968,
        1.0
      ],
      "min": [
        -0.9985799789428711,
        -1.0,
        -0.9997978210449219,
        -1.0
      ],
      "type": "VEC4"
    },
    {
      "bufferView": 1,
      "byteOffset": 1319408,
      "componentType": 5126,
      "count": 10536,
      "max": [
        0.9995149970054626,
        0.9975559711456299
      ],
      "min": [
        0.003613000037148595,
        0.002882000058889389
      ],
      "type": "VEC2"
    },
    {
      "bufferView": 0,
      "byteOffset": 2487024,
      "componentType": 5125,
      "count": 25254,
      "type": "SCALAR"
    },
    {
      "bufferView": 2,
      "byteOffset": 4316112,
      "componentType": 5126,
      "count": 9034,
      "max": [
        0.9476310014724731,
        0.08492299914360046,
        0.60664302110672
      ],
      "min": [
        -0.9446439743041992,
        -0.08492299914360046,
        0.065140001475811
      ],
      "type": "VEC3"
    },
    {
      "bufferView": 2,
      "byteOffset": 4424520,
      "componentType": 5126,
      "count": 9034,
      "max": [
        0.9999973773956299,
        0.9999915361404419,
        0.9999973773956299
      ],
      "min": [
        -0.9999973773956299,
        -0.9999908208847046,
        -0.9999998807907104
      ],
      "type": "VEC3"
    },
    {
      "bufferView": 3,
      "byteOffset": 2154384,
      "componentType": 5126,
      "count": 9034,
      "max": [
        0.9999785423278809,
        1.0,
        0.9999998807907104,
        -1.0
      ],
      "min": [
        -0.9999936819076538,
        -1.0,
        -0.9999960660934448,
        -1.0
      ],
      "type": "VEC4"
    },
    {
      "bufferView": 1,
      "byteOffset": 1403696,
      "componentType": 5126,
      "count": 9034,
      "max": [
        0.9990249872207642,
        0.9970729947090149
      ],
      "min": [
        0.002191999927163124,
        0.001075000036507845
      ],
      "type": "VEC2"
    },
    {
      "bufferView": 0,
      "byteOffset": 2588040,
      "componentType": 5125,
      "count": 21513,
      "type": "SCALAR"
    },
    {
      "bufferView": 2,
      "byteOffset": 4532928,
      "componentType": 5126,
      "count": 1632,
      "max": [
        0.8659909963607788,
        0.08178099989891052,
        0.4977020025253296
      ],
      "min": [
        -0.8359500169754028,
        -0.08178099989891052,
        0.14940500259399414
      ],
      "type": "VEC3"
    },
    {
      "bufferView": 2,
      "byteOffset": 4552512,
      "componentType": 5126,
      "count": 1632,
      "max": [
        1.0,
        1.0,
        1.0
      ],
      "min": [
        -1.0,
        -1.0,
        -1.0
      ],
      "type": "VEC3"
    },
    {
      "bufferView": 3,
      "byteOffset": 2298928,
      "componentType": 5126,
      "count": 1632,
      "max": [
        1.0,
        0.00010381992615293711,
        1.0,
        1.0
      ],
      "min": [
        -1.0,
        -0.00010381674655945972,
        -1.0,
        -1.0
      ],
      "type": "VEC4"
    },
    {
      "bufferView": 1,
      "byteOffset": 1475968,
      "componentType": 5126,
      "count": 1632,
      "max": [
        0.9916989803314209,
        0.9399110078811646
      ],
      "min": [
        0.006701999809592962,
        0.007323999889194965
      ],
      "type": "VEC2"
    },
    {
      "bufferView": 0,
      "byteOffset": 2674092,
      "componentType": 5125,
      "count": 4224,
      "type": "SCALAR"
    }
  ],
  "asset": {
    "extras": {
      "author": "Gratisphile (https://sketchfab.com/brainlesszombie5)",
      "license": "CC-BY-4.0 (http://creativecommons.org/licenses/by/4.0/)",
      "source": "https://sketchfab.com/3d-models/2008-ducati-1098r-41b7b593d8444730b1256660a236cb3d",
      "title": "2008 Ducati 1098R"
    },
    "generator": "Sketchfab-17.15.0",
    "version": "2.0"
  },
  "bufferViews": [
    {
      "buffer": 0,
      "byteLength": 2690988,
      "name": "floatBufferViews",
      "target": 34963
    },
    {
      "buffer": 0,
      "byteLength": 1489024,
      "byteOffset": 2690988,
      "byteStride": 8,
      "name": "floatBufferViews",
      "target": 34962
    },
    {
      "buffer": 0,
      "byteLength": 4572096,
      "byteOffset": 4180012,
      "byteStride": 12,
      "name": "floatBufferViews",
      "target": 34962
    },
    {
      "buffer": 0,
      "byteLength": 2325040,
      "byteOffset": 8752108,
      "byteStride": 16,
      "name": "floatBufferViews",
      "target": 34962
    }
  ],
  "buffers": [
    {
      "byteLength": 11077148,
      "uri": "scene.bin"
    }
  ],
  "extensionsUsed": [
    "KHR_materials_clearcoat"
  ],
  "images": [
    {
      "uri": "textures/backtyre_baseColor.png"
    },
    {
      "uri": "textures/backtyre_metallicRoughness.png"
    },
    {
      "uri": "textures/backtyre_normal.png"
    },
    {
      "uri": "textures/brakes_baseColor.png"
    },
    {
      "uri": "textures/brakes_metallicRoughness.png"
    },
    {
      "uri": "textures/brakes_normal.png"
    },
    {
      "uri": "textures/chain_baseColor.png"
    },
    {
      "uri": "textures/chain_metallicRoughness.png"
    },
    {
      "uri": "textures/chain_normal.png"
    },
    {
      "uri": "textures/cockpit_baseColor.png"
    },
    {
      "uri": "textures/cockpit_metallicRoughness.png"
    },
    {
      "uri": "textures/cockpit_normal.png"
    },
    {
      "uri": "textures/exmanifold_baseColor.png"
    },
    {
      "uri": "textures/exmanifold_metallicRoughness.png"
    },
    {
      "uri": "textures/exmanifold_normal.png"
    },
    {
      "uri": "textures/fronttyre_baseColor.png"
    },
    {
      "uri": "textures/fronttyre_metallicRoughness.png"
    },
    {
      "uri": "textures/fronttyre_normal.png"
    },
    {
      "uri": "textures/gauge_baseColor.png"
    },
    {
      "uri": "textures/gear_baseColor.png"
    },
    {
      "uri": "textures/gear_metallicRoughness.png"
    },
    {
      "uri": "textures/gear_normal.png"
    },
    {
      "uri": "textures/lights_baseColor.png"
    },
    {
      "uri": "textures/lights_metallicRoughness.png"
    },
    {
      "uri": "textures/lights_normal.png"
    },
    {
      "uri": "textures/livery_baseColor.png"
    },
    {
      "uri": "textures/livery_metallicRoughness.png"
    },
    {
      "uri": "textures/livery_clearcoat.png"
    },
    {
      "uri": "textures/livery_clearcoat_normal.png"
    },
    {
      "uri": "textures/mat_livery_homol_baseColor.png"
    },
    {
      "uri": "textures/mat_mechanics_homol_baseColor.png"
    },
    {
      "uri": "textures/mat_mechanics_homol_metallicRoughness.png"
    },
    {
      "uri": "textures/mat_mechanics_homol_normal.png"
    },
    {
      "uri": "textures/mechanics_baseColor.png"
    },
    {
      "uri": "textures/mechanics_metallicRoughness.png"
    },
    {
      "uri": "textures/mechanics_normal.png"
    },
    {
      "uri": "textures/mechanics_clearcoat.png"
    },
    {
      "uri": "textures/mechanics_clearcoat_normal.png"
    },
    {
      "uri": "textures/mirror_baseColor.png"
    },
    {
      "uri": "textures/mirror_normal.png"
    },
    {
      "uri": "textures/muffler_baseColor.png"
    },
    {
      "uri": "textures/muffler_metallicRoughness.png"
    },
    {
      "uri": "textures/muffler_normal.png"
    },
    {
      "uri": "textures/rims_baseColor.png"
    },
    {
      "uri": "textures/rims_metallicRoughness.png"
    },
    {
      "uri": "textures/rims_normal.png"
    }
  ],
  "materials": [
    {
      "doubleSided": true,
      "name": "backtyre",
      "normalTexture": {
        "index": 2
      },
      "pbrMetallicRoughness": {
        "baseColorTexture": {
          "index": 0
        },
        "metallicRoughnessTexture": {
          "index": 1
        }
      }
    },
    {
      "doubleSided": true,
      "name": "brakes",
      "normalTexture": {
        "index": 5
      },
      "pbrMetallicRoughness": {
        "baseColorTexture": {
          "index": 3
        },
        "metallicRoughnessTexture": {
          "index": 4
        }
      }
    },
    {
      "doubleSided": true,
      "name": "chain",
      "normalTexture": {
        "index": 8
      },
      "pbrMetallicRoughness": {
        "baseColorTexture": {
          "index": 6
        },
        "metallicRoughnessTexture": {
          "index": 7
        }
      }
    },
    {
      "doubleSided": true,
      "name": "cockpit",
      "normalTexture": {
        "index": 11
      },
      "pbrMetallicRoughness": {
        "baseColorTexture": {
          "index": 9
        },
        "metallicRoughnessTexture": {
          "index": 10
        }
      }
    },
    {
      "doubleSided": true,
      "name": "exmanifold",
      "normalTexture": {
        "index": 14
      },
      "pbrMetallicRoughness": {
        "baseColorTexture": {
          "index": 12
        },
        "metallicRoughnessTexture": {
          "index": 13
        }
      }
    },
    {
      "doubleSided": true,
      "name": "fronttyre",
      "normalTexture": {
        "index": 17
      },
      "pbrMetallicRoughness": {
        "baseColorTexture": {
          "index": 15
        },
        "metallicRoughnessTexture": {
          "index": 16
        },
        "roughnessFactor": 0.8011823178082373
      }
    },
    {
      "doubleSided": true,
      "name": "gauge",
      "pbrMetallicRoughness": {
        "baseColorTexture": {
          "index": 18
        },
        "metallicFactor": 0.0,
        "roughnessFactor": 0.8011823178082373
      }
    },
    {
      "doubleSided": true,
      "name": "gear",
      "normalTexture": {
        "index": 21
      },
      "pbrMetallicRoughness": {
        "baseColorTexture": {
          "index": 19
        },
        "metallicRoughnessTexture": {
          "index": 20
        }
      }
    },
    {
      "alphaMode": "BLEND",
      "doubleSided": true,
      "extensions": {
        "KHR_materials_clearcoat": {
          "clearcoatFactor": 1.0,
          "clearcoatRoughnessFactor": 0.04
        }
      },
      "name": "glass",
      "pbrMetallicRoughness": {
        "baseColorFactor": [
          0.0,
          0.0,
          0.0,
          0.8673504725564644
        ],
        "metallicFactor": 0.0,
        "roughnessFactor": 0.8011823178082373
      }
    },
    {
      "alphaMode": "BLEND",
      "doubleSided": true,
      "extensions": {
        "KHR_materials_clearcoat": {
          "clearcoatFactor": 1.0,
          "clearcoatRoughnessFactor": 0.04
        }
      },
      "name": "glass.001",
      "pbrMetallicRoughness": {
        "baseColorFactor": [
          0.0,
          0.0,
          0.0,
          0.7099365936895924
        ],
        "metallicFactor": 0.0
      }
    },
    {
      "doubleSided": true,
      "name": "lights",
      "normalTexture": {
        "index": 24
      },
      "pbrMetallicRoughness": {
        "baseColorTexture": {
          "index": 22
        },
        "metallicRoughnessTexture": {
          "index": 23
        }
      }
    },
    {
      "doubleSided": true,
      "extensions": {
        "KHR_materials_clearcoat": {
          "clearcoatFactor": 1.0,
          "clearcoatNormalTexture": {
            "index": 28
          },
          "clearcoatRoughnessFactor": 0.04,
          "clearcoatTexture": {
            "index": 27
          }
        }
      },
      "name": "livery",
      "pbrMetallicRoughness": {
        "baseColorTexture": {
          "index": 25
        },
        "metallicRoughnessTexture": {
          "index": 26
        }
      }
    },
    {
      "alphaMode": "BLEND",
      "doubleSided": true,
      "extensions": {
        "KHR_materials_clearcoat": {
          "clearcoatFactor": 1.0,
          "clearcoatRoughnessFactor": 0.04
        }
      },
      "name": "mat_glass_homol",
      "pbrMetallicRoughness": {
        "baseColorFactor": [
          0.0,
          0.0,
          0.0,
          0.7917918107003658
        ],
        "metallicFactor": 0.0,
        "roughnessFactor": 0.8011823178082373
      }
    },
    {
      "doubleSided": true,
      "name": "mat_livery_homol",
      "pbrMetallicRoughness": {
        "baseColorTexture": {
          "index": 29
        },
        "metallicFactor": 0.0,
        "roughnessFactor": 0.9763879181699692
      }
    },
    {
      "doubleSided": true,
      "name": "mat_mechanics_homol",
      "normalTexture": {
        "index": 32
      },
      "pbrMetallicRoughness": {
        "baseColorTexture": {
          "index": 30
        },
        "metallicRoughnessTexture": {
          "index": 31
        }
      }
    },
    {
      "doubleSided": true,
      "extensions": {
        "KHR_materials_clearcoat": {
          "clearcoatFactor": 1.0,
          "clearcoatNormalTexture": {
            "index": 37
          },
          "clearcoatRoughnessFactor": 0.04,
          "clearcoatTexture": {
            "index": 36
          }
        }
      },
      "name": "mechanics",
      "normalTexture": {
        "index": 35
      },
      "pbrMetallicRoughness": {
        "baseColorTexture": {
          "index": 33
        },
        "metallicRoughnessTexture": {
          "index": 34
        }
      }
    },
    {
      "doubleSided": true,
      "name": "mirror",
      "normalTexture": {
        "index": 39
      },
      "pbrMetallicRoughness": {
        "baseColorTexture": {
          "index": 38
        },
        "metallicFactor": 0.0,
        "roughnessFactor": 0.49155317126000364
      }
    },
    {
      "doubleSided": true,
      "name": "mirrorview",
      "pbrMetallicRoughness": {
        "baseColorFactor": [
          0.8,
          0.8,
          0.8,
          1.0
        ],
        "roughnessFactor": 0.0
      }
    },
    {
      "doubleSided": true,
      "name": "muffler",
      "normalTexture": {
        "index": 42
      },
      "pbrMetallicRoughness": {
        "baseColorTexture": {
          "index": 40
        },
        "metallicRoughnessTexture": {
          "index": 41
        }
      }
    },
    {
      "doubleSided": true,
      "name": "rims",
      "normalTexture": {
        "index": 45
      },
      "pbrMetallicRoughness": {
        "baseColorTexture": {
          "index": 43
        },
        "metallicRoughnessTexture": {
          "index": 44
        }
      }
    }
  ],
  "meshes": [
    {
      "name": "Object_0",
      "primitives": [
        {
          "attributes": {
            "NORMAL": 1,
            "POSITION": 0,
            "TANGENT": 2,
            "TEXCOORD_0": 3
          },
          "indices": 4,
          "material": 0,
          "mode": 4
        }
      ]
    },
    {
      "name": "Object_1",
      "primitives": [
        {
          "attributes": {
            "NORMAL": 6,
            "POSITION": 5,
            "TANGENT": 7,
            "TEXCOORD_0": 8
          },
          "indices": 9,
          "material": 2,
          "mode": 4
        }
      ]
    },
    {
      "name": "Object_2",
      "primitives": [
        {
          "attributes": {
            "NORMAL": 11,
            "POSITION": 10,
            "TANGENT": 12,
            "TEXCOORD_0": 13
          },
          "indices": 14,
          "material": 3,
          "mode": 4
        }
      ]
    },
    {
      "name": "Object_3",
      "primitives": [
        {
          "attributes": {
            "NORMAL": 16,
            "POSITION": 15,
            "TANGENT": 17,
            "TEXCOORD_0": 18
          },
          "indices": 19,
          "material": 4,
          "mode": 4
        }
      ]
    },
    {
      "name": "Object_4",
      "primitives": [
        {
          "attributes": {
            "NORMAL": 21,
            "POSITION": 20,
            "TANGENT": 22,
            "TEXCOORD_0": 23
          },
          "indices": 24,
          "material": 5,
          "mode": 4
        }
      ]
    },
    {
      "name": "Object_5",
      "primitives": [
        {
          "attributes": {
            "NORMAL": 26,
            "POSITION": 25,
            "TEXCOORD_0": 27
          },
          "indices": 28,
          "material": 6,
          "mode": 4
        }
      ]
    },
    {
      "name": "Object_6",
      "primitives": [
        {
          "attributes": {
            "NORMAL": 30,
            "POSITION": 29,
            "TANGENT": 31,
            "TEXCOORD_0": 32
          },
          "indices": 33,
          "material": 7,
          "mode": 4
        }
      ]
    },
    {
      "name": "Object_7",
      "primitives": [
        {
          "attributes": {
            "NORMAL": 35,
            "POSITION": 34,
            "TEXCOORD_0": 36
          },
          "indices": 37,
          "material": 8,
          "mode": 4
        }
      ]
    },
    {
      "name": "Object_8",
      "primitives": [
        {
          "attributes": {
            "NORMAL": 39,
            "POSITION": 38
          },
          "indices": 40,
          "material": 9,
          "mode": 4
        }
      ]
    },
    {
      "name": "Object_9",
      "primitives": [
        {
          "attributes": {
            "NORMAL": 42,
            "POSITION": 41,
            "TANGENT": 43,
            "TEXCOORD_0": 44
          },
          "indices": 45,
          "material": 10,
          "mode": 4
        }
      ]
    },
    {
      "name": "Object_10",
      "primitives": [
        {
          "attributes": {
            "NORMAL": 47,
            "POSITION": 46,
            "TEXCOORD_0": 48
          },
          "indices": 49,
          "material": 11,
          "mode": 4
        }
      ]
    },
    {
      "name": "Object_11",
      "primitives": [
        {
          "attributes": {
            "NORMAL": 51,
            "POSITION": 50,
            "TEXCOORD_0": 52
          },
          "indices": 53,
          "material": 12,
          "mode": 4
        }
      ]
    },
    {
      "name": "Object_12",
      "primitives": [
        {
          "attributes": {
            "NORMAL": 55,
            "POSITION": 54,
            "TEXCOORD_0": 56
          },
          "indices": 57,
          "material": 13,
          "mode": 4
        }
      ]
    },
    {
      "name": "Object_13",
      "primitives": [
        {
          "attributes": {
            "NORMAL": 59,
            "POSITION": 58,
            "TANGENT": 60,
            "TEXCOORD_0": 61
          },
          "indices": 62,
          "material": 14,
          "mode": 4
        }
      ]
    },
    {
      "name": "Object_14",
      "primitives": [
        {
          "attributes": {
            "NORMAL": 64,
            "POSITION": 63,
            "TANGENT": 65,
            "TEXCOORD_0": 66
          },
          "indices": 67,
          "material": 15,
          "mode": 4
        }
      ]
    },
    {
      "name": "Object_15",
      "primitives": [
        {
          "attributes": {
            "NORMAL": 69,
            "POSITION": 68,
            "TANGENT": 70,
            "TEXCOORD_0": 71
          },
          "indices": 72,
          "material": 15,
          "mode": 4
        }
      ]
    },
    {
      "name": "Object_16",
      "primitives": [
        {
          "attributes": {
            "NORMAL": 74,
            "POSITION": 73,
            "TANGENT": 75,
            "TEXCOORD_0": 76
          },
          "indices": 77,
          "material": 16,
          "mode": 4
        }
      ]
    },
    {
      "name": "Object_17",
      "primitives": [
        {
          "attributes": {
            "NORMAL": 79,
            "POSITION": 78,
            "TEXCOORD_0": 80
          },
          "indices": 81,
          "material": 17,
          "mode": 4
        }
      ]
    },
    {
      "name": "Object_18",
      "primitives": [
        {
          "attributes": {
            "NORMAL": 83,
            "POSITION": 82,
            "TANGENT": 84,
            "TEXCOORD_0": 85
          },
          "indices": 86,
          "material": 18,
          "mode": 4
        }
      ]
    },
    {
      "name": "Object_19",
      "primitives": [
        {
          "attributes": {
            "NORMAL": 88,
            "POSITION": 87,
            "TANGENT": 89,
            "TEXCOORD_0": 90
          },
          "indices": 91,
          "material": 19,
          "mode": 4
        }
      ]
    },
    {
      "name": "Object_20",
      "primitives": [
        {
          "attributes": {
            "NORMAL": 93,
            "POSITION": 92,
            "TANGENT": 94,
            "TEXCOORD_0": 95
          },
          "indices": 96,
          "material": 1,
          "mode": 4
        }
      ]
    }
  ],
  "nodes": [
    {
      "children": [
        1
      ],
      "matrix": [
        1.0,
        0.0,
        0.0,
        0.0,
        0.0,
        2.220446049250313e-16,
        -1.0,
        0.0,
        0.0,
        1.0,
        2.220446049250313e-16,
        0.0,
        0.0,
        0.0,
        0.0,
        1.0
      ],
      "name": "Sketchfab_model"
    },
    {
      "children": [
        2,
        3,
        4,
        5,
        6,
        7,
        8,
        9,
        10,
        11,
        12,
        13,
        14,
        15,
        16,
        17,
        18,
        19,
        20,
        21,
        22
      ],
      "name": "2008 Ducati 1098R.obj.cleaner.materialmerger.gles"
    },
    {
      "mesh": 0,
      "name": "Object_2"
    },
    {
      "mesh": 1,
      "name": "Object_3"
    },
    {
      "mesh": 2,
      "name": "Object_4"
    },
    {
      "mesh": 3,
      "name": "Object_5"
    },
    {
      "mesh": 4,
      "name": "Object_6"
    },
    {
      "mesh": 5,
      "name": "Object_7"
    },
    {
      "mesh": 6,
      "name": "Object_8"
    },
    {
      "mesh": 7,
      "name": "Object_9"
    },
    {
      "mesh": 8,
      "name": "Object_10"
    },
    {
      "mesh": 9,
      "name": "Object_11"
    },
    {
      "mesh": 10,
      "name": "Object_12"
    },
    {
      "mesh": 11,
      "name": "Object_13"
    },
    {
      "mesh": 12,
      "name": "Object_14"
    },
    {
      "mesh": 13,
      "name": "Object_15"
    },
    {
      "mesh": 14,
      "name": "Object_16"
    },
    {
      "mesh": 15,
      "name": "Object_17"
    },
    {
      "mesh": 16,
      "name": "Object_18"
    },
    {
      "mesh": 17,
      "name": "Object_19"
    },
    {
      "mesh": 18,
      "name": "Object_20"
    },
    {
      "mesh": 19,
      "name": "Object_21"
    },
    {
      "mesh": 20,
      "name": "Object_22"
    }
  ],
  "samplers": [
    {
      "magFilter": 9729,
      "minFilter": 9987,
      "wrapS": 10497,
      "wrapT": 10497
    }
  ],
  "scene": 0,
  "scenes": [
    {
      "name": "Sketchfab_Scene",
      "nodes": [
        0
      ]
    }
  ],
  "textures": [
    {
      "sampler": 0,
      "source": 0
    },
    {
      "sampler": 0,
      "source": 1
    },
    {
      "sampler": 0,
      "source": 2
    },
    {
      "sampler": 0,
      "source": 3
    },
    {
      "sampler": 0,
      "source": 4
    },
    {
      "sampler": 0,
      "source": 5
    },
    {
      "sampler": 0,
      "source": 6
    },
    {
      "sampler": 0,
      "source": 7
    },
    {
      "sampler": 0,
      "source": 8
    },
    {
      "sampler": 0,
      "source": 9
    },
    {
      "sampler": 0,
      "source": 10
    },
    {
      "sampler": 0,
      "source": 11
    },
    {
      "sampler": 0,
      "source": 12
    },
    {
      "sampler": 0,
      "source": 13
    },
    {
      "sampler": 0,
      "source": 14
    },
    {
      "sampler": 0,
      "source": 15
    },
    {
      "sampler": 0,
      "source": 16
    },
    {
      "sampler": 0,
      "source": 17
    },
    {
      "sampler": 0,
      "source": 18
    },
    {
      "sampler": 0,
      "source": 19
    },
    {
      "sampler": 0,
      "source": 20
    },
    {
      "sampler": 0,
      "source": 21
    },
    {
      "sampler": 0,
      "source": 22
    },
    {
      "sampler": 0,
      "source": 23
    },
    {
      "sampler": 0,
      "source": 24
    },
    {
      "sampler": 0,
      "source": 25
    },
    {
      "sampler": 0,
      "source": 26
    },
    {
      "sampler": 0,
      "source": 27
    },
    {
      "sampler": 0,
      "source": 28
    },
    {
      "sampler": 0,
      "source": 29
    },
    {
      "sampler": 0,
      "source": 30
    },
    {
      "sampler": 0,
      "source": 31
    },
    {
      "sampler": 0,
      "source": 32
    },
    {
      "sampler": 0,
      "source": 33
    },
    {
      "sampler": 0,
      "source": 34
    },
    {
      "sampler": 0,
      "source": 35
    },
    {
      "sampler": 0,
      "source": 36
    },
    {
      "sampler": 0,
      "source": 37
    },
    {
      "sampler": 0,
      "source": 38
    },
    {
      "sampler": 0,
      "source": 39
    },
    {
      "sampler": 0,
      "source": 40
    },
    {
      "sampler": 0,
      "source": 41
    },
    {
      "sampler": 0,
      "source": 42
    },
    {
      "sampler": 0,
      "source": 43
    },
    {
      "sampler": 0,
      "source": 44
    },
    {
      "sampler": 0,
      "source": 45
    }
  ]
}
