{
  "accessors": [
    {
      "bufferView": 2,
      "componentType": 5126,
      "count": 3791,
      "max": [
        461.3052062988281,
        1037.849609375,
        1408.933349609375
      ],
      "min": [
        -461.3052062988281,
        -1037.85009765625,
        1.2881850004196167
      ],
      "type": "VEC3"
    },
    {
      "bufferView": 2,
      "byteOffset": 45492,
      "componentType": 5126,
      "count": 3791,
      "max": [
        1.0,
        1.0,
        1.0
      ],
      "min": [
        -1.0,
        -0.9981796145439148,
        -0.9999939799308777
      ],
      "type": "VEC3"
    },
    {
      "bufferView": 3,
      "componentType": 5126,
      "count": 3791,
      "max": [
        0.9999996423721313,
        1.0,
        0.9999986886978149,
        1.0
      ],
      "min": [
        -1.0,
        -0.9999914765357971,
        -0.9999733567237854,
        -1.0
      ],
      "type": "VEC4"
    },
    {
      "bufferView": 1,
      "componentType": 5126,
      "count": 3791,
      "max": [
        0.9999859929084778,
        0.9958969950675964
      ],
      "min": [
        2.4000000848900527e-05,
        0.0020000000949949026
      ],
      "type": "VEC2"
    },
    {
      "bufferView": 0,
      "componentType": 5125,
      "count": 15318,
      "type": "SCALAR"
    }
  ],
  "asset": {
    "extras": {
      "author": "dima051983 (https://sketchfab.com/dima051983)",
      "license": "CC-BY-4.0 (http://creativecommons.org/licenses/by/4.0/)",
      "source": "https://sketchfab.com/3d-models/treadmill-tunturi-t85-327b6f6cb02c41df99a8d6f6b0796a74",
      "title": "Беговая дорожка. Treadmill Tunturi T85"
    },
    "generator": "Sketchfab-12.67.0",
    "version": "2.0"
  },
  "bufferViews": [
    {
      "buffer": 0,
      "byteLength": 61272,
      "name": "floatBufferViews",
      "target": 34963
    },
    {
      "buffer": 0,
      "byteLength": 30328,
      "byteOffset": 61272,
      "byteStride": 8,
      "name": "floatBufferViews",
      "target": 34962
    },
    {
      "buffer": 0,
      "byteLength": 90984,
      "byteOffset": 91600,
      "byteStride": 12,
      "name": "floatBufferViews",
      "target": 34962
    },
    {
      "buffer": 0,
      "byteLength": 60656,
      "byteOffset": 182584,
      "byteStride": 16,
      "name": "floatBufferViews",
      "target": 34962
    }
  ],
  "buffers": [
    {
      "byteLength": 243240,
      "uri": "scene.bin"
    }
  ],
  "images": [
    {
      "uri": "textures/wire_027027027_baseColor.jpeg"
    },
    {
      "uri": "textures/wire_027027027_metallicRoughness.png"
    },
    {
      "uri": "textures/wire_027027027_normal.png"
    }
  ],
  "materials": [
    {
      "doubleSided": true,
      "name": "wire_027027027",
      "normalTexture": {
        "index": 2
      },
      "occlusionTexture": {
        "index": 1,
        "strength": 0.5671661528920344
      },
      "pbrMetallicRoughness": {
        "baseColorTexture": {
          "index": 0
        },
        "metallicFactor": 0.37260061166542024,
        "metallicRoughnessTexture": {
          "index": 1
        }
      }
    }
  ],
  "meshes": [
    {
      "name": "Object_0",
      "primitives": [
        {
          "attributes": {
            "NORMAL": 1,
            "POSITION": 0,
            "TANGENT": 2,
            "TEXCOORD_0": 3
          },
          "indices": 4,
          "material": 0,
          "mode": 4
        }
      ]
    }
  ],
  "nodes": [
    {
      "children": [
        1
      ],
      "matrix": [
        1.0,
        0.0,
        0.0,
        0.0,
        0.0,
        2.220446049250313e-16,
        -1.0,
        0.0,
        0.0,
        1.0,
        2.220446049250313e-16,
        0.0,
        0.0,
        0.0,
        0.0,
        1.0
      ],
      "name": "Sketchfab_model"
    },
    {
      "children": [
        2
      ],
      "name": "Tunturi_T85_.obj.cleaner.materialmerger.gles"
    },
    {
      "mesh": 0,
      "name": "Object_2"
    }
  ],
  "samplers": [
    {
      "magFilter": 9729,
      "minFilter": 9987,
      "wrapS": 10497,
      "wrapT": 10497
    }
  ],
  "scene": 0,
  "scenes": [
    {
      "name": "Sketchfab_Scene",
      "nodes": [
        0
      ]
    }
  ],
  "textures": [
    {
      "sampler": 0,
      "source": 0
    },
    {
      "sampler": 0,
      "source": 1
    },
    {
      "sampler": 0,
      "source": 2
    }
  ]
}
