{
  "accessors": [
    {
      "bufferView": 2,
      "componentType": 5126,
      "count": 4239,
      "max": [
        45.491275787353516,
        200.0,
        45.49122619628906
      ],
      "min": [
        -63.51370620727539,
        -0.500011682510376,
        -45.49122619628906
      ],
      "type": "VEC3"
    },
    {
      "bufferView": 2,
      "byteOffset": 50868,
      "componentType": 5126,
      "count": 4239,
      "max": [
        1.0,
        1.0,
        1.0
      ],
      "min": [
        -1.0,
        -1.0,
        -1.0
      ],
      "type": "VEC3"
    },
    {
      "bufferView": 3,
      "componentType": 5126,
      "count": 4239,
      "max": [
        1.0,
        1.0,
        1.0,
        1.0
      ],
      "min": [
        -1.0,
        -1.0,
        -1.0,
        -1.0
      ],
      "type": "VEC4"
    },
    {
      "bufferView": 1,
      "componentType": 5126,
      "count": 4239,
      "max": [
        0.9951171875,
        0.99609375
      ],
      "min": [
        0.00390625,
        0.00439453125
      ],
      "type": "VEC2"
    },
    {
      "bufferView": 1,
      "byteOffset": 33912,
      "componentType": 5126,
      "count": 4239,
      "max": [
        0.9980325698852539,
        0.9978875517845154
      ],
      "min": [
        0.00390625,
        0.00390625
      ],
      "type": "VEC2"
    },
    {
      "bufferView": 0,
      "componentType": 5125,
      "count": 13005,
      "type": "SCALAR"
    },
    {
      "bufferView": 2,
      "byteOffset": 101736,
      "componentType": 5126,
      "count": 260,
      "max": [
        37.89397430419922,
        175.4297332763672,
        43.717586517333984
      ],
      "min": [
        -57.16153335571289,
        73.89083862304688,
        -43.717586517333984
      ],
      "type": "VEC3"
    },
    {
      "bufferView": 2,
      "byteOffset": 104856,
      "componentType": 5126,
      "count": 260,
      "max": [
        1.0,
        1.0,
        1.0
      ],
      "min": [
        -1.0,
        -1.0,
        -1.0
      ],
      "type": "VEC3"
    },
    {
      "bufferView": 3,
      "byteOffset": 67824,
      "componentType": 5126,
      "count": 260,
      "max": [
        1.0,
        0.9696770310401917,
        1.0,
        1.0
      ],
      "min": [
        -1.0,
        -1.0,
        -1.0,
        -1.0
      ],
      "type": "VEC4"
    },
    {
      "bufferView": 1,
      "byteOffset": 67824,
      "componentType": 5126,
      "count": 260,
      "max": [
        0.96875,
        0.76171875
      ],
      "min": [
        0.00390625,
        0.0322265625
      ],
      "type": "VEC2"
    },
    {
      "bufferView": 1,
      "byteOffset": 69904,
      "componentType": 5126,
      "count": 260,
      "max": [
        0.9976451396942139,
        0.9711933732032776
      ],
      "min": [
        0.00390625,
        0.00390625
      ],
      "type": "VEC2"
    },
    {
      "bufferView": 0,
      "byteOffset": 52020,
      "componentType": 5125,
      "count": 606,
      "type": "SCALAR"
    },
    {
      "bufferView": 2,
      "byteOffset": 107976,
      "componentType": 5126,
      "count": 14763,
      "max": [
        42.43947982788086,
        191.3297119140625,
        43.71797561645508
      ],
      "min": [
        -45.008644104003906,
        8.187784194946289,
        -43.71797561645508
      ],
      "type": "VEC3"
    },
    {
      "bufferView": 2,
      "byteOffset": 285132,
      "componentType": 5126,
      "count": 14763,
      "max": [
        1.0,
        1.0,
        1.0
      ],
      "min": [
        -1.0,
        -1.0,
        -1.0
      ],
      "type": "VEC3"
    },
    {
      "bufferView": 3,
      "byteOffset": 71984,
      "componentType": 5126,
      "count": 14763,
      "max": [
        1.0,
        1.0,
        1.0,
        1.0
      ],
      "min": [
        -1.0,
        -1.0,
        -1.0,
        -1.0
      ],
      "type": "VEC4"
    },
    {
      "bufferView": 1,
      "byteOffset": 71984,
      "componentType": 5126,
      "count": 14763,
      "max": [
        0.99609375,
        0.99609375
      ],
      "min": [
        0.00390625,
        0.00537109375
      ],
      "type": "VEC2"
    },
    {
      "bufferView": 1,
      "byteOffset": 190088,
      "componentType": 5126,
      "count": 14763,
      "max": [
        0.998045802116394,
        0.9980165958404541
      ],
      "min": [
        0.00390625,
        0.00390625
      ],
      "type": "VEC2"
    },
    {
      "bufferView": 0,
      "byteOffset": 54444,
      "componentType": 5125,
      "count": 41598,
      "type": "SCALAR"
    }
  ],
  "asset": {
    "extras": {
      "author": "GAMICO (https://sketchfab.com/gamico)",
      "license": "CC-BY-4.0 (http://creativecommons.org/licenses/by/4.0/)",
      "source": "https://sketchfab.com/3d-models/arcade-claw-machine-game-ready-prop-e1c6e135aa6c4b069c4b35be02a78144",
      "title": "Arcade Claw Machine | Game Ready Prop"
    },
    "generator": "Sketchfab-17.15.0",
    "version": "2.0"
  },
  "bufferViews": [
    {
      "buffer": 0,
      "byteLength": 220836,
      "name": "floatBufferViews",
      "target": 34963
    },
    {
      "buffer": 0,
      "byteLength": 308192,
      "byteOffset": 220836,
      "byteStride": 8,
      "name": "floatBufferViews",
      "target": 34962
    },
    {
      "buffer": 0,
      "byteLength": 462288,
      "byteOffset": 529028,
      "byteStride": 12,
      "name": "floatBufferViews",
      "target": 34962
    },
    {
      "buffer": 0,
      "byteLength": 308192,
      "byteOffset": 991316,
      "byteStride": 16,
      "name": "floatBufferViews",
      "target": 34962
    }
  ],
  "buffers": [
    {
      "byteLength": 1299508,
      "uri": "scene.bin"
    }
  ],
  "images": [
    {
      "uri": "textures/M_ClawMachine_01b_baseColor.png"
    },
    {
      "uri": "textures/M_ClawMachine_01b_metallicRoughness.png"
    },
    {
      "uri": "textures/M_ClawMachine_01b_emissive.png"
    },
    {
      "uri": "textures/M_ClawMachine_01b_normal.png"
    },
    {
      "uri": "textures/M_Glass_baseColor.png"
    },
    {
      "uri": "textures/M_Glass_metallicRoughness.png"
    },
    {
      "uri": "textures/M_Glass_emissive.png"
    },
    {
      "uri": "textures/M_Glass_normal.png"
    },
    {
      "uri": "textures/M_ClawMachine_01a_baseColor.png"
    },
    {
      "uri": "textures/M_ClawMachine_01a_metallicRoughness.png"
    },
    {
      "uri": "textures/M_ClawMachine_01a_normal.png"
    }
  ],
  "materials": [
    {
      "doubleSided": true,
      "emissiveFactor": [
        1.0,
        1.0,
        1.0
      ],
      "emissiveTexture": {
        "index": 2
      },
      "name": "M_ClawMachine_01b",
      "normalTexture": {
        "index": 3
      },
      "occlusionTexture": {
        "index": 1
      },
      "pbrMetallicRoughness": {
        "baseColorTexture": {
          "index": 0
        },
        "metallicRoughnessTexture": {
          "index": 1
        },
        "roughnessFactor": 0.6
      }
    },
    {
      "alphaMode": "BLEND",
      "doubleSided": true,
      "emissiveFactor": [
        1.0,
        1.0,
        1.0
      ],
      "emissiveTexture": {
        "index": 6
      },
      "name": "M_Glass",
      "normalTexture": {
        "index": 7
      },
      "occlusionTexture": {
        "index": 5
      },
      "pbrMetallicRoughness": {
        "baseColorFactor": [
          1.0,
          1.0,
          1.0,
          0.22970320306469813
        ],
        "baseColorTexture": {
          "index": 4
        },
        "metallicRoughnessTexture": {
          "index": 5
        },
        "roughnessFactor": 0.6
      }
    },
    {
      "doubleSided": true,
      "emissiveFactor": [
        1.0,
        1.0,
        1.0
      ],
      "emissiveTexture": {
        "index": 8
      },
      "name": "M_ClawMachine_01a",
      "normalTexture": {
        "index": 10
      },
      "occlusionTexture": {
        "index": 9
      },
      "pbrMetallicRoughness": {
        "baseColorTexture": {
          "index": 8
        },
        "metallicRoughnessTexture": {
          "index": 9
        },
        "roughnessFactor": 0.6
      }
    }
  ],
  "meshes": [
    {
      "name": "SM_ClawMachine_01a_LOD0_M_ClawMachine_01b_0",
      "primitives": [
        {
          "attributes": {
            "NORMAL": 1,
            "POSITION": 0,
            "TANGENT": 2,
            "TEXCOORD_0": 3,
            "TEXCOORD_1": 4
          },
          "indices": 5,
          "material": 0,
          "mode": 4
        }
      ]
    },
    {
      "name": "SM_ClawMachine_01a_LOD0_M_Glass_0",
      "primitives": [
        {
          "attributes": {
            "NORMAL": 7,
            "POSITION": 6,
            "TANGENT": 8,
            "TEXCOORD_0": 9,
            "TEXCOORD_1": 10
          },
          "indices": 11,
          "material": 1,
          "mode": 4
        }
      ]
    },
    {
      "name": "SM_ClawMachine_01a_LOD0_M_ClawMachine_01a_0",
      "primitives": [
        {
          "attributes": {
            "NORMAL": 13,
            "POSITION": 12,
            "TANGENT": 14,
            "TEXCOORD_0": 15,
            "TEXCOORD_1": 16
          },
          "indices": 17,
          "material": 2,
          "mode": 4
        }
      ]
    }
  ],
  "nodes": [
    {
      "children": [
        1
      ],
      "matrix": [
        1.0,
        0.0,
        0.0,
        0.0,
        0.0,
        2.220446049250313e-16,
        -1.0,
        0.0,
        0.0,
        1.0,
        2.220446049250313e-16,
        0.0,
        0.0,
        0.0,
        0.0,
        1.0
      ],
      "name": "Sketchfab_model"
    },
    {
      "children": [
        2
      ],
      "matrix": [
        0.009999999776482582,
        0.0,
        0.0,
        0.0,
        0.0,
        0.0,
        0.009999999776482582,
        0.0,
        0.0,
        -0.009999999776482582,
        0.0,
        0.0,
        0.0,
        0.0,
        0.0,
        1.0
      ],
      "name": "7bc9f31f6e344f28a6d74d55fc99833d.fbx"
    },
    {
      "children": [
        3
      ],
      "name": "RootNode"
    },
    {
      "children": [
        4
      ],
      "matrix": [
        -1.0,
        1.2246467991473535e-16,
        1.224646799147353e-16,
        0.0,
        1.2246467991473535e-16,
        1.0,
        1.2246467991473535e-16,
        0.0,
        -1.224646799147353e-16,
        1.2246467991473535e-16,
        -1.0,
        0.0,
        0.0,
        0.0,
        0.0,
        1.0
      ],
      "name": "SM_ClawMachine_01a0"
    },
    {
      "children": [
        5,
        6,
        7
      ],
      "matrix": [
        1.0,
        -3.018987445473112e-48,
        0.0,
        0.0,
        3.018987445473112e-48,
        1.0,
        -1.1823114281463375e-48,
        0.0,
        3.5693833582131783e-96,
        1.1823114281463375e-48,
        1.0,
        0.0,
        0.0,
        0.0,
        0.0,
        1.0
      ],
      "name": "SM_ClawMachine_01a_LOD0"
    },
    {
      "mesh": 0,
      "name": "SM_ClawMachine_01a_LOD0_M_ClawMachine_01b_0"
    },
    {
      "mesh": 1,
      "name": "SM_ClawMachine_01a_LOD0_M_Glass_0"
    },
    {
      "mesh": 2,
      "name": "SM_ClawMachine_01a_LOD0_M_ClawMachine_01a_0"
    }
  ],
  "samplers": [
    {
      "magFilter": 9729,
      "minFilter": 9987,
      "wrapS": 10497,
      "wrapT": 10497
    }
  ],
  "scene": 0,
  "scenes": [
    {
      "name": "Sketchfab_Scene",
      "nodes": [
        0
      ]
    }
  ],
  "textures": [
    {
      "sampler": 0,
      "source": 0
    },
    {
      "sampler": 0,
      "source": 1
    },
    {
      "sampler": 0,
      "source": 2
    },
    {
      "sampler": 0,
      "source": 3
    },
    {
      "sampler": 0,
      "source": 4
    },
    {
      "sampler": 0,
      "source": 5
    },
    {
      "sampler": 0,
      "source": 6
    },
    {
      "sampler": 0,
      "source": 7
    },
    {
      "sampler": 0,
      "source": 8
    },
    {
      "sampler": 0,
      "source": 9
    },
    {
      "sampler": 0,
      "source": 10
    }
  ]
}
