{
  "accessors": [
    {
      "bufferView": 2,
      "componentType": 5126,
      "count": 3801,
      "max": [
        0.3156050145626068,
        0.10315299779176712,
        0.641933023929596
      ],
      "min": [
        -0.4177820086479187,
        -0.1673630028963089,
        0.1552640050649643
      ],
      "type": "VEC3"
    },
    {
      "bufferView": 2,
      "byteOffset": 45612,
      "componentType": 5126,
      "count": 3801,
      "max": [
        0.9991843700408936,
        0.9994859099388123,
        0.9989280700683594
      ],
      "min": [
        -0.9972656965255737,
        -0.9990907311439514,
        -0.998904287815094
      ],
      "type": "VEC3"
    },
    {
      "bufferView": 3,
      "componentType": 5126,
      "count": 3801,
      "max": [
        0.9997024536132813,
        0.9999932050704956,
        0.9998517632484436,
        1.0
      ],
      "min": [
        -0.9997568726539612,
        -0.9999675154685974,
        -0.9998637437820435,
        -1.0
      ],
      "type": "VEC4"
    },
    {
      "bufferView": 1,
      "componentType": 5126,
      "count": 3801,
      "max": [
        0.9967910051345825,
        0.9900370240211487
      ],
      "min": [
        0.006814999971538782,
        0.0070489998906850815
      ],
      "type": "VEC2"
    },
    {
      "bufferView": 0,
      "componentType": 5125,
      "count": 16392,
      "type": "SCALAR"
    },
    {
      "bufferView": 2,
      "byteOffset": 91224,
      "componentType": 5126,
      "count": 168,
      "max": [
        0.5419009923934937,
        0.15242999792099,
        1.1726210117340088
      ],
      "min": [
        0.43249499797821045,
        -0.15242999792099,
        1.05827796459198
      ],
      "type": "VEC3"
    },
    {
      "bufferView": 2,
      "byteOffset": 93240,
      "componentType": 5126,
      "count": 168,
      "max": [
        0.23049694299697876,
        0.9818131327629089,
        0.9984273314476013
      ],
      "min": [
        -0.998904287815094,
        -0.9812389016151428,
        -0.7373436689376831
      ],
      "type": "VEC3"
    },
    {
      "bufferView": 1,
      "byteOffset": 30408,
      "componentType": 5126,
      "count": 168,
      "max": [
        0.284947007894516,
        0.9947760105133057
      ],
      "min": [
        0.006684000138193369,
        0.9908260107040405
      ],
      "type": "VEC2"
    },
    {
      "bufferView": 0,
      "byteOffset": 65568,
      "componentType": 5125,
      "count": 714,
      "type": "SCALAR"
    },
    {
      "bufferView": 2,
      "byteOffset": 95256,
      "componentType": 5126,
      "count": 1552,
      "max": [
        -0.41801801323890686,
        0.09247700124979019,
        0.633762001991272
      ],
      "min": [
        -1.0420730113983154,
        -0.09294299781322479,
        0.009705999866127968
      ],
      "type": "VEC3"
    },
    {
      "bufferView": 2,
      "byteOffset": 113880,
      "componentType": 5126,
      "count": 1552,
      "max": [
        0.9976785778999329,
        0.996383011341095,
        0.9976785778999329
      ],
      "min": [
        -0.9976785778999329,
        -0.9964866042137146,
        -0.9976785778999329
      ],
      "type": "VEC3"
    },
    {
      "bufferView": 3,
      "byteOffset": 60816,
      "componentType": 5126,
      "count": 1552,
      "max": [
        0.9999983906745911,
        0.9976924061775208,
        0.9958779811859131,
        1.0
      ],
      "min": [
        -0.9958807826042175,
        -0.2777736186981201,
        -0.9999980926513672,
        1.0
      ],
      "type": "VEC4"
    },
    {
      "bufferView": 1,
      "byteOffset": 31752,
      "componentType": 5126,
      "count": 1552,
      "max": [
        0.9923400282859802,
        0.9923329949378967
      ],
      "min": [
        0.007660000119358301,
        0.007666999939829111
      ],
      "type": "VEC2"
    },
    {
      "bufferView": 0,
      "byteOffset": 68424,
      "componentType": 5125,
      "count": 7296,
      "type": "SCALAR"
    },
    {
      "bufferView": 2,
      "byteOffset": 132504,
      "componentType": 5126,
      "count": 31546,
      "max": [
        0.7776610255241394,
        0.38774099946022034,
        1.0613499879837036
      ],
      "min": [
        0.29092198610305786,
        -0.38954898715019226,
        0.6440969705581665
      ],
      "type": "VEC3"
    },
    {
      "bufferView": 2,
      "byteOffset": 511056,
      "componentType": 5126,
      "count": 31546,
      "max": [
        0.9999376535415649,
        1.0,
        0.9999687671661377
      ],
      "min": [
        -0.9999696016311646,
        -1.0,
        -1.0
      ],
      "type": "VEC3"
    },
    {
      "bufferView": 3,
      "byteOffset": 85648,
      "componentType": 5126,
      "count": 31546,
      "max": [
        0.999970018863678,
        1.0,
        0.9999986886978149,
        1.0
      ],
      "min": [
        -0.9999799132347107,
        -1.0,
        -0.9999618530273438,
        -1.0
      ],
      "type": "VEC4"
    },
    {
      "bufferView": 1,
      "byteOffset": 44168,
      "componentType": 5126,
      "count": 31546,
      "max": [
        1.999215006828308,
        0.9989169836044312
      ],
      "min": [
        1.0013149976730347,
        0.0019710001070052385
      ],
      "type": "VEC2"
    },
    {
      "bufferView": 0,
      "byteOffset": 97608,
      "componentType": 5125,
      "count": 114276,
      "type": "SCALAR"
    },
    {
      "bufferView": 2,
      "byteOffset": 889608,
      "componentType": 5126,
      "count": 16,
      "max": [
        0.6408690214157104,
        0.07813800126314163,
        0.9556509852409363
      ],
      "min": [
        0.5857840180397034,
        -0.07813800126314163,
        0.8712350130081177
      ],
      "type": "VEC3"
    },
    {
      "bufferView": 2,
      "byteOffset": 889800,
      "componentType": 5126,
      "count": 16,
      "max": [
        -0.8426668643951416,
        0.007799692917615175,
        0.5383788347244263
      ],
      "min": [
        -0.8426668643951416,
        0.007799692917615175,
        0.5383788347244263
      ],
      "type": "VEC3"
    },
    {
      "bufferView": 1,
      "byteOffset": 296536,
      "componentType": 5126,
      "count": 16,
      "max": [
        0.9862890243530273,
        0.7809739708900452
      ],
      "min": [
        0.016133999451994896,
        0.15516699850559235
      ],
      "type": "VEC2"
    },
    {
      "bufferView": 0,
      "byteOffset": 554712,
      "componentType": 5125,
      "count": 42,
      "type": "SCALAR"
    },
    {
      "bufferView": 2,
      "byteOffset": 889992,
      "componentType": 5126,
      "count": 542,
      "max": [
        -0.03616499900817871,
        0.13154500722885132,
        0.49414700269699097
      ],
      "min": [
        -0.8384259939193726,
        0.11408200114965439,
        0.21248400211334229
      ],
      "type": "VEC3"
    },
    {
      "bufferView": 2,
      "byteOffset": 896496,
      "componentType": 5126,
      "count": 542,
      "max": [
        0.9988399744033813,
        0.9999696016311646,
        0.9979570508003235
      ],
      "min": [
        -0.9980269074440002,
        -0.9999680519104004,
        -0.9988738894462585
      ],
      "type": "VEC3"
    },
    {
      "bufferView": 3,
      "byteOffset": 590384,
      "componentType": 5126,
      "count": 542,
      "max": [
        0.9995617270469666,
        0.274787575006485,
        0.9997168183326721,
        1.0
      ],
      "min": [
        -0.9999663829803467,
        -0.9999704360961914,
        -0.9999670386314392,
        -1.0
      ],
      "type": "VEC4"
    },
    {
      "bufferView": 1,
      "byteOffset": 296664,
      "componentType": 5126,
      "count": 542,
      "max": [
        0.9943280220031738,
        0.9917700290679932
      ],
      "min": [
        0.004381000064313412,
        0.006076000165194273
      ],
      "type": "VEC2"
    },
    {
      "bufferView": 0,
      "byteOffset": 554880,
      "componentType": 5125,
      "count": 1584,
      "type": "SCALAR"
    },
    {
      "bufferView": 2,
      "byteOffset": 903000,
      "componentType": 5126,
      "count": 2696,
      "max": [
        0.8332149982452393,
        0.1975499987602234,
        1.0280590057373047
      ],
      "min": [
        -0.7802870273590088,
        -0.1975499987602234,
        0.6872069835662842
      ],
      "type": "VEC3"
    },
    {
      "bufferView": 2,
      "byteOffset": 935352,
      "componentType": 5126,
      "count": 2696,
      "max": [
        0.9988399744033813,
        0.9996957182884216,
        0.9999376535415649
      ],
      "min": [
        -0.9658868908882141,
        -0.9996855854988098,
        -0.9988738894462585
      ],
      "type": "VEC3"
    },
    {
      "bufferView": 3,
      "byteOffset": 599056,
      "componentType": 5126,
      "count": 2696,
      "max": [
        0.9994974732398987,
        0.9999688863754272,
        0.9995037317276001,
        1.0
      ],
      "min": [
        -0.9999688267707825,
        -0.9999688863754272,
        -0.9988712072372437,
        -1.0
      ],
      "type": "VEC4"
    },
    {
      "bufferView": 1,
      "byteOffset": 301000,
      "componentType": 5126,
      "count": 2696,
      "max": [
        0.9901720285415649,
        0.9986010193824768
      ],
      "min": [
        0.0021470000501722097,
        0.010335000231862068
      ],
      "type": "VEC2"
    },
    {
      "bufferView": 0,
      "byteOffset": 561216,
      "componentType": 5125,
      "count": 9450,
      "type": "SCALAR"
    },
    {
      "bufferView": 2,
      "byteOffset": 967704,
      "componentType": 5126,
      "count": 1552,
      "max": [
        1.0413110256195068,
        0.060350000858306885,
        0.6090520024299622
      ],
      "min": [
        0.4194520115852356,
        -0.060770999640226364,
        -0.012807999737560749
      ],
      "type": "VEC3"
    },
    {
      "bufferView": 2,
      "byteOffset": 986328,
      "componentType": 5126,
      "count": 1552,
      "max": [
        0.9951962828636169,
        0.9976882934570313,
        0.9951962828636169
      ],
      "min": [
        -0.9941526055335999,
        -0.9976882934570313,
        -0.9952157735824585
      ],
      "type": "VEC3"
    },
    {
      "bufferView": 3,
      "byteOffset": 642192,
      "componentType": 5126,
      "count": 1552,
      "max": [
        0.9999821782112122,
        0.3152198791503906,
        0.9974991083145142,
        1.0
      ],
      "min": [
        -0.9975022077560425,
        -0.9967600107192993,
        -0.9999817609786987,
        1.0
      ],
      "type": "VEC4"
    },
    {
      "bufferView": 1,
      "byteOffset": 322568,
      "componentType": 5126,
      "count": 1552,
      "max": [
        0.9923400282859802,
        0.9923329949378967
      ],
      "min": [
        0.007660000119358301,
        0.007666999939829111
      ],
      "type": "VEC2"
    },
    {
      "bufferView": 0,
      "byteOffset": 599016,
      "componentType": 5125,
      "count": 7296,
      "type": "SCALAR"
    },
    {
      "bufferView": 2,
      "byteOffset": 1004952,
      "componentType": 5126,
      "count": 620,
      "max": [
        -0.03277499973773956,
        0.13430100679397583,
        0.49526599049568176
      ],
      "min": [
        -0.8412020206451416,
        0.11773200333118439,
        0.2133360058069229
      ],
      "type": "VEC3"
    },
    {
      "bufferView": 2,
      "byteOffset": 1012392,
      "componentType": 5126,
      "count": 620,
      "max": [
        0.9974910616874695,
        0.9999392032623291,
        0.997430682182312
      ],
      "min": [
        -0.9968388676643372,
        -0.9999376535415649,
        -0.9969305396080017
      ],
      "type": "VEC3"
    },
    {
      "bufferView": 3,
      "byteOffset": 667024,
      "componentType": 5126,
      "count": 620,
      "max": [
        0.9990848302841187,
        0.011171831749379635,
        0.9928777813911438,
        1.0
      ],
      "min": [
        -0.9999420046806335,
        -0.011157755739986897,
        -0.9979903101921082,
        1.0
      ],
      "type": "VEC4"
    },
    {
      "bufferView": 1,
      "byteOffset": 334984,
      "componentType": 5126,
      "count": 620,
      "max": [
        31.997657775878906,
        0.9811670184135437
      ],
      "min": [
        -25.663728713989258,
        0.048385001718997955
      ],
      "type": "VEC2"
    },
    {
      "bufferView": 0,
      "byteOffset": 628200,
      "componentType": 5125,
      "count": 1836,
      "type": "SCALAR"
    },
    {
      "bufferView": 2,
      "byteOffset": 1019832,
      "componentType": 5126,
      "count": 3892,
      "max": [
        0.03327399864792824,
        0.14878299832344055,
        0.36816298961639404
      ],
      "min": [
        -0.3851200044155121,
        -0.16187100112438202,
        0.13027000427246094
      ],
      "type": "VEC3"
    },
    {
      "bufferView": 2,
      "byteOffset": 1066536,
      "componentType": 5126,
      "count": 3892,
      "max": [
        0.9999392032623291,
        1.0,
        1.0
      ],
      "min": [
        -0.9999696016311646,
        -1.0,
        -1.0
      ],
      "type": "VEC3"
    },
    {
      "bufferView": 3,
      "byteOffset": 676944,
      "componentType": 5126,
      "count": 3892,
      "max": [
        0.9999898076057434,
        1.0,
        0.9999688863754272,
        1.0
      ],
      "min": [
        -0.9999901056289673,
        -0.9999999403953552,
        -0.9999994039535522,
        1.0
      ],
      "type": "VEC4"
    },
    {
      "bufferView": 1,
      "byteOffset": 339944,
      "componentType": 5126,
      "count": 3892,
      "max": [
        0.99652498960495,
        0.9944400191307068
      ],
      "min": [
        0.002707999898120761,
        0.00482300017029047
      ],
      "type": "VEC2"
    },
    {
      "bufferView": 0,
      "byteOffset": 635544,
      "componentType": 5125,
      "count": 14622,
      "type": "SCALAR"
    },
    {
      "bufferView": 2,
      "byteOffset": 1113240,
      "componentType": 5126,
      "count": 58,
      "max": [
        0.5454480051994324,
        0.39602598547935486,
        1.1082680225372314
      ],
      "min": [
        0.5108960270881653,
        -0.39602598547935486,
        1.0262980461120605
      ],
      "type": "VEC3"
    },
    {
      "bufferView": 2,
      "byteOffset": 1113936,
      "componentType": 5126,
      "count": 58,
      "max": [
        -0.9643828868865967,
        0.264395534992218,
        -0.0076998695731163025
      ],
      "min": [
        -0.9682682156562805,
        -0.24990974366664886,
        -0.007800303865224123
      ],
      "type": "VEC3"
    },
    {
      "bufferView": 1,
      "byteOffset": 371080,
      "componentType": 5126,
      "count": 58,
      "max": [
        0.9663969874382019,
        0.8250589966773987
      ],
      "min": [
        0.033535998314619064,
        0.16589699685573578
      ],
      "type": "VEC2"
    },
    {
      "bufferView": 0,
      "byteOffset": 694032,
      "componentType": 5125,
      "count": 162,
      "type": "SCALAR"
    },
    {
      "bufferView": 2,
      "byteOffset": 1114632,
      "componentType": 5126,
      "count": 2398,
      "max": [
        0.8398690223693848,
        0.3784419894218445,
        1.1726210117340088
      ],
      "min": [
        -0.965258002281189,
        -0.3784419894218445,
        0.37232500314712524
      ],
      "type": "VEC3"
    },
    {
      "bufferView": 2,
      "byteOffset": 1143408,
      "componentType": 5126,
      "count": 2398,
      "max": [
        0.9998440146446228,
        1.0,
        0.9999687671661377
      ],
      "min": [
        -0.9999696016311646,
        -1.0,
        -0.999847948551178
      ],
      "type": "VEC3"
    },
    {
      "bufferView": 3,
      "byteOffset": 739216,
      "componentType": 5126,
      "count": 2398,
      "max": [
        1.0,
        0.9999704360961914,
        1.0,
        1.0
      ],
      "min": [
        -0.9998782873153687,
        -0.9999022483825684,
        -0.9998751878738403,
        -1.0
      ],
      "type": "VEC4"
    },
    {
      "bufferView": 1,
      "byteOffset": 371544,
      "componentType": 5126,
      "count": 2398,
      "max": [
        2.987912893295288,
        0.9981939792633057
      ],
      "min": [
        2.0087480545043945,
        0.0053170002065598965
      ],
      "type": "VEC2"
    },
    {
      "bufferView": 0,
      "byteOffset": 694680,
      "componentType": 5125,
      "count": 10248,
      "type": "SCALAR"
    },
    {
      "bufferView": 2,
      "byteOffset": 1172184,
      "componentType": 5126,
      "count": 2136,
      "max": [
        0.8959699869155884,
        0.08053799718618393,
        0.4637080132961273
      ],
      "min": [
        -0.8540449738502502,
        -0.08053799718618393,
        0.1325249969959259
      ],
      "type": "VEC3"
    },
    {
      "bufferView": 2,
      "byteOffset": 1197816,
      "componentType": 5126,
      "count": 2136,
      "max": [
        0.03169992193579674,
        0.9999392032623291,
        0.03170044720172882
      ],
      "min": [
        -0.04760197550058365,
        -0.9999392032623291,
        -0.04760197550058365
      ],
      "type": "VEC3"
    },
    {
      "bufferView": 1,
      "byteOffset": 390728,
      "componentType": 5126,
      "count": 2136,
      "max": [
        0.9990919828414917,
        0.998924970626831
      ],
      "min": [
        0.0012740000383928418,
        0.001623000018298626
      ],
      "type": "VEC2"
    },
    {
      "bufferView": 0,
      "byteOffset": 735672,
      "componentType": 5125,
      "count": 6192,
      "type": "SCALAR"
    },
    {
      "bufferView": 2,
      "byteOffset": 1223448,
      "componentType": 5126,
      "count": 38672,
      "max": [
        0.9121419787406921,
        0.3381569981575012,
        1.0726399421691895
      ],
      "min": [
        -0.8278599977493286,
        -0.3381569981575012,
        0.12171199917793274
      ],
      "type": "VEC3"
    },
    {
      "bufferView": 2,
      "byteOffset": 1687512,
      "componentType": 5126,
      "count": 38672,
      "max": [
        0.9999687671661377,
        0.9999696016311646,
        0.9999687671661377
      ],
      "min": [
        -0.9999696016311646,
        -0.9999687671661377,
        -0.9999696016311646
      ],
      "type": "VEC3"
    },
    {
      "bufferView": 3,
      "byteOffset": 777584,
      "componentType": 5126,
      "count": 38672,
      "max": [
        0.999998152256012,
        1.0,
        0.9999430179595947,
        1.0
      ],
      "min": [
        -0.9999985694885254,
        -1.0,
        -0.9999683499336243,
        -1.0
      ],
      "type": "VEC4"
    },
    {
      "bufferView": 1,
      "byteOffset": 407816,
      "componentType": 5126,
      "count": 38672,
      "max": [
        0.9973260164260864,
        0.9972180128097534
      ],
      "min": [
        0.002902999985963106,
        0.0019630000460892916
      ],
      "type": "VEC2"
    },
    {
      "bufferView": 0,
      "byteOffset": 760440,
      "componentType": 5125,
      "count": 169098,
      "type": "SCALAR"
    },
    {
      "bufferView": 2,
      "byteOffset": 2151576,
      "componentType": 5126,
      "count": 82,
      "max": [
        -0.9680730104446411,
        0.08882199972867966,
        0.8478540182113647
      ],
      "min": [
        -1.063351035118103,
        -0.08757799863815308,
        0.6945890188217163
      ],
      "type": "VEC3"
    },
    {
      "bufferView": 2,
      "byteOffset": 2152560,
      "componentType": 5126,
      "count": 82,
      "max": [
        0.8497486710548401,
        0.9999399185180664,
        0.8567774295806885
      ],
      "min": [
        -0.8609063625335693,
        -0.9999392032623291,
        -0.8540594577789307
      ],
      "type": "VEC3"
    },
    {
      "bufferView": 3,
      "byteOffset": 1396336,
      "componentType": 5126,
      "count": 82,
      "max": [
        0.5184675455093384,
        1.0,
        0.8555799126625061,
        1.0
      ],
      "min": [
        -0.5185111165046692,
        -1.0,
        -0.8556031584739685,
        1.0
      ],
      "type": "VEC4"
    },
    {
      "bufferView": 1,
      "byteOffset": 717192,
      "componentType": 5126,
      "count": 82,
      "max": [
        0.9974520206451416,
        0.13570700585842133
      ],
      "min": [
        0.7514309883117676,
        0.002644000109285116
      ],
      "type": "VEC2"
    },
    {
      "bufferView": 0,
      "byteOffset": 1436832,
      "componentType": 5125,
      "count": 228,
      "type": "SCALAR"
    },
    {
      "bufferView": 2,
      "byteOffset": 2153544,
      "componentType": 5126,
      "count": 65532,
      "max": [
        0.818077027797699,
        0.2801879942417145,
        0.9299880266189575
      ],
      "min": [
        -0.8128010034561157,
        -0.2803559899330139,
        0.12345799803733826
      ],
      "type": "VEC3"
    },
    {
      "bufferView": 2,
      "byteOffset": 2939928,
      "componentType": 5126,
      "count": 65532,
      "max": [
        1.0,
        1.0,
        0.9999687671661377
      ],
      "min": [
        -1.0,
        -1.0,
        -1.0
      ],
      "type": "VEC3"
    },
    {
      "bufferView": 3,
      "byteOffset": 1397648,
      "componentType": 5126,
      "count": 65532,
      "max": [
        1.0,
        1.0,
        1.0,
        1.0
      ],
      "min": [
        -1.0,
        -1.0,
        -1.0,
        -1.0
      ],
      "type": "VEC4"
    },
    {
      "bufferView": 1,
      "byteOffset": 717848,
      "componentType": 5126,
      "count": 65532,
      "max": [
        4.995917797088623,
        0.999064028263092
      ],
      "min": [
        4.0029520988464355,
        0.0029329999815672636
      ],
      "type": "VEC2"
    },
    {
      "bufferView": 0,
      "byteOffset": 1437744,
      "componentType": 5125,
      "count": 205284,
      "type": "SCALAR"
    },
    {
      "bufferView": 2,
      "byteOffset": 3726312,
      "componentType": 5126,
      "count": 16638,
      "max": [
        0.7984309792518616,
        0.2747170031070709,
        0.9354659914970398
      ],
      "min": [
        -0.8128010034561157,
        -0.27488499879837036,
        0.13571900129318237
      ],
      "type": "VEC3"
    },
    {
      "bufferView": 2,
      "byteOffset": 3925968,
      "componentType": 5126,
      "count": 16638,
      "max": [
        0.9999376535415649,
        1.0,
        0.9999687671661377
      ],
      "min": [
        -1.0,
        -1.0,
        -0.9999696016311646
      ],
      "type": "VEC3"
    },
    {
      "bufferView": 3,
      "byteOffset": 2446160,
      "componentType": 5126,
      "count": 16638,
      "max": [
        0.999999463558197,
        1.0,
        0.9999943971633911,
        1.0
      ],
      "min": [
        -1.0,
        -1.0,
        -1.0,
        -1.0
      ],
      "type": "VEC4"
    },
    {
      "bufferView": 1,
      "byteOffset": 1242104,
      "componentType": 5126,
      "count": 16638,
      "max": [
        4.9987897872924805,
        0.9980069994926453
      ],
      "min": [
        4.0095391273498535,
        0.0029329999815672636
      ],
      "type": "VEC2"
    },
    {
      "bufferView": 0,
      "byteOffset": 2258880,
      "componentType": 5125,
      "count": 64392,
      "type": "SCALAR"
    },
    {
      "bufferView": 2,
      "byteOffset": 4125624,
      "componentType": 5126,
      "count": 2522,
      "max": [
        0.6435970067977905,
        0.39923998713493347,
        1.1120940446853638
      ],
      "min": [
        -1.0599490404129028,
        -0.39923998713493347,
        0.365557998418808
      ],
      "type": "VEC3"
    },
    {
      "bufferView": 2,
      "byteOffset": 4155888,
      "componentType": 5126,
      "count": 2522,
      "max": [
        0.9998424649238586,
        0.9999696016311646,
        0.9999687671661377
      ],
      "min": [
        -0.9999696016311646,
        -0.9999392032623291,
        -0.9999696016311646
      ],
      "type": "VEC3"
    },
    {
      "bufferView": 3,
      "byteOffset": 2712368,
      "componentType": 5126,
      "count": 2522,
      "max": [
        1.0,
        0.9999815225601196,
        1.0,
        1.0
      ],
      "min": [
        -0.9999696612358093,
        -0.9999704360961914,
        -0.9998735785484314,
        -1.0
      ],
      "type": "VEC4"
    },
    {
      "bufferView": 1,
      "byteOffset": 1375208,
      "componentType": 5126,
      "count": 2522,
      "max": [
        4.938973903656006,
        0.8816670179367065
      ],
      "min": [
        4.002710819244385,
        0.002942000050097704
      ],
      "type": "VEC2"
    },
    {
      "bufferView": 0,
      "byteOffset": 2516448,
      "componentType": 5125,
      "count": 7884,
      "type": "SCALAR"
    },
    {
      "bufferView": 2,
      "byteOffset": 4186152,
      "componentType": 5126,
      "count": 6507,
      "max": [
        0.9618690013885498,
        0.08697299659252167,
        0.550832986831665
      ],
      "min": [
        -0.9591469764709473,
        -0.08697900176048279,
        0.06663399934768677
      ],
      "type": "VEC3"
    },
    {
      "bufferView": 2,
      "byteOffset": 4264236,
      "componentType": 5126,
      "count": 6507,
      "max": [
        0.9999696016311646,
        0.9999696016311646,
        0.9999687671661377
      ],
      "min": [
        -0.9999392032623291,
        -0.9999687671661377,
        -0.9999696016311646
      ],
      "type": "VEC3"
    },
    {
      "bufferView": 3,
      "byteOffset": 2752720,
      "componentType": 5126,
      "count": 6507,
      "max": [
        0.9999696016311646,
        0.9999704360961914,
        0.9999967813491821,
        1.0
      ],
      "min": [
        -0.999999463558197,
        -0.9999704360961914,
        -0.9999734163284302,
        -1.0
      ],
      "type": "VEC4"
    },
    {
      "bufferView": 1,
      "byteOffset": 1395384,
      "componentType": 5126,
      "count": 6507,
      "max": [
        0.9971460103988647,
        0.9956340193748474
      ],
      "min": [
        0.003375000087544322,
        0.008502000011503696
      ],
      "type": "VEC2"
    },
    {
      "bufferView": 0,
      "byteOffset": 2547984,
      "componentType": 5125,
      "count": 26688,
      "type": "SCALAR"
    }
  ],
  "asset": {
    "extras": {
      "author": "Gratisphile (https://sketchfab.com/brainlesszombie5)",
      "license": "CC-BY-4.0 (http://creativecommons.org/licenses/by/4.0/)",
      "source": "https://sketchfab.com/3d-models/2021-ducati-panigale-v4-sp-8c0632e4c54249758114490390f0b73f",
      "title": "2021 Ducati Panigale V4 SP"
    },
    "generator": "Sketchfab-17.15.0",
    "version": "2.0"
  },
  "bufferViews": [
    {
      "buffer": 0,
      "byteLength": 2654736,
      "name": "floatBufferViews",
      "target": 34963
    },
    {
      "buffer": 0,
      "byteLength": 1447440,
      "byteOffset": 2654736,
      "byteStride": 8,
      "name": "floatBufferViews",
      "target": 34962
    },
    {
      "buffer": 0,
      "byteLength": 4342320,
      "byteOffset": 4102176,
      "byteStride": 12,
      "name": "floatBufferViews",
      "target": 34962
    },
    {
      "buffer": 0,
      "byteLength": 2856832,
      "byteOffset": 8444496,
      "byteStride": 16,
      "name": "floatBufferViews",
      "target": 34962
    }
  ],
  "buffers": [
    {
      "byteLength": 11301328,
      "uri": "scene.bin"
    }
  ],
  "extensionsUsed": [
    "KHR_materials_clearcoat",
    "KHR_materials_emissive_strength",
    "KHR_materials_specular"
  ],
  "images": [
    {
      "uri": "textures/exmanifold160_160_001_baseColor.png"
    },
    {
      "uri": "textures/exmanifold160_160_001_metallicRoughness.png"
    },
    {
      "uri": "textures/exmanifold160_160_001_normal.png"
    },
    {
      "uri": "textures/mat_backtyre001_baseColor.png"
    },
    {
      "uri": "textures/mat_backtyre001_metallicRoughness.png"
    },
    {
      "uri": "textures/mat_backtyre001_normal.png"
    },
    {
      "uri": "textures/mat_brake160_baseColor.png"
    },
    {
      "uri": "textures/mat_brake160_metallicRoughness.png"
    },
    {
      "uri": "textures/mat_chain_1_001_baseColor.png"
    },
    {
      "uri": "textures/mat_chain_1_001_metallicRoughness.png"
    },
    {
      "uri": "textures/mat_chain_1_001_normal.png"
    },
    {
      "uri": "textures/mat_cockpit160_001_baseColor.png"
    },
    {
      "uri": "textures/mat_cockpit160_001_metallicRoughness.png"
    },
    {
      "uri": "textures/mat_cockpit160_001_normal.png"
    },
    {
      "uri": "textures/mat_cockpit160_001_clearcoat.png"
    },
    {
      "uri": "textures/mat_fronttyre001_baseColor.png"
    },
    {
      "uri": "textures/mat_fronttyre001_metallicRoughness.png"
    },
    {
      "uri": "textures/mat_fronttyre001_normal.png"
    },
    {
      "uri": "textures/mat_gauge160_baseColor.png"
    },
    {
      "uri": "textures/mat_gear160_baseColor.png"
    },
    {
      "uri": "textures/mat_gear160_metallicRoughness.png"
    },
    {
      "uri": "textures/mat_gear160_normal.png"
    },
    {
      "uri": "textures/mat_glass160_baseColor.png"
    },
    {
      "uri": "textures/mat_glass160_normal.png"
    },
    {
      "uri": "textures/mat_light160_baseColor.png"
    },
    {
      "uri": "textures/mat_light160_metallicRoughness.png"
    },
    {
      "uri": "textures/mat_light160_normal.png"
    },
    {
      "uri": "textures/mat_livery_0_160_001_baseColor.png"
    },
    {
      "uri": "textures/mat_livery_0_160_001_metallicRoughness.png"
    },
    {
      "uri": "textures/mat_livery_0_160_001_normal.png"
    },
    {
      "uri": "textures/mat_livery_0_160_001_clearcoat.png"
    },
    {
      "uri": "textures/mat_mechanics160_001_baseColor.png"
    },
    {
      "uri": "textures/mat_mechanics160_001_metallicRoughness.png"
    },
    {
      "uri": "textures/mat_mechanics160_001_normal.png"
    },
    {
      "uri": "textures/mat_mechanics160_001_clearcoat.png"
    },
    {
      "uri": "textures/mat_muffler160_001_baseColor.png"
    },
    {
      "uri": "textures/mat_muffler160_001_metallicRoughness.png"
    },
    {
      "uri": "textures/mat_muffler160_001_normal.png"
    },
    {
      "uri": "textures/mat_rim160_001_baseColor.png"
    },
    {
      "uri": "textures/mat_rim160_001_metallicRoughness.png"
    },
    {
      "uri": "textures/mat_rim160_001_normal.png"
    }
  ],
  "materials": [
    {
      "doubleSided": true,
      "name": "BASE_glass_edge_dark",
      "pbrMetallicRoughness": {
        "baseColorFactor": [
          0.0,
          0.0,
          0.0,
          1.0
        ],
        "metallicFactor": 0.0,
        "roughnessFactor": 0.6
      }
    },
    {
      "doubleSided": true,
      "name": "exmanifold160_160_001",
      "normalTexture": {
        "index": 2
      },
      "pbrMetallicRoughness": {
        "baseColorTexture": {
          "index": 0
        },
        "metallicRoughnessTexture": {
          "index": 1
        }
      }
    },
    {
      "doubleSided": true,
      "name": "mat_backtyre001",
      "normalTexture": {
        "index": 5
      },
      "pbrMetallicRoughness": {
        "baseColorTexture": {
          "index": 3
        },
        "metallicRoughnessTexture": {
          "index": 4
        }
      }
    },
    {
      "doubleSided": true,
      "name": "mat_brake160",
      "pbrMetallicRoughness": {
        "baseColorTexture": {
          "index": 6
        },
        "metallicRoughnessTexture": {
          "index": 7
        }
      }
    },
    {
      "doubleSided": true,
      "name": "mat_chain_1_001",
      "normalTexture": {
        "index": 10
      },
      "pbrMetallicRoughness": {
        "baseColorTexture": {
          "index": 8
        },
        "metallicRoughnessTexture": {
          "index": 9
        }
      }
    },
    {
      "doubleSided": true,
      "extensions": {
        "KHR_materials_clearcoat": {
          "clearcoatFactor": 1.0,
          "clearcoatNormalTexture": {
            "index": 13
          },
          "clearcoatRoughnessFactor": 1.0,
          "clearcoatRoughnessTexture": {
            "index": 12
          },
          "clearcoatTexture": {
            "index": 14
          }
        }
      },
      "name": "mat_cockpit160_001",
      "normalTexture": {
        "index": 13
      },
      "pbrMetallicRoughness": {
        "baseColorTexture": {
          "index": 11
        },
        "metallicRoughnessTexture": {
          "index": 12
        }
      }
    },
    {
      "doubleSided": true,
      "name": "mat_fronttyre001",
      "normalTexture": {
        "index": 17
      },
      "pbrMetallicRoughness": {
        "baseColorTexture": {
          "index": 15
        },
        "metallicRoughnessTexture": {
          "index": 16
        }
      }
    },
    {
      "doubleSided": true,
      "emissiveFactor": [
        1.0,
        1.0,
        1.0
      ],
      "emissiveTexture": {
        "index": 18
      },
      "extensions": {
        "KHR_materials_emissive_strength": {
          "emissiveStrength": 10.0
        }
      },
      "name": "mat_gauge160",
      "pbrMetallicRoughness": {
        "baseColorTexture": {
          "index": 18
        },
        "metallicFactor": 0.0,
        "roughnessFactor": 0.0
      }
    },
    {
      "doubleSided": true,
      "extensions": {
        "KHR_materials_specular": {
          "specularColorFactor": [
            1.0,
            1.0,
            1.0
          ],
          "specularFactor": 0.0
        }
      },
      "name": "mat_gear160",
      "normalTexture": {
        "index": 21
      },
      "pbrMetallicRoughness": {
        "baseColorTexture": {
          "index": 19
        },
        "metallicRoughnessTexture": {
          "index": 20
        }
      }
    },
    {
      "alphaCutoff": 0.011018971520681035,
      "alphaMode": "MASK",
      "doubleSided": true,
      "name": "mat_glass160",
      "normalTexture": {
        "index": 23
      },
      "pbrMetallicRoughness": {
        "baseColorTexture": {
          "index": 22
        },
        "metallicFactor": 0.0,
        "roughnessFactor": 0.0
      }
    },
    {
      "doubleSided": true,
      "name": "mat_light160",
      "normalTexture": {
        "index": 26
      },
      "pbrMetallicRoughness": {
        "baseColorTexture": {
          "index": 24
        },
        "metallicRoughnessTexture": {
          "index": 25
        }
      }
    },
    {
      "doubleSided": true,
      "extensions": {
        "KHR_materials_clearcoat": {
          "clearcoatFactor": 1.0,
          "clearcoatNormalTexture": {
            "index": 29
          },
          "clearcoatRoughnessFactor": 0.10546729884080419,
          "clearcoatRoughnessTexture": {
            "index": 28
          },
          "clearcoatTexture": {
            "index": 30
          }
        },
        "KHR_materials_specular": {
          "specularColorFactor": [
            1.0,
            1.0,
            1.0
          ],
          "specularFactor": 1.0
        }
      },
      "name": "mat_livery_0_160_001",
      "normalTexture": {
        "index": 29
      },
      "pbrMetallicRoughness": {
        "baseColorTexture": {
          "index": 27
        },
        "metallicRoughnessTexture": {
          "index": 28
        }
      }
    },
    {
      "doubleSided": true,
      "extensions": {
        "KHR_materials_clearcoat": {
          "clearcoatFactor": 1.0,
          "clearcoatNormalTexture": {
            "index": 33
          },
          "clearcoatRoughnessFactor": 1.0,
          "clearcoatRoughnessTexture": {
            "index": 32
          },
          "clearcoatTexture": {
            "index": 34
          }
        }
      },
      "name": "mat_mechanics160_001",
      "normalTexture": {
        "index": 33
      },
      "pbrMetallicRoughness": {
        "baseColorTexture": {
          "index": 31
        },
        "metallicRoughnessTexture": {
          "index": 32
        }
      }
    },
    {
      "doubleSided": true,
      "extensions": {
        "KHR_materials_specular": {
          "specularColorFactor": [
            1.0,
            1.0,
            1.0
          ],
          "specularFactor": 1.0
        }
      },
      "name": "mat_mirrorview"
    },
    {
      "doubleSided": true,
      "name": "mat_muffler160_001",
      "normalTexture": {
        "index": 37
      },
      "pbrMetallicRoughness": {
        "baseColorTexture": {
          "index": 35
        },
        "metallicRoughnessTexture": {
          "index": 36
        }
      }
    },
    {
      "doubleSided": true,
      "name": "mat_rim160_001",
      "normalTexture": {
        "index": 40
      },
      "pbrMetallicRoughness": {
        "baseColorTexture": {
          "index": 38
        },
        "metallicRoughnessTexture": {
          "index": 39
        }
      }
    }
  ],
  "meshes": [
    {
      "name": "Object_0",
      "primitives": [
        {
          "attributes": {
            "NORMAL": 1,
            "POSITION": 0,
            "TANGENT": 2,
            "TEXCOORD_0": 3
          },
          "indices": 4,
          "material": 1,
          "mode": 4
        }
      ]
    },
    {
      "name": "Object_1",
      "primitives": [
        {
          "attributes": {
            "NORMAL": 6,
            "POSITION": 5,
            "TEXCOORD_0": 7
          },
          "indices": 8,
          "material": 0,
          "mode": 4
        }
      ]
    },
    {
      "name": "Object_2",
      "primitives": [
        {
          "attributes": {
            "NORMAL": 10,
            "POSITION": 9,
            "TANGENT": 11,
            "TEXCOORD_0": 12
          },
          "indices": 13,
          "material": 2,
          "mode": 4
        }
      ]
    },
    {
      "name": "Object_3",
      "primitives": [
        {
          "attributes": {
            "NORMAL": 15,
            "POSITION": 14,
            "TANGENT": 16,
            "TEXCOORD_0": 17
          },
          "indices": 18,
          "material": 5,
          "mode": 4
        }
      ]
    },
    {
      "name": "Object_4",
      "primitives": [
        {
          "attributes": {
            "NORMAL": 20,
            "POSITION": 19,
            "TEXCOORD_0": 21
          },
          "indices": 22,
          "material": 7,
          "mode": 4
        }
      ]
    },
    {
      "name": "Object_5",
      "primitives": [
        {
          "attributes": {
            "NORMAL": 24,
            "POSITION": 23,
            "TANGENT": 25,
            "TEXCOORD_0": 26
          },
          "indices": 27,
          "material": 8,
          "mode": 4
        }
      ]
    },
    {
      "name": "Object_6",
      "primitives": [
        {
          "attributes": {
            "NORMAL": 29,
            "POSITION": 28,
            "TANGENT": 30,
            "TEXCOORD_0": 31
          },
          "indices": 32,
          "material": 10,
          "mode": 4
        }
      ]
    },
    {
      "name": "Object_7",
      "primitives": [
        {
          "attributes": {
            "NORMAL": 34,
            "POSITION": 33,
            "TANGENT": 35,
            "TEXCOORD_0": 36
          },
          "indices": 37,
          "material": 6,
          "mode": 4
        }
      ]
    },
    {
      "name": "Object_8",
      "primitives": [
        {
          "attributes": {
            "NORMAL": 39,
            "POSITION": 38,
            "TANGENT": 40,
            "TEXCOORD_0": 41
          },
          "indices": 42,
          "material": 4,
          "mode": 4
        }
      ]
    },
    {
      "name": "Object_9",
      "primitives": [
        {
          "attributes": {
            "NORMAL": 44,
            "POSITION": 43,
            "TANGENT": 45,
            "TEXCOORD_0": 46
          },
          "indices": 47,
          "material": 14,
          "mode": 4
        }
      ]
    },
    {
      "name": "Object_10",
      "primitives": [
        {
          "attributes": {
            "NORMAL": 49,
            "POSITION": 48,
            "TEXCOORD_0": 50
          },
          "indices": 51,
          "material": 13,
          "mode": 4
        }
      ]
    },
    {
      "name": "Object_11",
      "primitives": [
        {
          "attributes": {
            "NORMAL": 53,
            "POSITION": 52,
            "TANGENT": 54,
            "TEXCOORD_0": 55
          },
          "indices": 56,
          "material": 9,
          "mode": 4
        }
      ]
    },
    {
      "name": "Object_12",
      "primitives": [
        {
          "attributes": {
            "NORMAL": 58,
            "POSITION": 57,
            "TEXCOORD_0": 59
          },
          "indices": 60,
          "material": 3,
          "mode": 4
        }
      ]
    },
    {
      "name": "Object_13",
      "primitives": [
        {
          "attributes": {
            "NORMAL": 62,
            "POSITION": 61,
            "TANGENT": 63,
            "TEXCOORD_0": 64
          },
          "indices": 65,
          "material": 11,
          "mode": 4
        }
      ]
    },
    {
      "name": "Object_14",
      "primitives": [
        {
          "attributes": {
            "NORMAL": 67,
            "POSITION": 66,
            "TANGENT": 68,
            "TEXCOORD_0": 69
          },
          "indices": 70,
          "material": 11,
          "mode": 4
        }
      ]
    },
    {
      "name": "Object_15",
      "primitives": [
        {
          "attributes": {
            "NORMAL": 72,
            "POSITION": 71,
            "TANGENT": 73,
            "TEXCOORD_0": 74
          },
          "indices": 75,
          "material": 12,
          "mode": 4
        }
      ]
    },
    {
      "name": "Object_16",
      "primitives": [
        {
          "attributes": {
            "NORMAL": 77,
            "POSITION": 76,
            "TANGENT": 78,
            "TEXCOORD_0": 79
          },
          "indices": 80,
          "material": 12,
          "mode": 4
        }
      ]
    },
    {
      "name": "Object_17",
      "primitives": [
        {
          "attributes": {
            "NORMAL": 82,
            "POSITION": 81,
            "TANGENT": 83,
            "TEXCOORD_0": 84
          },
          "indices": 85,
          "material": 12,
          "mode": 4
        }
      ]
    },
    {
      "name": "Object_18",
      "primitives": [
        {
          "attributes": {
            "NORMAL": 87,
            "POSITION": 86,
            "TANGENT": 88,
            "TEXCOORD_0": 89
          },
          "indices": 90,
          "material": 15,
          "mode": 4
        }
      ]
    }
  ],
  "nodes": [
    {
      "children": [
        1
      ],
      "matrix": [
        1.0,
        0.0,
        0.0,
        0.0,
        0.0,
        2.220446049250313e-16,
        -1.0,
        0.0,
        0.0,
        1.0,
        2.220446049250313e-16,
        0.0,
        0.0,
        0.0,
        0.0,
        1.0
      ],
      "name": "Sketchfab_model"
    },
    {
      "children": [
        2,
        3,
        4,
        5,
        6,
        7,
        8,
        9,
        10,
        11,
        12,
        13,
        14,
        15,
        16,
        17,
        18,
        19,
        20
      ],
      "name": "2021 Ducati Panigale V4 SP.obj.cleaner.materialmerger.gles"
    },
    {
      "mesh": 0,
      "name": "Object_2"
    },
    {
      "mesh": 1,
      "name": "Object_3"
    },
    {
      "mesh": 2,
      "name": "Object_4"
    },
    {
      "mesh": 3,
      "name": "Object_5"
    },
    {
      "mesh": 4,
      "name": "Object_6"
    },
    {
      "mesh": 5,
      "name": "Object_7"
    },
    {
      "mesh": 6,
      "name": "Object_8"
    },
    {
      "mesh": 7,
      "name": "Object_9"
    },
    {
      "mesh": 8,
      "name": "Object_10"
    },
    {
      "mesh": 9,
      "name": "Object_11"
    },
    {
      "mesh": 10,
      "name": "Object_12"
    },
    {
      "mesh": 11,
      "name": "Object_13"
    },
    {
      "mesh": 12,
      "name": "Object_14"
    },
    {
      "mesh": 13,
      "name": "Object_15"
    },
    {
      "mesh": 14,
      "name": "Object_16"
    },
    {
      "mesh": 15,
      "name": "Object_17"
    },
    {
      "mesh": 16,
      "name": "Object_18"
    },
    {
      "mesh": 17,
      "name": "Object_19"
    },
    {
      "mesh": 18,
      "name": "Object_20"
    }
  ],
  "samplers": [
    {
      "magFilter": 9729,
      "minFilter": 9987,
      "wrapS": 10497,
      "wrapT": 10497
    }
  ],
  "scene": 0,
  "scenes": [
    {
      "name": "Sketchfab_Scene",
      "nodes": [
        0
      ]
    }
  ],
  "textures": [
    {
      "sampler": 0,
      "source": 0
    },
    {
      "sampler": 0,
      "source": 1
    },
    {
      "sampler": 0,
      "source": 2
    },
    {
      "sampler": 0,
      "source": 3
    },
    {
      "sampler": 0,
      "source": 4
    },
    {
      "sampler": 0,
      "source": 5
    },
    {
      "sampler": 0,
      "source": 6
    },
    {
      "sampler": 0,
      "source": 7
    },
    {
      "sampler": 0,
      "source": 8
    },
    {
      "sampler": 0,
      "source": 9
    },
    {
      "sampler": 0,
      "source": 10
    },
    {
      "sampler": 0,
      "source": 11
    },
    {
      "sampler": 0,
      "source": 12
    },
    {
      "sampler": 0,
      "source": 13
    },
    {
      "sampler": 0,
      "source": 14
    },
    {
      "sampler": 0,
      "source": 15
    },
    {
      "sampler": 0,
      "source": 16
    },
    {
      "sampler": 0,
      "source": 17
    },
    {
      "sampler": 0,
      "source": 18
    },
    {
      "sampler": 0,
      "source": 19
    },
    {
      "sampler": 0,
      "source": 20
    },
    {
      "sampler": 0,
      "source": 21
    },
    {
      "sampler": 0,
      "source": 22
    },
    {
      "sampler": 0,
      "source": 23
    },
    {
      "sampler": 0,
      "source": 24
    },
    {
      "sampler": 0,
      "source": 25
    },
    {
      "sampler": 0,
      "source": 26
    },
    {
      "sampler": 0,
      "source": 27
    },
    {
      "sampler": 0,
      "source": 28
    },
    {
      "sampler": 0,
      "source": 29
    },
    {
      "sampler": 0,
      "source": 30
    },
    {
      "sampler": 0,
      "source": 31
    },
    {
      "sampler": 0,
      "source": 32
    },
    {
      "sampler": 0,
      "source": 33
    },
    {
      "sampler": 0,
      "source": 34
    },
    {
      "sampler": 0,
      "source": 35
    },
    {
      "sampler": 0,
      "source": 36
    },
    {
      "sampler": 0,
      "source": 37
    },
    {
      "sampler": 0,
      "source": 38
    },
    {
      "sampler": 0,
      "source": 39
    },
    {
      "sampler": 0,
      "source": 40
    }
  ]
}
